%TF.GenerationSoftware,KiCad,Pcbnew,10.0.5*%
%TF.CreationDate,2026-08-03T15:17:48-04:00*%
%TF.ProjectId,tracker,74726163-6b65-4722-9e6b-696361645f70,rev?*%
%TF.SameCoordinates,Original*%
%TF.FileFunction,Legend,Top*%
%TF.FilePolarity,Positive*%
%FSLAX46Y46*%
G04 Gerber Fmt 4.6, Leading zero omitted, Abs format (unit mm)*
G04 Created by KiCad (PCBNEW 10.0.5) date 2026-08-03 15:17:48*
%MOMM*%
%LPD*%
G01*
G04 APERTURE LIST*
G04 Aperture macros list*
%AMRoundRect*
0 Rectangle with rounded corners*
0 $1 Rounding radius*
0 $2 $3 $4 $5 $6 $7 $8 $9 X,Y pos of 4 corners*
0 Add a 4 corners polygon primitive as box body*
4,1,4,$2,$3,$4,$5,$6,$7,$8,$9,$2,$3,0*
0 Add four circle primitives for the rounded corners*
1,1,$1+$1,$2,$3*
1,1,$1+$1,$4,$5*
1,1,$1+$1,$6,$7*
1,1,$1+$1,$8,$9*
0 Add four rect primitives between the rounded corners*
20,1,$1+$1,$2,$3,$4,$5,0*
20,1,$1+$1,$4,$5,$6,$7,0*
20,1,$1+$1,$6,$7,$8,$9,0*
20,1,$1+$1,$8,$9,$2,$3,0*%
%AMRotRect*
0 Rectangle, with rotation*
0 The origin of the aperture is its center*
0 $1 length*
0 $2 width*
0 $3 Rotation angle, in degrees counterclockwise*
0 Add horizontal line*
21,1,$1,$2,0,0,$3*%
%AMOutline4P*
0 Free polygon, 4 corners , with rotation*
0 The origin of the aperture is its center*
0 number of corners: always 4*
0 $1 to $8 corner X, Y*
0 $9 Rotation angle, in degrees counterclockwise*
0 create outline with 4 corners*
4,1,4,$1,$2,$3,$4,$5,$6,$7,$8,$1,$2,$9*%
G04 Aperture macros list end*
%ADD10C,0.150000*%
%ADD11C,0.120000*%
%ADD12C,0.250000*%
%ADD13C,0.060000*%
%ADD14C,0.100000*%
%ADD15RoundRect,0.237500X0.300000X0.237500X-0.300000X0.237500X-0.300000X-0.237500X0.300000X-0.237500X0*%
%ADD16RoundRect,0.250000X0.275000X0.750000X-0.275000X0.750000X-0.275000X-0.750000X0.275000X-0.750000X0*%
%ADD17RoundRect,0.237500X-0.237500X0.300000X-0.237500X-0.300000X0.237500X-0.300000X0.237500X0.300000X0*%
%ADD18RotRect,0.250000X0.450000X315.000000*%
%ADD19RotRect,0.250000X0.450000X225.000000*%
%ADD20RoundRect,0.237500X-0.237500X0.250000X-0.237500X-0.250000X0.237500X-0.250000X0.237500X0.250000X0*%
%ADD21RoundRect,0.237500X0.237500X-0.300000X0.237500X0.300000X-0.237500X0.300000X-0.237500X-0.300000X0*%
%ADD22RoundRect,0.237500X0.237500X-0.250000X0.237500X0.250000X-0.237500X0.250000X-0.237500X-0.250000X0*%
%ADD23C,3.200000*%
%ADD24RoundRect,0.237500X0.250000X0.237500X-0.250000X0.237500X-0.250000X-0.237500X0.250000X-0.237500X0*%
%ADD25RoundRect,0.237500X-0.300000X-0.237500X0.300000X-0.237500X0.300000X0.237500X-0.300000X0.237500X0*%
%ADD26RoundRect,0.150000X-0.512500X-0.150000X0.512500X-0.150000X0.512500X0.150000X-0.512500X0.150000X0*%
%ADD27RoundRect,0.150000X0.512500X0.150000X-0.512500X0.150000X-0.512500X-0.150000X0.512500X-0.150000X0*%
%ADD28RoundRect,0.237500X-0.250000X-0.237500X0.250000X-0.237500X0.250000X0.237500X-0.250000X0.237500X0*%
%ADD29RotRect,0.500000X0.280000X135.000000*%
%ADD30RotRect,0.280000X0.500000X135.000000*%
%ADD31Outline4P,-1.800000X-1.150000X1.800000X-0.550000X1.800000X0.550000X-1.800000X1.150000X0.000000*%
%ADD32Outline4P,-1.800000X-1.150000X1.800000X-0.550000X1.800000X0.550000X-1.800000X1.150000X180.000000*%
%ADD33RoundRect,0.050000X-0.649995X-0.349993X0.649995X-0.349993X0.649995X0.349993X-0.649995X0.349993X0*%
%ADD34R,3.790000X4.740000*%
%ADD35RoundRect,0.237500X-0.378558X-0.055681X0.141058X-0.355681X0.378558X0.055681X-0.141058X0.355681X0*%
%ADD36C,0.650000*%
%ADD37RoundRect,0.150000X-0.150000X-0.470000X0.150000X-0.470000X0.150000X0.470000X-0.150000X0.470000X0*%
%ADD38RoundRect,0.075000X-0.075000X-0.545000X0.075000X-0.545000X0.075000X0.545000X-0.075000X0.545000X0*%
%ADD39O,1.000000X2.100000*%
%ADD40O,1.000000X1.800000*%
%ADD41RoundRect,0.250000X0.625000X-0.350000X0.625000X0.350000X-0.625000X0.350000X-0.625000X-0.350000X0*%
%ADD42O,1.750000X1.200000*%
%ADD43R,1.700000X1.700000*%
%ADD44C,1.700000*%
G04 APERTURE END LIST*
D10*
X93308207Y-83069819D02*
X92974874Y-82593628D01*
X92736779Y-83069819D02*
X92736779Y-82069819D01*
X92736779Y-82069819D02*
X93117731Y-82069819D01*
X93117731Y-82069819D02*
X93212969Y-82117438D01*
X93212969Y-82117438D02*
X93260588Y-82165057D01*
X93260588Y-82165057D02*
X93308207Y-82260295D01*
X93308207Y-82260295D02*
X93308207Y-82403152D01*
X93308207Y-82403152D02*
X93260588Y-82498390D01*
X93260588Y-82498390D02*
X93212969Y-82546009D01*
X93212969Y-82546009D02*
X93117731Y-82593628D01*
X93117731Y-82593628D02*
X92736779Y-82593628D01*
X93736779Y-82546009D02*
X94070112Y-82546009D01*
X94212969Y-83069819D02*
X93736779Y-83069819D01*
X93736779Y-83069819D02*
X93736779Y-82069819D01*
X93736779Y-82069819D02*
X94212969Y-82069819D01*
X94593922Y-83022200D02*
X94736779Y-83069819D01*
X94736779Y-83069819D02*
X94974874Y-83069819D01*
X94974874Y-83069819D02*
X95070112Y-83022200D01*
X95070112Y-83022200D02*
X95117731Y-82974580D01*
X95117731Y-82974580D02*
X95165350Y-82879342D01*
X95165350Y-82879342D02*
X95165350Y-82784104D01*
X95165350Y-82784104D02*
X95117731Y-82688866D01*
X95117731Y-82688866D02*
X95070112Y-82641247D01*
X95070112Y-82641247D02*
X94974874Y-82593628D01*
X94974874Y-82593628D02*
X94784398Y-82546009D01*
X94784398Y-82546009D02*
X94689160Y-82498390D01*
X94689160Y-82498390D02*
X94641541Y-82450771D01*
X94641541Y-82450771D02*
X94593922Y-82355533D01*
X94593922Y-82355533D02*
X94593922Y-82260295D01*
X94593922Y-82260295D02*
X94641541Y-82165057D01*
X94641541Y-82165057D02*
X94689160Y-82117438D01*
X94689160Y-82117438D02*
X94784398Y-82069819D01*
X94784398Y-82069819D02*
X95022493Y-82069819D01*
X95022493Y-82069819D02*
X95165350Y-82117438D01*
X95593922Y-82546009D02*
X95927255Y-82546009D01*
X96070112Y-83069819D02*
X95593922Y-83069819D01*
X95593922Y-83069819D02*
X95593922Y-82069819D01*
X95593922Y-82069819D02*
X96070112Y-82069819D01*
X96355827Y-82069819D02*
X96927255Y-82069819D01*
X96641541Y-83069819D02*
X96641541Y-82069819D01*
X93270112Y-86946009D02*
X93412969Y-86993628D01*
X93412969Y-86993628D02*
X93460588Y-87041247D01*
X93460588Y-87041247D02*
X93508207Y-87136485D01*
X93508207Y-87136485D02*
X93508207Y-87279342D01*
X93508207Y-87279342D02*
X93460588Y-87374580D01*
X93460588Y-87374580D02*
X93412969Y-87422200D01*
X93412969Y-87422200D02*
X93317731Y-87469819D01*
X93317731Y-87469819D02*
X92936779Y-87469819D01*
X92936779Y-87469819D02*
X92936779Y-86469819D01*
X92936779Y-86469819D02*
X93270112Y-86469819D01*
X93270112Y-86469819D02*
X93365350Y-86517438D01*
X93365350Y-86517438D02*
X93412969Y-86565057D01*
X93412969Y-86565057D02*
X93460588Y-86660295D01*
X93460588Y-86660295D02*
X93460588Y-86755533D01*
X93460588Y-86755533D02*
X93412969Y-86850771D01*
X93412969Y-86850771D02*
X93365350Y-86898390D01*
X93365350Y-86898390D02*
X93270112Y-86946009D01*
X93270112Y-86946009D02*
X92936779Y-86946009D01*
X94127255Y-86469819D02*
X94317731Y-86469819D01*
X94317731Y-86469819D02*
X94412969Y-86517438D01*
X94412969Y-86517438D02*
X94508207Y-86612676D01*
X94508207Y-86612676D02*
X94555826Y-86803152D01*
X94555826Y-86803152D02*
X94555826Y-87136485D01*
X94555826Y-87136485D02*
X94508207Y-87326961D01*
X94508207Y-87326961D02*
X94412969Y-87422200D01*
X94412969Y-87422200D02*
X94317731Y-87469819D01*
X94317731Y-87469819D02*
X94127255Y-87469819D01*
X94127255Y-87469819D02*
X94032017Y-87422200D01*
X94032017Y-87422200D02*
X93936779Y-87326961D01*
X93936779Y-87326961D02*
X93889160Y-87136485D01*
X93889160Y-87136485D02*
X93889160Y-86803152D01*
X93889160Y-86803152D02*
X93936779Y-86612676D01*
X93936779Y-86612676D02*
X94032017Y-86517438D01*
X94032017Y-86517438D02*
X94127255Y-86469819D01*
X95174874Y-86469819D02*
X95365350Y-86469819D01*
X95365350Y-86469819D02*
X95460588Y-86517438D01*
X95460588Y-86517438D02*
X95555826Y-86612676D01*
X95555826Y-86612676D02*
X95603445Y-86803152D01*
X95603445Y-86803152D02*
X95603445Y-87136485D01*
X95603445Y-87136485D02*
X95555826Y-87326961D01*
X95555826Y-87326961D02*
X95460588Y-87422200D01*
X95460588Y-87422200D02*
X95365350Y-87469819D01*
X95365350Y-87469819D02*
X95174874Y-87469819D01*
X95174874Y-87469819D02*
X95079636Y-87422200D01*
X95079636Y-87422200D02*
X94984398Y-87326961D01*
X94984398Y-87326961D02*
X94936779Y-87136485D01*
X94936779Y-87136485D02*
X94936779Y-86803152D01*
X94936779Y-86803152D02*
X94984398Y-86612676D01*
X94984398Y-86612676D02*
X95079636Y-86517438D01*
X95079636Y-86517438D02*
X95174874Y-86469819D01*
X95889160Y-86469819D02*
X96460588Y-86469819D01*
X96174874Y-87469819D02*
X96174874Y-86469819D01*
X116357142Y-92559580D02*
X116309523Y-92607200D01*
X116309523Y-92607200D02*
X116166666Y-92654819D01*
X116166666Y-92654819D02*
X116071428Y-92654819D01*
X116071428Y-92654819D02*
X115928571Y-92607200D01*
X115928571Y-92607200D02*
X115833333Y-92511961D01*
X115833333Y-92511961D02*
X115785714Y-92416723D01*
X115785714Y-92416723D02*
X115738095Y-92226247D01*
X115738095Y-92226247D02*
X115738095Y-92083390D01*
X115738095Y-92083390D02*
X115785714Y-91892914D01*
X115785714Y-91892914D02*
X115833333Y-91797676D01*
X115833333Y-91797676D02*
X115928571Y-91702438D01*
X115928571Y-91702438D02*
X116071428Y-91654819D01*
X116071428Y-91654819D02*
X116166666Y-91654819D01*
X116166666Y-91654819D02*
X116309523Y-91702438D01*
X116309523Y-91702438D02*
X116357142Y-91750057D01*
X117309523Y-92654819D02*
X116738095Y-92654819D01*
X117023809Y-92654819D02*
X117023809Y-91654819D01*
X117023809Y-91654819D02*
X116928571Y-91797676D01*
X116928571Y-91797676D02*
X116833333Y-91892914D01*
X116833333Y-91892914D02*
X116738095Y-91940533D01*
X117690476Y-91750057D02*
X117738095Y-91702438D01*
X117738095Y-91702438D02*
X117833333Y-91654819D01*
X117833333Y-91654819D02*
X118071428Y-91654819D01*
X118071428Y-91654819D02*
X118166666Y-91702438D01*
X118166666Y-91702438D02*
X118214285Y-91750057D01*
X118214285Y-91750057D02*
X118261904Y-91845295D01*
X118261904Y-91845295D02*
X118261904Y-91940533D01*
X118261904Y-91940533D02*
X118214285Y-92083390D01*
X118214285Y-92083390D02*
X117642857Y-92654819D01*
X117642857Y-92654819D02*
X118261904Y-92654819D01*
X88789580Y-89842857D02*
X88837200Y-89890476D01*
X88837200Y-89890476D02*
X88884819Y-90033333D01*
X88884819Y-90033333D02*
X88884819Y-90128571D01*
X88884819Y-90128571D02*
X88837200Y-90271428D01*
X88837200Y-90271428D02*
X88741961Y-90366666D01*
X88741961Y-90366666D02*
X88646723Y-90414285D01*
X88646723Y-90414285D02*
X88456247Y-90461904D01*
X88456247Y-90461904D02*
X88313390Y-90461904D01*
X88313390Y-90461904D02*
X88122914Y-90414285D01*
X88122914Y-90414285D02*
X88027676Y-90366666D01*
X88027676Y-90366666D02*
X87932438Y-90271428D01*
X87932438Y-90271428D02*
X87884819Y-90128571D01*
X87884819Y-90128571D02*
X87884819Y-90033333D01*
X87884819Y-90033333D02*
X87932438Y-89890476D01*
X87932438Y-89890476D02*
X87980057Y-89842857D01*
X88884819Y-88890476D02*
X88884819Y-89461904D01*
X88884819Y-89176190D02*
X87884819Y-89176190D01*
X87884819Y-89176190D02*
X88027676Y-89271428D01*
X88027676Y-89271428D02*
X88122914Y-89366666D01*
X88122914Y-89366666D02*
X88170533Y-89461904D01*
X87884819Y-88271428D02*
X87884819Y-88176190D01*
X87884819Y-88176190D02*
X87932438Y-88080952D01*
X87932438Y-88080952D02*
X87980057Y-88033333D01*
X87980057Y-88033333D02*
X88075295Y-87985714D01*
X88075295Y-87985714D02*
X88265771Y-87938095D01*
X88265771Y-87938095D02*
X88503866Y-87938095D01*
X88503866Y-87938095D02*
X88694342Y-87985714D01*
X88694342Y-87985714D02*
X88789580Y-88033333D01*
X88789580Y-88033333D02*
X88837200Y-88080952D01*
X88837200Y-88080952D02*
X88884819Y-88176190D01*
X88884819Y-88176190D02*
X88884819Y-88271428D01*
X88884819Y-88271428D02*
X88837200Y-88366666D01*
X88837200Y-88366666D02*
X88789580Y-88414285D01*
X88789580Y-88414285D02*
X88694342Y-88461904D01*
X88694342Y-88461904D02*
X88503866Y-88509523D01*
X88503866Y-88509523D02*
X88265771Y-88509523D01*
X88265771Y-88509523D02*
X88075295Y-88461904D01*
X88075295Y-88461904D02*
X87980057Y-88414285D01*
X87980057Y-88414285D02*
X87932438Y-88366666D01*
X87932438Y-88366666D02*
X87884819Y-88271428D01*
X83414484Y-95361572D02*
X82842064Y-95933992D01*
X82842064Y-95933992D02*
X82808392Y-96035007D01*
X82808392Y-96035007D02*
X82808392Y-96102351D01*
X82808392Y-96102351D02*
X82842064Y-96203366D01*
X82842064Y-96203366D02*
X82976751Y-96338053D01*
X82976751Y-96338053D02*
X83077766Y-96371725D01*
X83077766Y-96371725D02*
X83145110Y-96371725D01*
X83145110Y-96371725D02*
X83246125Y-96338053D01*
X83246125Y-96338053D02*
X83818545Y-95765633D01*
X84222606Y-96641099D02*
X83751201Y-97112503D01*
X84323621Y-96203366D02*
X83650186Y-96540084D01*
X83650186Y-96540084D02*
X84087919Y-96977816D01*
X103634819Y-116104166D02*
X103158628Y-116437499D01*
X103634819Y-116675594D02*
X102634819Y-116675594D01*
X102634819Y-116675594D02*
X102634819Y-116294642D01*
X102634819Y-116294642D02*
X102682438Y-116199404D01*
X102682438Y-116199404D02*
X102730057Y-116151785D01*
X102730057Y-116151785D02*
X102825295Y-116104166D01*
X102825295Y-116104166D02*
X102968152Y-116104166D01*
X102968152Y-116104166D02*
X103063390Y-116151785D01*
X103063390Y-116151785D02*
X103111009Y-116199404D01*
X103111009Y-116199404D02*
X103158628Y-116294642D01*
X103158628Y-116294642D02*
X103158628Y-116675594D01*
X102634819Y-115770832D02*
X102634819Y-115151785D01*
X102634819Y-115151785D02*
X103015771Y-115485118D01*
X103015771Y-115485118D02*
X103015771Y-115342261D01*
X103015771Y-115342261D02*
X103063390Y-115247023D01*
X103063390Y-115247023D02*
X103111009Y-115199404D01*
X103111009Y-115199404D02*
X103206247Y-115151785D01*
X103206247Y-115151785D02*
X103444342Y-115151785D01*
X103444342Y-115151785D02*
X103539580Y-115199404D01*
X103539580Y-115199404D02*
X103587200Y-115247023D01*
X103587200Y-115247023D02*
X103634819Y-115342261D01*
X103634819Y-115342261D02*
X103634819Y-115627975D01*
X103634819Y-115627975D02*
X103587200Y-115723213D01*
X103587200Y-115723213D02*
X103539580Y-115770832D01*
X78033333Y-94774819D02*
X77700000Y-94298628D01*
X77461905Y-94774819D02*
X77461905Y-93774819D01*
X77461905Y-93774819D02*
X77842857Y-93774819D01*
X77842857Y-93774819D02*
X77938095Y-93822438D01*
X77938095Y-93822438D02*
X77985714Y-93870057D01*
X77985714Y-93870057D02*
X78033333Y-93965295D01*
X78033333Y-93965295D02*
X78033333Y-94108152D01*
X78033333Y-94108152D02*
X77985714Y-94203390D01*
X77985714Y-94203390D02*
X77938095Y-94251009D01*
X77938095Y-94251009D02*
X77842857Y-94298628D01*
X77842857Y-94298628D02*
X77461905Y-94298628D01*
X78366667Y-93774819D02*
X79033333Y-93774819D01*
X79033333Y-93774819D02*
X78604762Y-94774819D01*
X80583333Y-92609580D02*
X80535714Y-92657200D01*
X80535714Y-92657200D02*
X80392857Y-92704819D01*
X80392857Y-92704819D02*
X80297619Y-92704819D01*
X80297619Y-92704819D02*
X80154762Y-92657200D01*
X80154762Y-92657200D02*
X80059524Y-92561961D01*
X80059524Y-92561961D02*
X80011905Y-92466723D01*
X80011905Y-92466723D02*
X79964286Y-92276247D01*
X79964286Y-92276247D02*
X79964286Y-92133390D01*
X79964286Y-92133390D02*
X80011905Y-91942914D01*
X80011905Y-91942914D02*
X80059524Y-91847676D01*
X80059524Y-91847676D02*
X80154762Y-91752438D01*
X80154762Y-91752438D02*
X80297619Y-91704819D01*
X80297619Y-91704819D02*
X80392857Y-91704819D01*
X80392857Y-91704819D02*
X80535714Y-91752438D01*
X80535714Y-91752438D02*
X80583333Y-91800057D01*
X80916667Y-91704819D02*
X81535714Y-91704819D01*
X81535714Y-91704819D02*
X81202381Y-92085771D01*
X81202381Y-92085771D02*
X81345238Y-92085771D01*
X81345238Y-92085771D02*
X81440476Y-92133390D01*
X81440476Y-92133390D02*
X81488095Y-92181009D01*
X81488095Y-92181009D02*
X81535714Y-92276247D01*
X81535714Y-92276247D02*
X81535714Y-92514342D01*
X81535714Y-92514342D02*
X81488095Y-92609580D01*
X81488095Y-92609580D02*
X81440476Y-92657200D01*
X81440476Y-92657200D02*
X81345238Y-92704819D01*
X81345238Y-92704819D02*
X81059524Y-92704819D01*
X81059524Y-92704819D02*
X80964286Y-92657200D01*
X80964286Y-92657200D02*
X80916667Y-92609580D01*
X87729580Y-89366666D02*
X87777200Y-89414285D01*
X87777200Y-89414285D02*
X87824819Y-89557142D01*
X87824819Y-89557142D02*
X87824819Y-89652380D01*
X87824819Y-89652380D02*
X87777200Y-89795237D01*
X87777200Y-89795237D02*
X87681961Y-89890475D01*
X87681961Y-89890475D02*
X87586723Y-89938094D01*
X87586723Y-89938094D02*
X87396247Y-89985713D01*
X87396247Y-89985713D02*
X87253390Y-89985713D01*
X87253390Y-89985713D02*
X87062914Y-89938094D01*
X87062914Y-89938094D02*
X86967676Y-89890475D01*
X86967676Y-89890475D02*
X86872438Y-89795237D01*
X86872438Y-89795237D02*
X86824819Y-89652380D01*
X86824819Y-89652380D02*
X86824819Y-89557142D01*
X86824819Y-89557142D02*
X86872438Y-89414285D01*
X86872438Y-89414285D02*
X86920057Y-89366666D01*
X87253390Y-88795237D02*
X87205771Y-88890475D01*
X87205771Y-88890475D02*
X87158152Y-88938094D01*
X87158152Y-88938094D02*
X87062914Y-88985713D01*
X87062914Y-88985713D02*
X87015295Y-88985713D01*
X87015295Y-88985713D02*
X86920057Y-88938094D01*
X86920057Y-88938094D02*
X86872438Y-88890475D01*
X86872438Y-88890475D02*
X86824819Y-88795237D01*
X86824819Y-88795237D02*
X86824819Y-88604761D01*
X86824819Y-88604761D02*
X86872438Y-88509523D01*
X86872438Y-88509523D02*
X86920057Y-88461904D01*
X86920057Y-88461904D02*
X87015295Y-88414285D01*
X87015295Y-88414285D02*
X87062914Y-88414285D01*
X87062914Y-88414285D02*
X87158152Y-88461904D01*
X87158152Y-88461904D02*
X87205771Y-88509523D01*
X87205771Y-88509523D02*
X87253390Y-88604761D01*
X87253390Y-88604761D02*
X87253390Y-88795237D01*
X87253390Y-88795237D02*
X87301009Y-88890475D01*
X87301009Y-88890475D02*
X87348628Y-88938094D01*
X87348628Y-88938094D02*
X87443866Y-88985713D01*
X87443866Y-88985713D02*
X87634342Y-88985713D01*
X87634342Y-88985713D02*
X87729580Y-88938094D01*
X87729580Y-88938094D02*
X87777200Y-88890475D01*
X87777200Y-88890475D02*
X87824819Y-88795237D01*
X87824819Y-88795237D02*
X87824819Y-88604761D01*
X87824819Y-88604761D02*
X87777200Y-88509523D01*
X87777200Y-88509523D02*
X87729580Y-88461904D01*
X87729580Y-88461904D02*
X87634342Y-88414285D01*
X87634342Y-88414285D02*
X87443866Y-88414285D01*
X87443866Y-88414285D02*
X87348628Y-88461904D01*
X87348628Y-88461904D02*
X87301009Y-88509523D01*
X87301009Y-88509523D02*
X87253390Y-88604761D01*
X92274819Y-121666666D02*
X91798628Y-121999999D01*
X92274819Y-122238094D02*
X91274819Y-122238094D01*
X91274819Y-122238094D02*
X91274819Y-121857142D01*
X91274819Y-121857142D02*
X91322438Y-121761904D01*
X91322438Y-121761904D02*
X91370057Y-121714285D01*
X91370057Y-121714285D02*
X91465295Y-121666666D01*
X91465295Y-121666666D02*
X91608152Y-121666666D01*
X91608152Y-121666666D02*
X91703390Y-121714285D01*
X91703390Y-121714285D02*
X91751009Y-121761904D01*
X91751009Y-121761904D02*
X91798628Y-121857142D01*
X91798628Y-121857142D02*
X91798628Y-122238094D01*
X91274819Y-120761904D02*
X91274819Y-121238094D01*
X91274819Y-121238094D02*
X91751009Y-121285713D01*
X91751009Y-121285713D02*
X91703390Y-121238094D01*
X91703390Y-121238094D02*
X91655771Y-121142856D01*
X91655771Y-121142856D02*
X91655771Y-120904761D01*
X91655771Y-120904761D02*
X91703390Y-120809523D01*
X91703390Y-120809523D02*
X91751009Y-120761904D01*
X91751009Y-120761904D02*
X91846247Y-120714285D01*
X91846247Y-120714285D02*
X92084342Y-120714285D01*
X92084342Y-120714285D02*
X92179580Y-120761904D01*
X92179580Y-120761904D02*
X92227200Y-120809523D01*
X92227200Y-120809523D02*
X92274819Y-120904761D01*
X92274819Y-120904761D02*
X92274819Y-121142856D01*
X92274819Y-121142856D02*
X92227200Y-121238094D01*
X92227200Y-121238094D02*
X92179580Y-121285713D01*
X77238095Y-110304819D02*
X77238095Y-109304819D01*
X77238095Y-109781009D02*
X77809523Y-109781009D01*
X77809523Y-110304819D02*
X77809523Y-109304819D01*
X78190476Y-109304819D02*
X78809523Y-109304819D01*
X78809523Y-109304819D02*
X78476190Y-109685771D01*
X78476190Y-109685771D02*
X78619047Y-109685771D01*
X78619047Y-109685771D02*
X78714285Y-109733390D01*
X78714285Y-109733390D02*
X78761904Y-109781009D01*
X78761904Y-109781009D02*
X78809523Y-109876247D01*
X78809523Y-109876247D02*
X78809523Y-110114342D01*
X78809523Y-110114342D02*
X78761904Y-110209580D01*
X78761904Y-110209580D02*
X78714285Y-110257200D01*
X78714285Y-110257200D02*
X78619047Y-110304819D01*
X78619047Y-110304819D02*
X78333333Y-110304819D01*
X78333333Y-110304819D02*
X78238095Y-110257200D01*
X78238095Y-110257200D02*
X78190476Y-110209580D01*
X114238095Y-81304819D02*
X114238095Y-80304819D01*
X114238095Y-80781009D02*
X114809523Y-80781009D01*
X114809523Y-81304819D02*
X114809523Y-80304819D01*
X115714285Y-80638152D02*
X115714285Y-81304819D01*
X115476190Y-80257200D02*
X115238095Y-80971485D01*
X115238095Y-80971485D02*
X115857142Y-80971485D01*
X116357142Y-96989580D02*
X116309523Y-97037200D01*
X116309523Y-97037200D02*
X116166666Y-97084819D01*
X116166666Y-97084819D02*
X116071428Y-97084819D01*
X116071428Y-97084819D02*
X115928571Y-97037200D01*
X115928571Y-97037200D02*
X115833333Y-96941961D01*
X115833333Y-96941961D02*
X115785714Y-96846723D01*
X115785714Y-96846723D02*
X115738095Y-96656247D01*
X115738095Y-96656247D02*
X115738095Y-96513390D01*
X115738095Y-96513390D02*
X115785714Y-96322914D01*
X115785714Y-96322914D02*
X115833333Y-96227676D01*
X115833333Y-96227676D02*
X115928571Y-96132438D01*
X115928571Y-96132438D02*
X116071428Y-96084819D01*
X116071428Y-96084819D02*
X116166666Y-96084819D01*
X116166666Y-96084819D02*
X116309523Y-96132438D01*
X116309523Y-96132438D02*
X116357142Y-96180057D01*
X117309523Y-97084819D02*
X116738095Y-97084819D01*
X117023809Y-97084819D02*
X117023809Y-96084819D01*
X117023809Y-96084819D02*
X116928571Y-96227676D01*
X116928571Y-96227676D02*
X116833333Y-96322914D01*
X116833333Y-96322914D02*
X116738095Y-96370533D01*
X118261904Y-97084819D02*
X117690476Y-97084819D01*
X117976190Y-97084819D02*
X117976190Y-96084819D01*
X117976190Y-96084819D02*
X117880952Y-96227676D01*
X117880952Y-96227676D02*
X117785714Y-96322914D01*
X117785714Y-96322914D02*
X117690476Y-96370533D01*
X87957142Y-111084819D02*
X87623809Y-110608628D01*
X87385714Y-111084819D02*
X87385714Y-110084819D01*
X87385714Y-110084819D02*
X87766666Y-110084819D01*
X87766666Y-110084819D02*
X87861904Y-110132438D01*
X87861904Y-110132438D02*
X87909523Y-110180057D01*
X87909523Y-110180057D02*
X87957142Y-110275295D01*
X87957142Y-110275295D02*
X87957142Y-110418152D01*
X87957142Y-110418152D02*
X87909523Y-110513390D01*
X87909523Y-110513390D02*
X87861904Y-110561009D01*
X87861904Y-110561009D02*
X87766666Y-110608628D01*
X87766666Y-110608628D02*
X87385714Y-110608628D01*
X88909523Y-111084819D02*
X88338095Y-111084819D01*
X88623809Y-111084819D02*
X88623809Y-110084819D01*
X88623809Y-110084819D02*
X88528571Y-110227676D01*
X88528571Y-110227676D02*
X88433333Y-110322914D01*
X88433333Y-110322914D02*
X88338095Y-110370533D01*
X89528571Y-110084819D02*
X89623809Y-110084819D01*
X89623809Y-110084819D02*
X89719047Y-110132438D01*
X89719047Y-110132438D02*
X89766666Y-110180057D01*
X89766666Y-110180057D02*
X89814285Y-110275295D01*
X89814285Y-110275295D02*
X89861904Y-110465771D01*
X89861904Y-110465771D02*
X89861904Y-110703866D01*
X89861904Y-110703866D02*
X89814285Y-110894342D01*
X89814285Y-110894342D02*
X89766666Y-110989580D01*
X89766666Y-110989580D02*
X89719047Y-111037200D01*
X89719047Y-111037200D02*
X89623809Y-111084819D01*
X89623809Y-111084819D02*
X89528571Y-111084819D01*
X89528571Y-111084819D02*
X89433333Y-111037200D01*
X89433333Y-111037200D02*
X89385714Y-110989580D01*
X89385714Y-110989580D02*
X89338095Y-110894342D01*
X89338095Y-110894342D02*
X89290476Y-110703866D01*
X89290476Y-110703866D02*
X89290476Y-110465771D01*
X89290476Y-110465771D02*
X89338095Y-110275295D01*
X89338095Y-110275295D02*
X89385714Y-110180057D01*
X89385714Y-110180057D02*
X89433333Y-110132438D01*
X89433333Y-110132438D02*
X89528571Y-110084819D01*
X111633333Y-89024819D02*
X111300000Y-88548628D01*
X111061905Y-89024819D02*
X111061905Y-88024819D01*
X111061905Y-88024819D02*
X111442857Y-88024819D01*
X111442857Y-88024819D02*
X111538095Y-88072438D01*
X111538095Y-88072438D02*
X111585714Y-88120057D01*
X111585714Y-88120057D02*
X111633333Y-88215295D01*
X111633333Y-88215295D02*
X111633333Y-88358152D01*
X111633333Y-88358152D02*
X111585714Y-88453390D01*
X111585714Y-88453390D02*
X111538095Y-88501009D01*
X111538095Y-88501009D02*
X111442857Y-88548628D01*
X111442857Y-88548628D02*
X111061905Y-88548628D01*
X112109524Y-89024819D02*
X112300000Y-89024819D01*
X112300000Y-89024819D02*
X112395238Y-88977200D01*
X112395238Y-88977200D02*
X112442857Y-88929580D01*
X112442857Y-88929580D02*
X112538095Y-88786723D01*
X112538095Y-88786723D02*
X112585714Y-88596247D01*
X112585714Y-88596247D02*
X112585714Y-88215295D01*
X112585714Y-88215295D02*
X112538095Y-88120057D01*
X112538095Y-88120057D02*
X112490476Y-88072438D01*
X112490476Y-88072438D02*
X112395238Y-88024819D01*
X112395238Y-88024819D02*
X112204762Y-88024819D01*
X112204762Y-88024819D02*
X112109524Y-88072438D01*
X112109524Y-88072438D02*
X112061905Y-88120057D01*
X112061905Y-88120057D02*
X112014286Y-88215295D01*
X112014286Y-88215295D02*
X112014286Y-88453390D01*
X112014286Y-88453390D02*
X112061905Y-88548628D01*
X112061905Y-88548628D02*
X112109524Y-88596247D01*
X112109524Y-88596247D02*
X112204762Y-88643866D01*
X112204762Y-88643866D02*
X112395238Y-88643866D01*
X112395238Y-88643866D02*
X112490476Y-88596247D01*
X112490476Y-88596247D02*
X112538095Y-88548628D01*
X112538095Y-88548628D02*
X112585714Y-88453390D01*
X87738095Y-124454819D02*
X87738095Y-125264342D01*
X87738095Y-125264342D02*
X87785714Y-125359580D01*
X87785714Y-125359580D02*
X87833333Y-125407200D01*
X87833333Y-125407200D02*
X87928571Y-125454819D01*
X87928571Y-125454819D02*
X88119047Y-125454819D01*
X88119047Y-125454819D02*
X88214285Y-125407200D01*
X88214285Y-125407200D02*
X88261904Y-125359580D01*
X88261904Y-125359580D02*
X88309523Y-125264342D01*
X88309523Y-125264342D02*
X88309523Y-124454819D01*
X88738095Y-124550057D02*
X88785714Y-124502438D01*
X88785714Y-124502438D02*
X88880952Y-124454819D01*
X88880952Y-124454819D02*
X89119047Y-124454819D01*
X89119047Y-124454819D02*
X89214285Y-124502438D01*
X89214285Y-124502438D02*
X89261904Y-124550057D01*
X89261904Y-124550057D02*
X89309523Y-124645295D01*
X89309523Y-124645295D02*
X89309523Y-124740533D01*
X89309523Y-124740533D02*
X89261904Y-124883390D01*
X89261904Y-124883390D02*
X88690476Y-125454819D01*
X88690476Y-125454819D02*
X89309523Y-125454819D01*
X84875595Y-108654819D02*
X84875595Y-109464342D01*
X84875595Y-109464342D02*
X84923214Y-109559580D01*
X84923214Y-109559580D02*
X84970833Y-109607200D01*
X84970833Y-109607200D02*
X85066071Y-109654819D01*
X85066071Y-109654819D02*
X85256547Y-109654819D01*
X85256547Y-109654819D02*
X85351785Y-109607200D01*
X85351785Y-109607200D02*
X85399404Y-109559580D01*
X85399404Y-109559580D02*
X85447023Y-109464342D01*
X85447023Y-109464342D02*
X85447023Y-108654819D01*
X86399404Y-108654819D02*
X85923214Y-108654819D01*
X85923214Y-108654819D02*
X85875595Y-109131009D01*
X85875595Y-109131009D02*
X85923214Y-109083390D01*
X85923214Y-109083390D02*
X86018452Y-109035771D01*
X86018452Y-109035771D02*
X86256547Y-109035771D01*
X86256547Y-109035771D02*
X86351785Y-109083390D01*
X86351785Y-109083390D02*
X86399404Y-109131009D01*
X86399404Y-109131009D02*
X86447023Y-109226247D01*
X86447023Y-109226247D02*
X86447023Y-109464342D01*
X86447023Y-109464342D02*
X86399404Y-109559580D01*
X86399404Y-109559580D02*
X86351785Y-109607200D01*
X86351785Y-109607200D02*
X86256547Y-109654819D01*
X86256547Y-109654819D02*
X86018452Y-109654819D01*
X86018452Y-109654819D02*
X85923214Y-109607200D01*
X85923214Y-109607200D02*
X85875595Y-109559580D01*
X80333333Y-106774819D02*
X80000000Y-106298628D01*
X79761905Y-106774819D02*
X79761905Y-105774819D01*
X79761905Y-105774819D02*
X80142857Y-105774819D01*
X80142857Y-105774819D02*
X80238095Y-105822438D01*
X80238095Y-105822438D02*
X80285714Y-105870057D01*
X80285714Y-105870057D02*
X80333333Y-105965295D01*
X80333333Y-105965295D02*
X80333333Y-106108152D01*
X80333333Y-106108152D02*
X80285714Y-106203390D01*
X80285714Y-106203390D02*
X80238095Y-106251009D01*
X80238095Y-106251009D02*
X80142857Y-106298628D01*
X80142857Y-106298628D02*
X79761905Y-106298628D01*
X81285714Y-106774819D02*
X80714286Y-106774819D01*
X81000000Y-106774819D02*
X81000000Y-105774819D01*
X81000000Y-105774819D02*
X80904762Y-105917676D01*
X80904762Y-105917676D02*
X80809524Y-106012914D01*
X80809524Y-106012914D02*
X80714286Y-106060533D01*
X106033333Y-115329580D02*
X105985714Y-115377200D01*
X105985714Y-115377200D02*
X105842857Y-115424819D01*
X105842857Y-115424819D02*
X105747619Y-115424819D01*
X105747619Y-115424819D02*
X105604762Y-115377200D01*
X105604762Y-115377200D02*
X105509524Y-115281961D01*
X105509524Y-115281961D02*
X105461905Y-115186723D01*
X105461905Y-115186723D02*
X105414286Y-114996247D01*
X105414286Y-114996247D02*
X105414286Y-114853390D01*
X105414286Y-114853390D02*
X105461905Y-114662914D01*
X105461905Y-114662914D02*
X105509524Y-114567676D01*
X105509524Y-114567676D02*
X105604762Y-114472438D01*
X105604762Y-114472438D02*
X105747619Y-114424819D01*
X105747619Y-114424819D02*
X105842857Y-114424819D01*
X105842857Y-114424819D02*
X105985714Y-114472438D01*
X105985714Y-114472438D02*
X106033333Y-114520057D01*
X106938095Y-114424819D02*
X106461905Y-114424819D01*
X106461905Y-114424819D02*
X106414286Y-114901009D01*
X106414286Y-114901009D02*
X106461905Y-114853390D01*
X106461905Y-114853390D02*
X106557143Y-114805771D01*
X106557143Y-114805771D02*
X106795238Y-114805771D01*
X106795238Y-114805771D02*
X106890476Y-114853390D01*
X106890476Y-114853390D02*
X106938095Y-114901009D01*
X106938095Y-114901009D02*
X106985714Y-114996247D01*
X106985714Y-114996247D02*
X106985714Y-115234342D01*
X106985714Y-115234342D02*
X106938095Y-115329580D01*
X106938095Y-115329580D02*
X106890476Y-115377200D01*
X106890476Y-115377200D02*
X106795238Y-115424819D01*
X106795238Y-115424819D02*
X106557143Y-115424819D01*
X106557143Y-115424819D02*
X106461905Y-115377200D01*
X106461905Y-115377200D02*
X106414286Y-115329580D01*
X107864252Y-98808251D02*
X107291832Y-99380671D01*
X107291832Y-99380671D02*
X107258160Y-99481686D01*
X107258160Y-99481686D02*
X107258160Y-99549030D01*
X107258160Y-99549030D02*
X107291832Y-99650045D01*
X107291832Y-99650045D02*
X107426519Y-99784732D01*
X107426519Y-99784732D02*
X107527534Y-99818404D01*
X107527534Y-99818404D02*
X107594878Y-99818404D01*
X107594878Y-99818404D02*
X107695893Y-99784732D01*
X107695893Y-99784732D02*
X108268313Y-99212312D01*
X108908076Y-99852076D02*
X108773389Y-99717389D01*
X108773389Y-99717389D02*
X108672374Y-99683717D01*
X108672374Y-99683717D02*
X108605030Y-99683717D01*
X108605030Y-99683717D02*
X108436671Y-99717389D01*
X108436671Y-99717389D02*
X108268313Y-99818404D01*
X108268313Y-99818404D02*
X107998939Y-100087778D01*
X107998939Y-100087778D02*
X107965267Y-100188793D01*
X107965267Y-100188793D02*
X107965267Y-100256137D01*
X107965267Y-100256137D02*
X107998939Y-100357152D01*
X107998939Y-100357152D02*
X108133626Y-100491839D01*
X108133626Y-100491839D02*
X108234641Y-100525511D01*
X108234641Y-100525511D02*
X108301984Y-100525511D01*
X108301984Y-100525511D02*
X108403000Y-100491839D01*
X108403000Y-100491839D02*
X108571358Y-100323480D01*
X108571358Y-100323480D02*
X108605030Y-100222465D01*
X108605030Y-100222465D02*
X108605030Y-100155121D01*
X108605030Y-100155121D02*
X108571358Y-100054106D01*
X108571358Y-100054106D02*
X108436671Y-99919419D01*
X108436671Y-99919419D02*
X108335656Y-99885747D01*
X108335656Y-99885747D02*
X108268313Y-99885747D01*
X108268313Y-99885747D02*
X108167297Y-99919419D01*
X82238095Y-81304819D02*
X82238095Y-80304819D01*
X82238095Y-80781009D02*
X82809523Y-80781009D01*
X82809523Y-81304819D02*
X82809523Y-80304819D01*
X83809523Y-81304819D02*
X83238095Y-81304819D01*
X83523809Y-81304819D02*
X83523809Y-80304819D01*
X83523809Y-80304819D02*
X83428571Y-80447676D01*
X83428571Y-80447676D02*
X83333333Y-80542914D01*
X83333333Y-80542914D02*
X83238095Y-80590533D01*
X92189580Y-89366666D02*
X92237200Y-89414285D01*
X92237200Y-89414285D02*
X92284819Y-89557142D01*
X92284819Y-89557142D02*
X92284819Y-89652380D01*
X92284819Y-89652380D02*
X92237200Y-89795237D01*
X92237200Y-89795237D02*
X92141961Y-89890475D01*
X92141961Y-89890475D02*
X92046723Y-89938094D01*
X92046723Y-89938094D02*
X91856247Y-89985713D01*
X91856247Y-89985713D02*
X91713390Y-89985713D01*
X91713390Y-89985713D02*
X91522914Y-89938094D01*
X91522914Y-89938094D02*
X91427676Y-89890475D01*
X91427676Y-89890475D02*
X91332438Y-89795237D01*
X91332438Y-89795237D02*
X91284819Y-89652380D01*
X91284819Y-89652380D02*
X91284819Y-89557142D01*
X91284819Y-89557142D02*
X91332438Y-89414285D01*
X91332438Y-89414285D02*
X91380057Y-89366666D01*
X92284819Y-88890475D02*
X92284819Y-88699999D01*
X92284819Y-88699999D02*
X92237200Y-88604761D01*
X92237200Y-88604761D02*
X92189580Y-88557142D01*
X92189580Y-88557142D02*
X92046723Y-88461904D01*
X92046723Y-88461904D02*
X91856247Y-88414285D01*
X91856247Y-88414285D02*
X91475295Y-88414285D01*
X91475295Y-88414285D02*
X91380057Y-88461904D01*
X91380057Y-88461904D02*
X91332438Y-88509523D01*
X91332438Y-88509523D02*
X91284819Y-88604761D01*
X91284819Y-88604761D02*
X91284819Y-88795237D01*
X91284819Y-88795237D02*
X91332438Y-88890475D01*
X91332438Y-88890475D02*
X91380057Y-88938094D01*
X91380057Y-88938094D02*
X91475295Y-88985713D01*
X91475295Y-88985713D02*
X91713390Y-88985713D01*
X91713390Y-88985713D02*
X91808628Y-88938094D01*
X91808628Y-88938094D02*
X91856247Y-88890475D01*
X91856247Y-88890475D02*
X91903866Y-88795237D01*
X91903866Y-88795237D02*
X91903866Y-88604761D01*
X91903866Y-88604761D02*
X91856247Y-88509523D01*
X91856247Y-88509523D02*
X91808628Y-88461904D01*
X91808628Y-88461904D02*
X91713390Y-88414285D01*
X104757142Y-84454819D02*
X104423809Y-83978628D01*
X104185714Y-84454819D02*
X104185714Y-83454819D01*
X104185714Y-83454819D02*
X104566666Y-83454819D01*
X104566666Y-83454819D02*
X104661904Y-83502438D01*
X104661904Y-83502438D02*
X104709523Y-83550057D01*
X104709523Y-83550057D02*
X104757142Y-83645295D01*
X104757142Y-83645295D02*
X104757142Y-83788152D01*
X104757142Y-83788152D02*
X104709523Y-83883390D01*
X104709523Y-83883390D02*
X104661904Y-83931009D01*
X104661904Y-83931009D02*
X104566666Y-83978628D01*
X104566666Y-83978628D02*
X104185714Y-83978628D01*
X105709523Y-84454819D02*
X105138095Y-84454819D01*
X105423809Y-84454819D02*
X105423809Y-83454819D01*
X105423809Y-83454819D02*
X105328571Y-83597676D01*
X105328571Y-83597676D02*
X105233333Y-83692914D01*
X105233333Y-83692914D02*
X105138095Y-83740533D01*
X106661904Y-84454819D02*
X106090476Y-84454819D01*
X106376190Y-84454819D02*
X106376190Y-83454819D01*
X106376190Y-83454819D02*
X106280952Y-83597676D01*
X106280952Y-83597676D02*
X106185714Y-83692914D01*
X106185714Y-83692914D02*
X106090476Y-83740533D01*
X85011905Y-115954819D02*
X85011905Y-114954819D01*
X85011905Y-114954819D02*
X85250000Y-114954819D01*
X85250000Y-114954819D02*
X85392857Y-115002438D01*
X85392857Y-115002438D02*
X85488095Y-115097676D01*
X85488095Y-115097676D02*
X85535714Y-115192914D01*
X85535714Y-115192914D02*
X85583333Y-115383390D01*
X85583333Y-115383390D02*
X85583333Y-115526247D01*
X85583333Y-115526247D02*
X85535714Y-115716723D01*
X85535714Y-115716723D02*
X85488095Y-115811961D01*
X85488095Y-115811961D02*
X85392857Y-115907200D01*
X85392857Y-115907200D02*
X85250000Y-115954819D01*
X85250000Y-115954819D02*
X85011905Y-115954819D01*
X86535714Y-115954819D02*
X85964286Y-115954819D01*
X86250000Y-115954819D02*
X86250000Y-114954819D01*
X86250000Y-114954819D02*
X86154762Y-115097676D01*
X86154762Y-115097676D02*
X86059524Y-115192914D01*
X86059524Y-115192914D02*
X85964286Y-115240533D01*
X85517261Y-114500057D02*
X85422023Y-114452438D01*
X85422023Y-114452438D02*
X85326785Y-114357200D01*
X85326785Y-114357200D02*
X85183928Y-114214342D01*
X85183928Y-114214342D02*
X85088690Y-114166723D01*
X85088690Y-114166723D02*
X84993452Y-114166723D01*
X85041071Y-114404819D02*
X84945833Y-114357200D01*
X84945833Y-114357200D02*
X84850595Y-114261961D01*
X84850595Y-114261961D02*
X84802976Y-114071485D01*
X84802976Y-114071485D02*
X84802976Y-113738152D01*
X84802976Y-113738152D02*
X84850595Y-113547676D01*
X84850595Y-113547676D02*
X84945833Y-113452438D01*
X84945833Y-113452438D02*
X85041071Y-113404819D01*
X85041071Y-113404819D02*
X85231547Y-113404819D01*
X85231547Y-113404819D02*
X85326785Y-113452438D01*
X85326785Y-113452438D02*
X85422023Y-113547676D01*
X85422023Y-113547676D02*
X85469642Y-113738152D01*
X85469642Y-113738152D02*
X85469642Y-114071485D01*
X85469642Y-114071485D02*
X85422023Y-114261961D01*
X85422023Y-114261961D02*
X85326785Y-114357200D01*
X85326785Y-114357200D02*
X85231547Y-114404819D01*
X85231547Y-114404819D02*
X85041071Y-114404819D01*
X86422023Y-114404819D02*
X85850595Y-114404819D01*
X86136309Y-114404819D02*
X86136309Y-113404819D01*
X86136309Y-113404819D02*
X86041071Y-113547676D01*
X86041071Y-113547676D02*
X85945833Y-113642914D01*
X85945833Y-113642914D02*
X85850595Y-113690533D01*
X104757142Y-89254819D02*
X104423809Y-88778628D01*
X104185714Y-89254819D02*
X104185714Y-88254819D01*
X104185714Y-88254819D02*
X104566666Y-88254819D01*
X104566666Y-88254819D02*
X104661904Y-88302438D01*
X104661904Y-88302438D02*
X104709523Y-88350057D01*
X104709523Y-88350057D02*
X104757142Y-88445295D01*
X104757142Y-88445295D02*
X104757142Y-88588152D01*
X104757142Y-88588152D02*
X104709523Y-88683390D01*
X104709523Y-88683390D02*
X104661904Y-88731009D01*
X104661904Y-88731009D02*
X104566666Y-88778628D01*
X104566666Y-88778628D02*
X104185714Y-88778628D01*
X105709523Y-89254819D02*
X105138095Y-89254819D01*
X105423809Y-89254819D02*
X105423809Y-88254819D01*
X105423809Y-88254819D02*
X105328571Y-88397676D01*
X105328571Y-88397676D02*
X105233333Y-88492914D01*
X105233333Y-88492914D02*
X105138095Y-88540533D01*
X106090476Y-88350057D02*
X106138095Y-88302438D01*
X106138095Y-88302438D02*
X106233333Y-88254819D01*
X106233333Y-88254819D02*
X106471428Y-88254819D01*
X106471428Y-88254819D02*
X106566666Y-88302438D01*
X106566666Y-88302438D02*
X106614285Y-88350057D01*
X106614285Y-88350057D02*
X106661904Y-88445295D01*
X106661904Y-88445295D02*
X106661904Y-88540533D01*
X106661904Y-88540533D02*
X106614285Y-88683390D01*
X106614285Y-88683390D02*
X106042857Y-89254819D01*
X106042857Y-89254819D02*
X106661904Y-89254819D01*
X91033333Y-111329580D02*
X90985714Y-111377200D01*
X90985714Y-111377200D02*
X90842857Y-111424819D01*
X90842857Y-111424819D02*
X90747619Y-111424819D01*
X90747619Y-111424819D02*
X90604762Y-111377200D01*
X90604762Y-111377200D02*
X90509524Y-111281961D01*
X90509524Y-111281961D02*
X90461905Y-111186723D01*
X90461905Y-111186723D02*
X90414286Y-110996247D01*
X90414286Y-110996247D02*
X90414286Y-110853390D01*
X90414286Y-110853390D02*
X90461905Y-110662914D01*
X90461905Y-110662914D02*
X90509524Y-110567676D01*
X90509524Y-110567676D02*
X90604762Y-110472438D01*
X90604762Y-110472438D02*
X90747619Y-110424819D01*
X90747619Y-110424819D02*
X90842857Y-110424819D01*
X90842857Y-110424819D02*
X90985714Y-110472438D01*
X90985714Y-110472438D02*
X91033333Y-110520057D01*
X91890476Y-110424819D02*
X91700000Y-110424819D01*
X91700000Y-110424819D02*
X91604762Y-110472438D01*
X91604762Y-110472438D02*
X91557143Y-110520057D01*
X91557143Y-110520057D02*
X91461905Y-110662914D01*
X91461905Y-110662914D02*
X91414286Y-110853390D01*
X91414286Y-110853390D02*
X91414286Y-111234342D01*
X91414286Y-111234342D02*
X91461905Y-111329580D01*
X91461905Y-111329580D02*
X91509524Y-111377200D01*
X91509524Y-111377200D02*
X91604762Y-111424819D01*
X91604762Y-111424819D02*
X91795238Y-111424819D01*
X91795238Y-111424819D02*
X91890476Y-111377200D01*
X91890476Y-111377200D02*
X91938095Y-111329580D01*
X91938095Y-111329580D02*
X91985714Y-111234342D01*
X91985714Y-111234342D02*
X91985714Y-110996247D01*
X91985714Y-110996247D02*
X91938095Y-110901009D01*
X91938095Y-110901009D02*
X91890476Y-110853390D01*
X91890476Y-110853390D02*
X91795238Y-110805771D01*
X91795238Y-110805771D02*
X91604762Y-110805771D01*
X91604762Y-110805771D02*
X91509524Y-110853390D01*
X91509524Y-110853390D02*
X91461905Y-110901009D01*
X91461905Y-110901009D02*
X91414286Y-110996247D01*
X80433333Y-111589580D02*
X80385714Y-111637200D01*
X80385714Y-111637200D02*
X80242857Y-111684819D01*
X80242857Y-111684819D02*
X80147619Y-111684819D01*
X80147619Y-111684819D02*
X80004762Y-111637200D01*
X80004762Y-111637200D02*
X79909524Y-111541961D01*
X79909524Y-111541961D02*
X79861905Y-111446723D01*
X79861905Y-111446723D02*
X79814286Y-111256247D01*
X79814286Y-111256247D02*
X79814286Y-111113390D01*
X79814286Y-111113390D02*
X79861905Y-110922914D01*
X79861905Y-110922914D02*
X79909524Y-110827676D01*
X79909524Y-110827676D02*
X80004762Y-110732438D01*
X80004762Y-110732438D02*
X80147619Y-110684819D01*
X80147619Y-110684819D02*
X80242857Y-110684819D01*
X80242857Y-110684819D02*
X80385714Y-110732438D01*
X80385714Y-110732438D02*
X80433333Y-110780057D01*
X80766667Y-110684819D02*
X81433333Y-110684819D01*
X81433333Y-110684819D02*
X81004762Y-111684819D01*
X114238095Y-111304819D02*
X114238095Y-110304819D01*
X114238095Y-110781009D02*
X114809523Y-110781009D01*
X114809523Y-111304819D02*
X114809523Y-110304819D01*
X115238095Y-110400057D02*
X115285714Y-110352438D01*
X115285714Y-110352438D02*
X115380952Y-110304819D01*
X115380952Y-110304819D02*
X115619047Y-110304819D01*
X115619047Y-110304819D02*
X115714285Y-110352438D01*
X115714285Y-110352438D02*
X115761904Y-110400057D01*
X115761904Y-110400057D02*
X115809523Y-110495295D01*
X115809523Y-110495295D02*
X115809523Y-110590533D01*
X115809523Y-110590533D02*
X115761904Y-110733390D01*
X115761904Y-110733390D02*
X115190476Y-111304819D01*
X115190476Y-111304819D02*
X115809523Y-111304819D01*
X86043925Y-121558407D02*
X85978876Y-121575836D01*
X85978876Y-121575836D02*
X85831349Y-121545647D01*
X85831349Y-121545647D02*
X85748870Y-121498028D01*
X85748870Y-121498028D02*
X85648962Y-121385360D01*
X85648962Y-121385360D02*
X85614102Y-121255263D01*
X85614102Y-121255263D02*
X85620482Y-121148974D01*
X85620482Y-121148974D02*
X85674481Y-120960208D01*
X85674481Y-120960208D02*
X85745909Y-120836490D01*
X85745909Y-120836490D02*
X85882387Y-120695342D01*
X85882387Y-120695342D02*
X85971245Y-120636673D01*
X85971245Y-120636673D02*
X86101343Y-120601813D01*
X86101343Y-120601813D02*
X86248870Y-120632003D01*
X86248870Y-120632003D02*
X86331349Y-120679622D01*
X86331349Y-120679622D02*
X86431257Y-120792290D01*
X86431257Y-120792290D02*
X86448687Y-120857338D01*
X87071947Y-121492106D02*
X86738613Y-122069457D01*
X87056226Y-121043144D02*
X86492887Y-121542686D01*
X86492887Y-121542686D02*
X87028998Y-121852210D01*
X100634819Y-116104166D02*
X100158628Y-116437499D01*
X100634819Y-116675594D02*
X99634819Y-116675594D01*
X99634819Y-116675594D02*
X99634819Y-116294642D01*
X99634819Y-116294642D02*
X99682438Y-116199404D01*
X99682438Y-116199404D02*
X99730057Y-116151785D01*
X99730057Y-116151785D02*
X99825295Y-116104166D01*
X99825295Y-116104166D02*
X99968152Y-116104166D01*
X99968152Y-116104166D02*
X100063390Y-116151785D01*
X100063390Y-116151785D02*
X100111009Y-116199404D01*
X100111009Y-116199404D02*
X100158628Y-116294642D01*
X100158628Y-116294642D02*
X100158628Y-116675594D01*
X99730057Y-115723213D02*
X99682438Y-115675594D01*
X99682438Y-115675594D02*
X99634819Y-115580356D01*
X99634819Y-115580356D02*
X99634819Y-115342261D01*
X99634819Y-115342261D02*
X99682438Y-115247023D01*
X99682438Y-115247023D02*
X99730057Y-115199404D01*
X99730057Y-115199404D02*
X99825295Y-115151785D01*
X99825295Y-115151785D02*
X99920533Y-115151785D01*
X99920533Y-115151785D02*
X100063390Y-115199404D01*
X100063390Y-115199404D02*
X100634819Y-115770832D01*
X100634819Y-115770832D02*
X100634819Y-115151785D01*
X111633333Y-93454819D02*
X111300000Y-92978628D01*
X111061905Y-93454819D02*
X111061905Y-92454819D01*
X111061905Y-92454819D02*
X111442857Y-92454819D01*
X111442857Y-92454819D02*
X111538095Y-92502438D01*
X111538095Y-92502438D02*
X111585714Y-92550057D01*
X111585714Y-92550057D02*
X111633333Y-92645295D01*
X111633333Y-92645295D02*
X111633333Y-92788152D01*
X111633333Y-92788152D02*
X111585714Y-92883390D01*
X111585714Y-92883390D02*
X111538095Y-92931009D01*
X111538095Y-92931009D02*
X111442857Y-92978628D01*
X111442857Y-92978628D02*
X111061905Y-92978628D01*
X112204762Y-92883390D02*
X112109524Y-92835771D01*
X112109524Y-92835771D02*
X112061905Y-92788152D01*
X112061905Y-92788152D02*
X112014286Y-92692914D01*
X112014286Y-92692914D02*
X112014286Y-92645295D01*
X112014286Y-92645295D02*
X112061905Y-92550057D01*
X112061905Y-92550057D02*
X112109524Y-92502438D01*
X112109524Y-92502438D02*
X112204762Y-92454819D01*
X112204762Y-92454819D02*
X112395238Y-92454819D01*
X112395238Y-92454819D02*
X112490476Y-92502438D01*
X112490476Y-92502438D02*
X112538095Y-92550057D01*
X112538095Y-92550057D02*
X112585714Y-92645295D01*
X112585714Y-92645295D02*
X112585714Y-92692914D01*
X112585714Y-92692914D02*
X112538095Y-92788152D01*
X112538095Y-92788152D02*
X112490476Y-92835771D01*
X112490476Y-92835771D02*
X112395238Y-92883390D01*
X112395238Y-92883390D02*
X112204762Y-92883390D01*
X112204762Y-92883390D02*
X112109524Y-92931009D01*
X112109524Y-92931009D02*
X112061905Y-92978628D01*
X112061905Y-92978628D02*
X112014286Y-93073866D01*
X112014286Y-93073866D02*
X112014286Y-93264342D01*
X112014286Y-93264342D02*
X112061905Y-93359580D01*
X112061905Y-93359580D02*
X112109524Y-93407200D01*
X112109524Y-93407200D02*
X112204762Y-93454819D01*
X112204762Y-93454819D02*
X112395238Y-93454819D01*
X112395238Y-93454819D02*
X112490476Y-93407200D01*
X112490476Y-93407200D02*
X112538095Y-93359580D01*
X112538095Y-93359580D02*
X112585714Y-93264342D01*
X112585714Y-93264342D02*
X112585714Y-93073866D01*
X112585714Y-93073866D02*
X112538095Y-92978628D01*
X112538095Y-92978628D02*
X112490476Y-92931009D01*
X112490476Y-92931009D02*
X112395238Y-92883390D01*
X78033333Y-97254819D02*
X77700000Y-96778628D01*
X77461905Y-97254819D02*
X77461905Y-96254819D01*
X77461905Y-96254819D02*
X77842857Y-96254819D01*
X77842857Y-96254819D02*
X77938095Y-96302438D01*
X77938095Y-96302438D02*
X77985714Y-96350057D01*
X77985714Y-96350057D02*
X78033333Y-96445295D01*
X78033333Y-96445295D02*
X78033333Y-96588152D01*
X78033333Y-96588152D02*
X77985714Y-96683390D01*
X77985714Y-96683390D02*
X77938095Y-96731009D01*
X77938095Y-96731009D02*
X77842857Y-96778628D01*
X77842857Y-96778628D02*
X77461905Y-96778628D01*
X78890476Y-96254819D02*
X78700000Y-96254819D01*
X78700000Y-96254819D02*
X78604762Y-96302438D01*
X78604762Y-96302438D02*
X78557143Y-96350057D01*
X78557143Y-96350057D02*
X78461905Y-96492914D01*
X78461905Y-96492914D02*
X78414286Y-96683390D01*
X78414286Y-96683390D02*
X78414286Y-97064342D01*
X78414286Y-97064342D02*
X78461905Y-97159580D01*
X78461905Y-97159580D02*
X78509524Y-97207200D01*
X78509524Y-97207200D02*
X78604762Y-97254819D01*
X78604762Y-97254819D02*
X78795238Y-97254819D01*
X78795238Y-97254819D02*
X78890476Y-97207200D01*
X78890476Y-97207200D02*
X78938095Y-97159580D01*
X78938095Y-97159580D02*
X78985714Y-97064342D01*
X78985714Y-97064342D02*
X78985714Y-96826247D01*
X78985714Y-96826247D02*
X78938095Y-96731009D01*
X78938095Y-96731009D02*
X78890476Y-96683390D01*
X78890476Y-96683390D02*
X78795238Y-96635771D01*
X78795238Y-96635771D02*
X78604762Y-96635771D01*
X78604762Y-96635771D02*
X78509524Y-96683390D01*
X78509524Y-96683390D02*
X78461905Y-96731009D01*
X78461905Y-96731009D02*
X78414286Y-96826247D01*
X99666666Y-120054819D02*
X99666666Y-120769104D01*
X99666666Y-120769104D02*
X99619047Y-120911961D01*
X99619047Y-120911961D02*
X99523809Y-121007200D01*
X99523809Y-121007200D02*
X99380952Y-121054819D01*
X99380952Y-121054819D02*
X99285714Y-121054819D01*
X100666666Y-121054819D02*
X100095238Y-121054819D01*
X100380952Y-121054819D02*
X100380952Y-120054819D01*
X100380952Y-120054819D02*
X100285714Y-120197676D01*
X100285714Y-120197676D02*
X100190476Y-120292914D01*
X100190476Y-120292914D02*
X100095238Y-120340533D01*
%TO.C,C12*%
D11*
X117146267Y-93090000D02*
X116853733Y-93090000D01*
X117146267Y-94110000D02*
X116853733Y-94110000D01*
%TO.C,SW2*%
X98100000Y-80750000D02*
X98100000Y-81140000D01*
X98100000Y-84050000D02*
X98100000Y-83660000D01*
X102300000Y-80750000D02*
X98100000Y-80750000D01*
X102300000Y-81140000D02*
X102300000Y-80750000D01*
X102300000Y-83660000D02*
X102300000Y-84050000D01*
X102300000Y-84050000D02*
X98100000Y-84050000D01*
%TO.C,C10*%
X86490000Y-89053733D02*
X86490000Y-89346267D01*
X87510000Y-89053733D02*
X87510000Y-89346267D01*
%TO.C,U4*%
D10*
X83047918Y-94528751D02*
X83337832Y-94238837D01*
X83337832Y-94818665D02*
X83047918Y-94528751D01*
X85034888Y-92555923D02*
X85324802Y-92266009D01*
X85317731Y-96798564D02*
X85027817Y-96508650D01*
X85324802Y-92266009D02*
X85614716Y-92555923D01*
X85607645Y-96508650D02*
X85317731Y-96798564D01*
X87297630Y-94252979D02*
X87587544Y-94542893D01*
X87587544Y-94542893D02*
X87297630Y-94832807D01*
D12*
X87085498Y-93899426D02*
G75*
G02*
X87087233Y-93901126I84839J84867D01*
G01*
D13*
X87469051Y-94535822D02*
G75*
G02*
X87409051Y-94535822I-30000J0D01*
G01*
X87409051Y-94535822D02*
G75*
G02*
X87469051Y-94535822I30000J0D01*
G01*
%TO.C,R3*%
D11*
X101227500Y-115682776D02*
X101227500Y-116192224D01*
X102272500Y-115682776D02*
X102272500Y-116192224D01*
%TO.C,R7*%
X78346267Y-92380000D02*
X78053733Y-92380000D01*
X78346267Y-93400000D02*
X78053733Y-93400000D01*
%TO.C,C3*%
X80240000Y-94646267D02*
X80240000Y-94353733D01*
X81260000Y-94646267D02*
X81260000Y-94353733D01*
%TO.C,C8*%
X88290000Y-89346267D02*
X88290000Y-89053733D01*
X89310000Y-89346267D02*
X89310000Y-89053733D01*
%TO.C,R5*%
X92727500Y-121754724D02*
X92727500Y-121245276D01*
X93772500Y-121754724D02*
X93772500Y-121245276D01*
%TO.C,C11*%
X117146267Y-94690000D02*
X116853733Y-94690000D01*
X117146267Y-95710000D02*
X116853733Y-95710000D01*
%TO.C,R10*%
X88854724Y-108677500D02*
X88345276Y-108677500D01*
X88854724Y-109722500D02*
X88345276Y-109722500D01*
%TO.C,R9*%
X111653733Y-89490000D02*
X111946267Y-89490000D01*
X111653733Y-90510000D02*
X111946267Y-90510000D01*
%TO.C,U2*%
X90815001Y-123740000D02*
X92635001Y-123740000D01*
X90815001Y-123790000D02*
X90815001Y-123740000D01*
X90815001Y-126860000D02*
X90815001Y-126810000D01*
X92635001Y-123740000D02*
X92635001Y-123790000D01*
X92635001Y-124910000D02*
X92635001Y-125690000D01*
X92635001Y-126810000D02*
X92635001Y-126860000D01*
X92635001Y-126860000D02*
X90815001Y-126860000D01*
X90275001Y-123790000D02*
X90035001Y-123460000D01*
X90515001Y-123460000D01*
X90275001Y-123790000D01*
G36*
X90275001Y-123790000D02*
G01*
X90035001Y-123460000D01*
X90515001Y-123460000D01*
X90275001Y-123790000D01*
G37*
%TO.C,U5*%
X84727500Y-105240000D02*
X86547500Y-105240000D01*
X84727500Y-105290000D02*
X84727500Y-105240000D01*
X84727500Y-107190000D02*
X84727500Y-106410000D01*
X84727500Y-108360000D02*
X84727500Y-108310000D01*
X86547500Y-105240000D02*
X86547500Y-105290000D01*
X86547500Y-108310000D02*
X86547500Y-108360000D01*
X86547500Y-108360000D02*
X84727500Y-108360000D01*
X87087500Y-108310000D02*
X87327500Y-108640000D01*
X86847500Y-108640000D01*
X87087500Y-108310000D01*
G36*
X87327500Y-108640000D02*
G01*
X86847500Y-108640000D01*
X87087500Y-108310000D01*
X87327500Y-108640000D01*
G37*
%TO.C,R1*%
X80245276Y-107227500D02*
X80754724Y-107227500D01*
X80245276Y-108272500D02*
X80754724Y-108272500D01*
%TO.C,C5*%
X106053733Y-115890000D02*
X106346267Y-115890000D01*
X106053733Y-116910000D02*
X106346267Y-116910000D01*
%TO.C,U6*%
D10*
X109442319Y-96073223D02*
X109619096Y-95896447D01*
X109972649Y-96603553D02*
X109442319Y-96073223D01*
X111146447Y-97777351D02*
X111676777Y-98307681D01*
X111323223Y-94192319D02*
X111146447Y-94369096D01*
X111676777Y-98307681D02*
X111853553Y-98130904D01*
X111853553Y-94722649D02*
X111323223Y-94192319D01*
X113027351Y-95896447D02*
X113557681Y-96426777D01*
X113557681Y-96426777D02*
X113380904Y-96603553D01*
D13*
X111706778Y-98194544D02*
G75*
G02*
X111646776Y-98194544I-30001J0D01*
G01*
X111646776Y-98194544D02*
G75*
G02*
X111706778Y-98194544I30001J0D01*
G01*
D10*
X112301249Y-98046051D02*
G75*
G02*
X112141249Y-98046051I-80000J0D01*
G01*
X112141249Y-98046051D02*
G75*
G02*
X112301249Y-98046051I80000J0D01*
G01*
%TO.C,C9*%
D11*
X89890000Y-89053733D02*
X89890000Y-89346267D01*
X90910000Y-89053733D02*
X90910000Y-89346267D01*
%TO.C,SW1*%
X98100000Y-85300000D02*
X98100000Y-85690000D01*
X98100000Y-88600000D02*
X98100000Y-88210000D01*
X102300000Y-85300000D02*
X98100000Y-85300000D01*
X102300000Y-85690000D02*
X102300000Y-85300000D01*
X102300000Y-88210000D02*
X102300000Y-88600000D01*
X102300000Y-88600000D02*
X98100000Y-88600000D01*
%TO.C,R11*%
X105654724Y-84877500D02*
X105145276Y-84877500D01*
X105654724Y-85922500D02*
X105145276Y-85922500D01*
%TO.C,D1*%
X80790000Y-116350000D02*
X80790000Y-120650000D01*
X80790000Y-116350000D02*
X88450000Y-116350000D01*
X80790000Y-120650000D02*
X88450000Y-120650000D01*
%TO.C,Q1*%
X84702500Y-109990000D02*
X86522500Y-109990000D01*
X84702500Y-110990000D02*
X84702500Y-109990000D01*
X84702500Y-113110000D02*
X84702500Y-112110000D01*
X86522500Y-109990000D02*
X86522500Y-110040000D01*
X86522500Y-111160000D02*
X86522500Y-111940000D01*
X86522500Y-113060000D02*
X86522500Y-113110000D01*
X86522500Y-113110000D02*
X84702500Y-113110000D01*
X87062500Y-111930000D02*
X86822500Y-111600000D01*
X87302500Y-111600000D01*
X87062500Y-111930000D01*
G36*
X87062500Y-111930000D02*
G01*
X86822500Y-111600000D01*
X87302500Y-111600000D01*
X87062500Y-111930000D01*
G37*
%TO.C,U1*%
D14*
X107700000Y-111250000D02*
X108600000Y-111250000D01*
X108600000Y-111250000D02*
X108600000Y-110400000D01*
%TO.C,R12*%
D11*
X105145276Y-86677500D02*
X105654724Y-86677500D01*
X105145276Y-87722500D02*
X105654724Y-87722500D01*
%TO.C,C6*%
X91053733Y-111890000D02*
X91346267Y-111890000D01*
X91053733Y-112910000D02*
X91346267Y-112910000D01*
%TO.C,C7*%
X80746267Y-109290000D02*
X80453733Y-109290000D01*
X80746267Y-110310000D02*
X80453733Y-110310000D01*
%TO.C,C4*%
X85271382Y-122937289D02*
X85524724Y-123083556D01*
X85781382Y-122053944D02*
X86034724Y-122200211D01*
%TO.C,R2*%
X98227500Y-115682776D02*
X98227500Y-116192224D01*
X99272500Y-115682776D02*
X99272500Y-116192224D01*
%TO.C,R8*%
X111653733Y-91090000D02*
X111946267Y-91090000D01*
X111653733Y-92110000D02*
X111946267Y-92110000D01*
%TO.C,R6*%
X78346267Y-94890000D02*
X78053733Y-94890000D01*
X78346267Y-95910000D02*
X78053733Y-95910000D01*
%TO.C,J1*%
X95420000Y-124250000D02*
X95420000Y-126170000D01*
X95420000Y-129885000D02*
X95420000Y-128180000D01*
X104580000Y-126170000D02*
X104580000Y-124250000D01*
X104580000Y-128180000D02*
X104580000Y-129885000D01*
X104580000Y-129885000D02*
X95420000Y-129885000D01*
%TD*%
%LPC*%
D15*
%TO.C,C12*%
X117862500Y-93600000D03*
X116137500Y-93600000D03*
%TD*%
D16*
%TO.C,SW2*%
X102425000Y-82400000D03*
X97975000Y-82400000D03*
%TD*%
D17*
%TO.C,C10*%
X87000000Y-88337499D03*
X87000000Y-90062501D03*
%TD*%
D18*
%TO.C,U4*%
X86739016Y-94175198D03*
X86385462Y-93821644D03*
X86031909Y-93468091D03*
X85678355Y-93114537D03*
D19*
X84957107Y-93114537D03*
X84603553Y-93468091D03*
X84250000Y-93821644D03*
X83896446Y-94175198D03*
D18*
X83896446Y-94896446D03*
X84250000Y-95250000D03*
X84603553Y-95603553D03*
X84957107Y-95957107D03*
D19*
X85678355Y-95957107D03*
X86031909Y-95603553D03*
X86385462Y-95250000D03*
X86739016Y-94896446D03*
%TD*%
D20*
%TO.C,R3*%
X101750000Y-115025000D03*
X101750000Y-116850000D03*
%TD*%
D15*
%TO.C,R7*%
X79062500Y-92890000D03*
X77337500Y-92890000D03*
%TD*%
D21*
%TO.C,C3*%
X80750000Y-95362500D03*
X80750000Y-93637500D03*
%TD*%
%TO.C,C8*%
X88800000Y-90062500D03*
X88800000Y-88337500D03*
%TD*%
D22*
%TO.C,R5*%
X93250000Y-122412500D03*
X93250000Y-120587500D03*
%TD*%
D23*
%TO.C,H3*%
X78000000Y-114000000D03*
%TD*%
%TO.C,H4*%
X115000000Y-85000000D03*
%TD*%
D15*
%TO.C,C11*%
X117862500Y-95200000D03*
X116137500Y-95200000D03*
%TD*%
D24*
%TO.C,R10*%
X89512500Y-109200000D03*
X87687500Y-109200000D03*
%TD*%
D25*
%TO.C,R9*%
X110937500Y-90000000D03*
X112662500Y-90000000D03*
%TD*%
D26*
%TO.C,U2*%
X90587501Y-124350000D03*
X90587501Y-125300000D03*
X90587501Y-126250000D03*
X92862501Y-126250000D03*
X92862501Y-124350000D03*
%TD*%
D27*
%TO.C,U5*%
X86775000Y-107750000D03*
X86775000Y-106800000D03*
X86775000Y-105850000D03*
X84500000Y-105850000D03*
X84500000Y-107750000D03*
%TD*%
D28*
%TO.C,R1*%
X79587500Y-107750000D03*
X81412500Y-107750000D03*
%TD*%
D25*
%TO.C,C5*%
X105337500Y-116400000D03*
X107062500Y-116400000D03*
%TD*%
D29*
%TO.C,U6*%
X111796985Y-97607645D03*
X112150538Y-97254092D03*
X112504092Y-96900538D03*
X112857645Y-96546985D03*
D30*
X112511163Y-95945944D03*
X112157609Y-95592391D03*
X111804056Y-95238837D03*
D29*
X111203015Y-94892355D03*
X110849462Y-95245908D03*
X110495908Y-95599462D03*
X110142355Y-95953015D03*
D30*
X110488837Y-96554056D03*
X110842391Y-96907609D03*
X111195944Y-97261163D03*
%TD*%
D23*
%TO.C,H1*%
X83000000Y-85000000D03*
%TD*%
D17*
%TO.C,C9*%
X90400000Y-88337500D03*
X90400000Y-90062500D03*
%TD*%
D16*
%TO.C,SW1*%
X102425000Y-86950000D03*
X97975000Y-86950000D03*
%TD*%
D24*
%TO.C,R11*%
X106312500Y-85400000D03*
X104487500Y-85400000D03*
%TD*%
D31*
%TO.C,D1*%
X82850000Y-118500000D03*
D32*
X88650000Y-118500000D03*
%TD*%
D27*
%TO.C,Q1*%
X86750000Y-112500000D03*
X86750000Y-110600000D03*
X84475000Y-111550000D03*
%TD*%
D33*
%TO.C,U1*%
X108260000Y-109540000D03*
X108260000Y-108480000D03*
X108260000Y-107420000D03*
X108260000Y-106360000D03*
X108260000Y-105300000D03*
X108260000Y-104240000D03*
X108260000Y-103180000D03*
X108260000Y-102120000D03*
X108260000Y-101060000D03*
X108260000Y-100000000D03*
X108260000Y-98940000D03*
X108260000Y-97880000D03*
X108260000Y-96820000D03*
X108260000Y-95760000D03*
X108260000Y-94700000D03*
X108260000Y-93640000D03*
X108260000Y-92580000D03*
X108249995Y-91520007D03*
X108249997Y-90460003D03*
X91740000Y-90460000D03*
X91740000Y-91520000D03*
X91740000Y-92580000D03*
X91740000Y-93640000D03*
X91740000Y-94700000D03*
X91740000Y-95760000D03*
X91740000Y-96820000D03*
X91740000Y-97880000D03*
X91740000Y-98940000D03*
X91740000Y-100000000D03*
X91740000Y-101060000D03*
X91740000Y-102120000D03*
X91740000Y-103180000D03*
X91740000Y-104240000D03*
X91740000Y-105300000D03*
X91740000Y-106360000D03*
X91740000Y-107420000D03*
X91740000Y-108480000D03*
X91740000Y-109540000D03*
D34*
X101570146Y-101375252D03*
%TD*%
D28*
%TO.C,R12*%
X104487500Y-87200000D03*
X106312500Y-87200000D03*
%TD*%
D25*
%TO.C,C6*%
X90337500Y-112400000D03*
X92062500Y-112400000D03*
%TD*%
D15*
%TO.C,C7*%
X81462500Y-109800000D03*
X79737500Y-109800000D03*
%TD*%
D23*
%TO.C,H2*%
X115000000Y-115000000D03*
%TD*%
D35*
%TO.C,C4*%
X84906106Y-122137500D03*
X86400000Y-123000000D03*
%TD*%
D20*
%TO.C,R2*%
X98750000Y-115025000D03*
X98750000Y-116850000D03*
%TD*%
D25*
%TO.C,R8*%
X110937500Y-91600000D03*
X112662500Y-91600000D03*
%TD*%
D15*
%TO.C,R6*%
X79062500Y-95400000D03*
X77337500Y-95400000D03*
%TD*%
D36*
%TO.C,J1*%
X97110000Y-123495000D03*
X102890000Y-123495000D03*
D37*
X96800000Y-122375000D03*
X97600000Y-122375000D03*
D38*
X98750000Y-122375000D03*
X99750000Y-122375000D03*
X100250000Y-122375000D03*
X101250000Y-122375000D03*
D37*
X102400000Y-122375000D03*
X103200000Y-122375000D03*
X103200000Y-122375000D03*
X102400000Y-122375000D03*
D38*
X101750000Y-122375000D03*
X100750000Y-122375000D03*
X99250000Y-122375000D03*
X98250000Y-122375000D03*
D37*
X97600000Y-122375000D03*
X96800000Y-122375000D03*
D39*
X95680000Y-122975000D03*
D40*
X95680000Y-127175000D03*
D39*
X104320000Y-122975000D03*
D40*
X104320000Y-127175000D03*
%TD*%
D41*
%TO.C,J2*%
X114800000Y-80400000D03*
D42*
X114800000Y-78400000D03*
%TD*%
D43*
%TO.C,J3*%
X75000000Y-92380000D03*
D44*
X75000000Y-94920000D03*
X75000000Y-97460000D03*
X75000000Y-100000000D03*
X75000000Y-102540000D03*
X75000000Y-105080000D03*
X75000000Y-107620000D03*
%TD*%
%LPD*%
M02*
