%TF.GenerationSoftware,KiCad,Pcbnew,10.0.5*%
%TF.CreationDate,2026-08-03T15:17:48-04:00*%
%TF.ProjectId,tracker,74726163-6b65-4722-9e6b-696361645f70,rev?*%
%TF.SameCoordinates,Original*%
%TF.FileFunction,Copper,L1,Top*%
%TF.FilePolarity,Positive*%
%FSLAX46Y46*%
G04 Gerber Fmt 4.6, Leading zero omitted, Abs format (unit mm)*
G04 Created by KiCad (PCBNEW 10.0.5) date 2026-08-03 15:17:48*
%MOMM*%
%LPD*%
G01*
G04 APERTURE LIST*
G04 Aperture macros list*
%AMRoundRect*
0 Rectangle with rounded corners*
0 $1 Rounding radius*
0 $2 $3 $4 $5 $6 $7 $8 $9 X,Y pos of 4 corners*
0 Add a 4 corners polygon primitive as box body*
4,1,4,$2,$3,$4,$5,$6,$7,$8,$9,$2,$3,0*
0 Add four circle primitives for the rounded corners*
1,1,$1+$1,$2,$3*
1,1,$1+$1,$4,$5*
1,1,$1+$1,$6,$7*
1,1,$1+$1,$8,$9*
0 Add four rect primitives between the rounded corners*
20,1,$1+$1,$2,$3,$4,$5,0*
20,1,$1+$1,$4,$5,$6,$7,0*
20,1,$1+$1,$6,$7,$8,$9,0*
20,1,$1+$1,$8,$9,$2,$3,0*%
%AMRotRect*
0 Rectangle, with rotation*
0 The origin of the aperture is its center*
0 $1 length*
0 $2 width*
0 $3 Rotation angle, in degrees counterclockwise*
0 Add horizontal line*
21,1,$1,$2,0,0,$3*%
%AMOutline4P*
0 Free polygon, 4 corners , with rotation*
0 The origin of the aperture is its center*
0 number of corners: always 4*
0 $1 to $8 corner X, Y*
0 $9 Rotation angle, in degrees counterclockwise*
0 create outline with 4 corners*
4,1,4,$1,$2,$3,$4,$5,$6,$7,$8,$1,$2,$9*%
G04 Aperture macros list end*
%TA.AperFunction,SMDPad,CuDef*%
%ADD10RoundRect,0.237500X0.300000X0.237500X-0.300000X0.237500X-0.300000X-0.237500X0.300000X-0.237500X0*%
%TD*%
%TA.AperFunction,SMDPad,CuDef*%
%ADD11RoundRect,0.250000X0.275000X0.750000X-0.275000X0.750000X-0.275000X-0.750000X0.275000X-0.750000X0*%
%TD*%
%TA.AperFunction,SMDPad,CuDef*%
%ADD12RoundRect,0.237500X-0.237500X0.300000X-0.237500X-0.300000X0.237500X-0.300000X0.237500X0.300000X0*%
%TD*%
%TA.AperFunction,SMDPad,CuDef*%
%ADD13RotRect,0.250000X0.450000X315.000000*%
%TD*%
%TA.AperFunction,SMDPad,CuDef*%
%ADD14RotRect,0.250000X0.450000X225.000000*%
%TD*%
%TA.AperFunction,SMDPad,CuDef*%
%ADD15RoundRect,0.237500X-0.237500X0.250000X-0.237500X-0.250000X0.237500X-0.250000X0.237500X0.250000X0*%
%TD*%
%TA.AperFunction,SMDPad,CuDef*%
%ADD16RoundRect,0.237500X0.237500X-0.300000X0.237500X0.300000X-0.237500X0.300000X-0.237500X-0.300000X0*%
%TD*%
%TA.AperFunction,SMDPad,CuDef*%
%ADD17RoundRect,0.237500X0.237500X-0.250000X0.237500X0.250000X-0.237500X0.250000X-0.237500X-0.250000X0*%
%TD*%
%TA.AperFunction,SMDPad,CuDef*%
%ADD18RoundRect,0.237500X0.250000X0.237500X-0.250000X0.237500X-0.250000X-0.237500X0.250000X-0.237500X0*%
%TD*%
%TA.AperFunction,SMDPad,CuDef*%
%ADD19RoundRect,0.237500X-0.300000X-0.237500X0.300000X-0.237500X0.300000X0.237500X-0.300000X0.237500X0*%
%TD*%
%TA.AperFunction,SMDPad,CuDef*%
%ADD20RoundRect,0.150000X-0.512500X-0.150000X0.512500X-0.150000X0.512500X0.150000X-0.512500X0.150000X0*%
%TD*%
%TA.AperFunction,SMDPad,CuDef*%
%ADD21RoundRect,0.150000X0.512500X0.150000X-0.512500X0.150000X-0.512500X-0.150000X0.512500X-0.150000X0*%
%TD*%
%TA.AperFunction,SMDPad,CuDef*%
%ADD22RoundRect,0.237500X-0.250000X-0.237500X0.250000X-0.237500X0.250000X0.237500X-0.250000X0.237500X0*%
%TD*%
%TA.AperFunction,SMDPad,CuDef*%
%ADD23RotRect,0.500000X0.280000X135.000000*%
%TD*%
%TA.AperFunction,SMDPad,CuDef*%
%ADD24RotRect,0.280000X0.500000X135.000000*%
%TD*%
%TA.AperFunction,SMDPad,CuDef*%
%ADD25Outline4P,-1.800000X-1.150000X1.800000X-0.550000X1.800000X0.550000X-1.800000X1.150000X0.000000*%
%TD*%
%TA.AperFunction,SMDPad,CuDef*%
%ADD26Outline4P,-1.800000X-1.150000X1.800000X-0.550000X1.800000X0.550000X-1.800000X1.150000X180.000000*%
%TD*%
%TA.AperFunction,SMDPad,CuDef*%
%ADD27R,1.299990X0.699986*%
%TD*%
%TA.AperFunction,ComponentPad*%
%ADD28R,3.790000X4.740000*%
%TD*%
%TA.AperFunction,SMDPad,CuDef*%
%ADD29RoundRect,0.237500X-0.378558X-0.055681X0.141058X-0.355681X0.378558X0.055681X-0.141058X0.355681X0*%
%TD*%
%TA.AperFunction,SMDPad,CuDef*%
%ADD30RoundRect,0.150000X-0.150000X-0.470000X0.150000X-0.470000X0.150000X0.470000X-0.150000X0.470000X0*%
%TD*%
%TA.AperFunction,SMDPad,CuDef*%
%ADD31RoundRect,0.075000X-0.075000X-0.545000X0.075000X-0.545000X0.075000X0.545000X-0.075000X0.545000X0*%
%TD*%
%TA.AperFunction,ComponentPad*%
%ADD32O,1.000000X2.100000*%
%TD*%
%TA.AperFunction,ComponentPad*%
%ADD33O,1.000000X1.800000*%
%TD*%
%TA.AperFunction,ComponentPad*%
%ADD34RoundRect,0.250000X0.625000X-0.350000X0.625000X0.350000X-0.625000X0.350000X-0.625000X-0.350000X0*%
%TD*%
%TA.AperFunction,ComponentPad*%
%ADD35O,1.750000X1.200000*%
%TD*%
%TA.AperFunction,ComponentPad*%
%ADD36R,1.700000X1.700000*%
%TD*%
%TA.AperFunction,ComponentPad*%
%ADD37C,1.700000*%
%TD*%
%TA.AperFunction,ViaPad*%
%ADD38C,0.600000*%
%TD*%
%TA.AperFunction,Conductor*%
%ADD39C,0.200000*%
%TD*%
%TA.AperFunction,Conductor*%
%ADD40C,0.600000*%
%TD*%
%TA.AperFunction,Conductor*%
%ADD41C,0.400000*%
%TD*%
%TA.AperFunction,Conductor*%
%ADD42C,0.300000*%
%TD*%
G04 APERTURE END LIST*
D10*
%TO.P,C12,1*%
%TO.N,GND*%
X117862500Y-93600000D03*
%TO.P,C12,2*%
%TO.N,3.3V*%
X116137500Y-93600000D03*
%TD*%
D11*
%TO.P,SW2,1,1_1*%
%TO.N,RESET*%
X102425000Y-82400000D03*
%TO.P,SW2,2,2_2*%
%TO.N,GND*%
X97975000Y-82400000D03*
%TD*%
D12*
%TO.P,C10,1*%
%TO.N,GND*%
X87000000Y-88337499D03*
%TO.P,C10,2*%
%TO.N,3.3V*%
X87000000Y-90062501D03*
%TD*%
D13*
%TO.P,U4,1,SCK_1*%
%TO.N,MAG_SCK*%
X86739016Y-94175198D03*
%TO.P,U4,2,VDD_2*%
%TO.N,3.3V*%
X86385462Y-93821644D03*
%TO.P,U4,3,NC_3*%
%TO.N,unconnected-(U4-NC-Pad3)*%
X86031909Y-93468091D03*
%TO.P,U4,4,NC_4*%
%TO.N,unconnected-(U4-NC-Pad4)*%
X85678355Y-93114537D03*
D14*
%TO.P,U4,5,NC_5*%
%TO.N,unconnected-(U4-NC-Pad5)*%
X84957107Y-93114537D03*
%TO.P,U4,6,NC_6*%
%TO.N,unconnected-(U4-NC-Pad6)*%
X84603553Y-93468091D03*
%TO.P,U4,7,NC_7*%
%TO.N,unconnected-(U4-NC-Pad7)*%
X84250000Y-93821644D03*
%TO.P,U4,8,NC_8*%
%TO.N,unconnected-(U4-NC-Pad8)*%
X83896446Y-94175198D03*
D13*
%TO.P,U4,9,GND_9*%
%TO.N,GND*%
X83896446Y-94896446D03*
%TO.P,U4,10,C1_10*%
%TO.N,Net-(U4-C1)*%
X84250000Y-95250000D03*
%TO.P,U4,11,GND_11*%
%TO.N,GND*%
X84603553Y-95603553D03*
%TO.P,U4,12,NC_12*%
%TO.N,unconnected-(U4-NC-Pad12)*%
X84957107Y-95957107D03*
D14*
%TO.P,U4,13,NC_13*%
%TO.N,unconnected-(U4-NC-Pad13)*%
X85678355Y-95957107D03*
%TO.P,U4,14,NC_14*%
%TO.N,unconnected-(U4-NC-Pad14)*%
X86031909Y-95603553D03*
%TO.P,U4,15,NC_15*%
%TO.N,unconnected-(U4-NC-Pad15)*%
X86385462Y-95250000D03*
%TO.P,U4,16,SDA_16*%
%TO.N,MAG_SDA*%
X86739016Y-94896446D03*
%TD*%
D15*
%TO.P,R3,1*%
%TO.N,GND*%
X101750000Y-115025000D03*
%TO.P,R3,2*%
%TO.N,Net-(J1-CC2)*%
X101750000Y-116850000D03*
%TD*%
D10*
%TO.P,R7,1*%
%TO.N,MAG_SCK*%
X79062500Y-92890000D03*
%TO.P,R7,2*%
%TO.N,3.3V*%
X77337500Y-92890000D03*
%TD*%
D16*
%TO.P,C3,1*%
%TO.N,Net-(U4-C1)*%
X80750000Y-95362500D03*
%TO.P,C3,2*%
%TO.N,GND*%
X80750000Y-93637500D03*
%TD*%
%TO.P,C8,1*%
%TO.N,3.3V*%
X88800000Y-90062500D03*
%TO.P,C8,2*%
%TO.N,GND*%
X88800000Y-88337500D03*
%TD*%
D17*
%TO.P,R5,1*%
%TO.N,5V*%
X93250000Y-122412500D03*
%TO.P,R5,2*%
%TO.N,GND*%
X93250000Y-120587500D03*
%TD*%
D10*
%TO.P,C11,1*%
%TO.N,GND*%
X117862500Y-95200000D03*
%TO.P,C11,2*%
%TO.N,3.3V*%
X116137500Y-95200000D03*
%TD*%
D18*
%TO.P,R10,1*%
%TO.N,5V*%
X89512500Y-109200000D03*
%TO.P,R10,2*%
%TO.N,Net-(U5-CE)*%
X87687500Y-109200000D03*
%TD*%
D19*
%TO.P,R9,1*%
%TO.N,IMU_SDA*%
X110937500Y-90000000D03*
%TO.P,R9,2*%
%TO.N,3.3V*%
X112662500Y-90000000D03*
%TD*%
D20*
%TO.P,U2,1,VIN_1*%
%TO.N,LDO_IN*%
X90587501Y-124350000D03*
%TO.P,U2,2,GND_2*%
%TO.N,GND*%
X90587501Y-125300000D03*
%TO.P,U2,3,EN_3*%
%TO.N,LDO_IN*%
X90587501Y-126250000D03*
%TO.P,U2,4,NC_4*%
%TO.N,unconnected-(U2-NC-Pad4)*%
X92862501Y-126250000D03*
%TO.P,U2,5,VOUT_5*%
%TO.N,3.3V*%
X92862501Y-124350000D03*
%TD*%
D21*
%TO.P,U5,1,CE_1*%
%TO.N,Net-(U5-CE)*%
X86775000Y-107750000D03*
%TO.P,U5,2,V_{SS}_2*%
%TO.N,GND*%
X86775000Y-106800000D03*
%TO.P,U5,3,V_{BAT}_3*%
%TO.N,V_BAT*%
X86775000Y-105850000D03*
%TO.P,U5,4,V_{DD}_4*%
%TO.N,5V*%
X84500000Y-105850000D03*
%TO.P,U5,5,PROG_5*%
%TO.N,Net-(U5-PROG)*%
X84500000Y-107750000D03*
%TD*%
D22*
%TO.P,R1,1*%
%TO.N,GND*%
X79587500Y-107750000D03*
%TO.P,R1,2*%
%TO.N,Net-(U5-PROG)*%
X81412500Y-107750000D03*
%TD*%
D19*
%TO.P,C5,1*%
%TO.N,3.3V*%
X105337500Y-116400000D03*
%TO.P,C5,2*%
%TO.N,GND*%
X107062500Y-116400000D03*
%TD*%
D23*
%TO.P,U6,1,SDO/SA0_1*%
%TO.N,GND*%
X111796985Y-97607645D03*
%TO.P,U6,2,SDx/AH1/Qvar1_2*%
X112150538Y-97254092D03*
%TO.P,U6,3,SCx/AH2/Qvar2_3*%
X112504092Y-96900538D03*
%TO.P,U6,4,INT1_4*%
%TO.N,unconnected-(U6-INT1-Pad4)*%
X112857645Y-96546985D03*
D24*
%TO.P,U6,5,Vdd_IO_5*%
%TO.N,3.3V*%
X112511163Y-95945944D03*
%TO.P,U6,6,GND_6*%
%TO.N,GND*%
X112157609Y-95592391D03*
%TO.P,U6,7,GND_7*%
X111804056Y-95238837D03*
D23*
%TO.P,U6,8,Vdd_8*%
%TO.N,3.3V*%
X111203015Y-94892355D03*
%TO.P,U6,9,INT2_9*%
%TO.N,unconnected-(U6-INT2-Pad9)*%
X110849462Y-95245908D03*
%TO.P,U6,10,OCS_Aux_10*%
%TO.N,unconnected-(U6-OCS_Aux-Pad10)*%
X110495908Y-95599462D03*
%TO.P,U6,11,SDO_Aux_11*%
%TO.N,unconnected-(U6-SDO_Aux-Pad11)*%
X110142355Y-95953015D03*
D24*
%TO.P,U6,12,CS_12*%
%TO.N,3.3V*%
X110488837Y-96554056D03*
%TO.P,U6,13,SCL_13*%
%TO.N,IMU_SCK*%
X110842391Y-96907609D03*
%TO.P,U6,14,SDA_14*%
%TO.N,IMU_SDA*%
X111195944Y-97261163D03*
%TD*%
D12*
%TO.P,C9,1*%
%TO.N,GND*%
X90400000Y-88337500D03*
%TO.P,C9,2*%
%TO.N,3.3V*%
X90400000Y-90062500D03*
%TD*%
D11*
%TO.P,SW1,1,1_1*%
%TO.N,BOOT*%
X102425000Y-86950000D03*
%TO.P,SW1,2,2_2*%
%TO.N,GND*%
X97975000Y-86950000D03*
%TD*%
D18*
%TO.P,R11,1*%
%TO.N,3.3V*%
X106312500Y-85400000D03*
%TO.P,R11,2*%
%TO.N,RESET*%
X104487500Y-85400000D03*
%TD*%
D25*
%TO.P,D1,1,K_1*%
%TO.N,LDO_IN*%
X82850000Y-118500000D03*
D26*
%TO.P,D1,2,A_2*%
%TO.N,5V*%
X88650000Y-118500000D03*
%TD*%
D21*
%TO.P,Q1,1,D_1*%
%TO.N,V_BAT*%
X86750000Y-112500000D03*
%TO.P,Q1,2,G_2*%
%TO.N,5V*%
X86750000Y-110600000D03*
%TO.P,Q1,3,S_3*%
%TO.N,LDO_IN*%
X84475000Y-111550000D03*
%TD*%
D27*
%TO.P,U1,1,GPIO47_1*%
%TO.N,WIO_I_GPS_O*%
X108260000Y-109540000D03*
%TO.P,U1,2,GPIO38_2*%
%TO.N,WIO_O_GPS_I*%
X108260000Y-108480000D03*
%TO.P,U1,3,GPIO39_3*%
%TO.N,GPS_PULSE*%
X108260000Y-107420000D03*
%TO.P,U1,4,GPIO40_4*%
%TO.N,GPS_INT*%
X108260000Y-106360000D03*
%TO.P,U1,5,GPIO41_5*%
%TO.N,GPS_RST*%
X108260000Y-105300000D03*
%TO.P,U1,6,GPIO42_6*%
%TO.N,unconnected-(U1-GPIO42-Pad6)*%
X108260000Y-104240000D03*
%TO.P,U1,7,GPIO43/UART0_TX_7*%
%TO.N,unconnected-(U1-GPIO43{slash}UART0_TX-Pad7)*%
X108260000Y-103180000D03*
%TO.P,U1,8,GPIO44/UART0_RX_8*%
%TO.N,unconnected-(U1-GPIO44{slash}UART0_RX-Pad8)*%
X108260000Y-102120000D03*
%TO.P,U1,9,GPIO45_9*%
%TO.N,unconnected-(U1-GPIO45-Pad9)*%
X108260000Y-101060000D03*
%TO.P,U1,10,GPIO46_10*%
%TO.N,unconnected-(U1-GPIO46-Pad10)*%
X108260000Y-100000000D03*
%TO.P,U1,11,GPIO3_11*%
%TO.N,unconnected-(U1-GPIO3-Pad11)*%
X108260000Y-98940000D03*
%TO.P,U1,12,GPIO2_12*%
%TO.N,IMU_SDA*%
X108260000Y-97880000D03*
%TO.P,U1,13,GPIO1_13*%
%TO.N,IMU_SCK*%
X108260000Y-96820000D03*
%TO.P,U1,14,BOOT_14*%
%TO.N,BOOT*%
X108260000Y-95760000D03*
%TO.P,U1,15,RST_15*%
%TO.N,RESET*%
X108260000Y-94700000D03*
%TO.P,U1,16,GND_16*%
%TO.N,GND*%
X108260000Y-93640000D03*
%TO.P,U1,17,GND_17*%
X108260000Y-92580000D03*
%TO.P,U1,18,WIFI/BT_ANT/NC_18*%
%TO.N,unconnected-(U1-WIFI{slash}BT_ANT{slash}NC-Pad18)*%
X108249995Y-91520007D03*
%TO.P,U1,19,GND_19*%
%TO.N,GND*%
X108249997Y-90460003D03*
%TO.P,U1,20,GND_20*%
X91740000Y-90460000D03*
%TO.P,U1,21,VCC_21*%
%TO.N,3.3V*%
X91740000Y-91520000D03*
%TO.P,U1,22,GND_22*%
%TO.N,GND*%
X91740000Y-92580000D03*
%TO.P,U1,23,GND_23*%
X91740000Y-93640000D03*
%TO.P,U1,24,GPIO11_24*%
%TO.N,MAG_SCK*%
X91740000Y-94700000D03*
%TO.P,U1,25,GPIO10_25*%
%TO.N,MAG_SDA*%
X91740000Y-95760000D03*
%TO.P,U1,26,GPIO12_26*%
%TO.N,LCD_SCL*%
X91740000Y-96820000D03*
%TO.P,U1,27,GPIO13_27*%
%TO.N,LCD_SDA*%
X91740000Y-97880000D03*
%TO.P,U1,28,GPIO14_28*%
%TO.N,LCD_DC*%
X91740000Y-98940000D03*
%TO.P,U1,29,GPIO15_29*%
%TO.N,LCD_CS*%
X91740000Y-100000000D03*
%TO.P,U1,30,GPIO16_30*%
%TO.N,LCD_RST*%
X91740000Y-101060000D03*
%TO.P,U1,31,GPIO17_31*%
%TO.N,unconnected-(U1-GPIO17-Pad31)*%
X91740000Y-102120000D03*
%TO.P,U1,32,GPIO18_32*%
%TO.N,unconnected-(U1-GPIO18-Pad32)*%
X91740000Y-103180000D03*
%TO.P,U1,33,GPIO19/USB_DM_33*%
%TO.N,D-*%
X91740000Y-104240000D03*
%TO.P,U1,34,GPIO20/USB_DP_34*%
%TO.N,D+*%
X91740000Y-105300000D03*
%TO.P,U1,35,GPIO48_35*%
%TO.N,CHARGE_EN*%
X91740000Y-106360000D03*
%TO.P,U1,36,GND_36*%
%TO.N,GND*%
X91740000Y-107420000D03*
%TO.P,U1,37,LORA_ANT_37*%
%TO.N,unconnected-(U1-LORA_ANT-Pad37)*%
X91740000Y-108480000D03*
%TO.P,U1,38,GND_38*%
%TO.N,GND*%
X91740000Y-109540000D03*
D28*
%TO.P,U1,39,GND_39*%
X101570146Y-101375252D03*
%TD*%
D22*
%TO.P,R12,1*%
%TO.N,BOOT*%
X104487500Y-87200000D03*
%TO.P,R12,2*%
%TO.N,3.3V*%
X106312500Y-87200000D03*
%TD*%
D19*
%TO.P,C6,1*%
%TO.N,5V*%
X90337500Y-112400000D03*
%TO.P,C6,2*%
%TO.N,GND*%
X92062500Y-112400000D03*
%TD*%
D10*
%TO.P,C7,1*%
%TO.N,V_BAT*%
X81462500Y-109800000D03*
%TO.P,C7,2*%
%TO.N,GND*%
X79737500Y-109800000D03*
%TD*%
D29*
%TO.P,C4,1*%
%TO.N,LDO_IN*%
X84906106Y-122137500D03*
%TO.P,C4,2*%
%TO.N,GND*%
X86400000Y-123000000D03*
%TD*%
D15*
%TO.P,R2,1*%
%TO.N,GND*%
X98750000Y-115025000D03*
%TO.P,R2,2*%
%TO.N,Net-(J1-CC1)*%
X98750000Y-116850000D03*
%TD*%
D19*
%TO.P,R8,1*%
%TO.N,IMU_SCK*%
X110937500Y-91600000D03*
%TO.P,R8,2*%
%TO.N,3.3V*%
X112662500Y-91600000D03*
%TD*%
D10*
%TO.P,R6,1*%
%TO.N,MAG_SDA*%
X79062500Y-95400000D03*
%TO.P,R6,2*%
%TO.N,3.3V*%
X77337500Y-95400000D03*
%TD*%
D30*
%TO.P,J1,A1,GND_A1*%
%TO.N,GND*%
X96800000Y-122375000D03*
%TO.P,J1,A4,VBUS_A4*%
%TO.N,5V*%
X97600000Y-122375000D03*
D31*
%TO.P,J1,A5,CC1_A5*%
%TO.N,Net-(J1-CC1)*%
X98750000Y-122375000D03*
%TO.P,J1,A6,D+_A6*%
%TO.N,D+*%
X99750000Y-122375000D03*
%TO.P,J1,A7,D-_A7*%
%TO.N,D-*%
X100250000Y-122375000D03*
%TO.P,J1,A8,SBU1_A8*%
%TO.N,unconnected-(J1-SBU1-PadA8)*%
X101250000Y-122375000D03*
D30*
%TO.P,J1,A9,VBUS_A9*%
%TO.N,5V*%
X102400000Y-122375000D03*
%TO.P,J1,A12,GND_A12*%
%TO.N,GND*%
X103200000Y-122375000D03*
%TO.P,J1,B1,GND_B1*%
X103200000Y-122375000D03*
%TO.P,J1,B4,VBUS_B4*%
%TO.N,5V*%
X102400000Y-122375000D03*
D31*
%TO.P,J1,B5,CC2_B5*%
%TO.N,Net-(J1-CC2)*%
X101750000Y-122375000D03*
%TO.P,J1,B6,D+_B6*%
%TO.N,D+*%
X100750000Y-122375000D03*
%TO.P,J1,B7,D-_B7*%
%TO.N,D-*%
X99250000Y-122375000D03*
%TO.P,J1,B8,SBU2_B8*%
%TO.N,unconnected-(J1-SBU2-PadB8)*%
X98250000Y-122375000D03*
D30*
%TO.P,J1,B9,VBUS_B9*%
%TO.N,5V*%
X97600000Y-122375000D03*
%TO.P,J1,B12,GND_B12*%
%TO.N,GND*%
X96800000Y-122375000D03*
D32*
%TO.P,J1,SH,SHIELD_SH*%
X95680000Y-122975000D03*
D33*
X95680000Y-127175000D03*
D32*
X104320000Y-122975000D03*
D33*
X104320000Y-127175000D03*
%TD*%
D34*
%TO.P,J2,1,Pin_1_1*%
%TO.N,GND*%
X114800000Y-80400000D03*
D35*
%TO.P,J2,2,Pin_2_2*%
%TO.N,V_BAT*%
X114800000Y-78400000D03*
%TD*%
D36*
%TO.P,J3,1,Pin_1_1*%
%TO.N,3.3V*%
X75000000Y-92380000D03*
D37*
%TO.P,J3,2,Pin_2_2*%
%TO.N,GND*%
X75000000Y-94920000D03*
%TO.P,J3,3,Pin_3_3*%
%TO.N,LCD_SCL*%
X75000000Y-97460000D03*
%TO.P,J3,4,Pin_4_4*%
%TO.N,LCD_SDA*%
X75000000Y-100000000D03*
%TO.P,J3,5,Pin_5_5*%
%TO.N,LCD_DC*%
X75000000Y-102540000D03*
%TO.P,J3,6,Pin_6_6*%
%TO.N,LCD_CS*%
X75000000Y-105080000D03*
%TO.P,J3,7,Pin_7_7*%
%TO.N,LCD_RST*%
X75000000Y-107620000D03*
%TD*%
D38*
%TO.N,GND*%
X122500000Y-97250000D03*
X124000000Y-97250000D03*
X125000000Y-106500000D03*
X96500000Y-120100000D03*
X120250000Y-101000000D03*
X127000000Y-99500000D03*
X119750000Y-101500000D03*
X73250000Y-101250000D03*
X123250000Y-97250000D03*
X110250000Y-100000000D03*
X126500000Y-105250000D03*
X81500000Y-113500000D03*
X122500000Y-101000000D03*
X121000000Y-101000000D03*
X127000000Y-97250000D03*
X127000000Y-98000000D03*
X127000000Y-100250000D03*
X126500000Y-103750000D03*
X119750000Y-103000000D03*
X122500000Y-100250000D03*
X122750000Y-103750000D03*
X119750000Y-102250000D03*
X86775000Y-106800000D03*
X124250000Y-106000000D03*
X90000000Y-93000000D03*
X127000000Y-102500000D03*
X125500000Y-97250000D03*
X124750000Y-97250000D03*
X93500000Y-102500000D03*
X101500000Y-110500000D03*
X126250000Y-97250000D03*
X125750000Y-106000000D03*
X121750000Y-101000000D03*
X109750000Y-105500000D03*
X127000000Y-98750000D03*
X122500000Y-99500000D03*
X96000000Y-113000000D03*
X122500000Y-98750000D03*
X127000000Y-101750000D03*
X126500000Y-104500000D03*
X123500000Y-104500000D03*
X82500000Y-93000000D03*
X123500000Y-105250000D03*
X123500000Y-103750000D03*
X108260000Y-93640000D03*
X122500000Y-98000000D03*
X83250000Y-96150000D03*
X119750000Y-103750000D03*
X127000000Y-101000000D03*
X94000000Y-127250000D03*
X127000000Y-103250000D03*
X109400000Y-90600000D03*
X125000000Y-98350000D03*
%TO.N,3.3V*%
X87000000Y-91520000D03*
X111700000Y-103800000D03*
X87000000Y-93200000D03*
%TO.N,5V*%
X102400000Y-121400000D03*
X97600000Y-121400000D03*
%TO.N,V_BAT*%
X86775000Y-105850000D03*
%TO.N,BOOT*%
X106400000Y-88600000D03*
X107200000Y-95800000D03*
%TO.N,WIO_I_GPS_O*%
X111700000Y-109300000D03*
%TO.N,WIO_O_GPS_I*%
X111700000Y-108200000D03*
%TO.N,GPS_PULSE*%
X111700000Y-107100000D03*
%TO.N,GPS_INT*%
X111700000Y-106000000D03*
%TO.N,GPS_RST*%
X111700000Y-101600000D03*
%TD*%
%TO.N,GND*%
D39*
X108689990Y-92580000D02*
X108260000Y-92580000D01*
X86775000Y-106800000D02*
X86775000Y-106775000D01*
X91740000Y-107420000D02*
X91439998Y-107420000D01*
X109149990Y-92120000D02*
X108689990Y-92580000D01*
X112032609Y-95467391D02*
X112157609Y-95592391D01*
X91439998Y-109540000D02*
X91740000Y-109540000D01*
X109149990Y-91059994D02*
X109149990Y-92120000D01*
X84057106Y-96150000D02*
X84603553Y-95603553D01*
X83250000Y-96150000D02*
X84057106Y-96150000D01*
X112150538Y-97254092D02*
X112504092Y-96900538D01*
X83896446Y-94896446D02*
X83246446Y-94896446D01*
X108549999Y-90460003D02*
X109149990Y-91059994D01*
X91740000Y-92580000D02*
X91740000Y-93640000D01*
X111804056Y-95238837D02*
X112032609Y-95467391D01*
X86775000Y-106775000D02*
X86750000Y-106750000D01*
X83246446Y-94896446D02*
X82650000Y-94300000D01*
X108249997Y-90460003D02*
X108549999Y-90460003D01*
%TO.N,3.3V*%
D40*
X92889995Y-91730007D02*
X92679988Y-91520000D01*
D39*
X112654056Y-95945944D02*
X113400000Y-95200000D01*
X87000000Y-91520000D02*
X75860000Y-91520000D01*
D41*
X91740000Y-91520000D02*
X87000000Y-91520000D01*
D39*
X75510000Y-92890000D02*
X75000000Y-92380000D01*
X111700000Y-103800000D02*
X112300000Y-104400000D01*
X112878858Y-95945944D02*
X112511163Y-95945944D01*
D40*
X92862501Y-124350000D02*
X93964501Y-125452000D01*
D39*
X112300000Y-109548529D02*
X111458423Y-110390106D01*
X112511163Y-95945944D02*
X112733381Y-95723726D01*
X111700000Y-103800000D02*
X113433417Y-102066583D01*
X113433417Y-102066583D02*
X113433417Y-96500503D01*
D40*
X93964501Y-125452000D02*
X100932948Y-125452000D01*
X105320000Y-110390106D02*
X92889995Y-97960101D01*
D39*
X86385462Y-93821644D02*
X86385462Y-93814538D01*
X101915256Y-81100000D02*
X104237500Y-81100000D01*
X111444438Y-94650932D02*
X111203015Y-94892355D01*
X106312500Y-87200000D02*
X106312500Y-85400000D01*
D41*
X90257500Y-91520000D02*
X91740000Y-91520000D01*
X90400000Y-90062500D02*
X90400000Y-91229995D01*
D40*
X100932948Y-125452000D02*
X101459948Y-124925000D01*
D39*
X113400000Y-95200000D02*
X116137500Y-95200000D01*
D41*
X90400000Y-91229995D02*
X90690005Y-91520000D01*
D39*
X77337500Y-92890000D02*
X75510000Y-92890000D01*
X110121142Y-96554056D02*
X109566583Y-95999497D01*
X87000000Y-90062501D02*
X87000000Y-91520000D01*
X105537500Y-86425000D02*
X104258278Y-86425000D01*
D40*
X92889995Y-97960101D02*
X92889995Y-91730007D01*
D39*
X112495370Y-93600000D02*
X112662500Y-93432870D01*
X112511163Y-95945944D02*
X112654056Y-95945944D01*
D40*
X92679988Y-91520000D02*
X91740000Y-91520000D01*
X104425000Y-124925000D02*
X105320000Y-124030000D01*
D39*
X113433417Y-96500503D02*
X112878858Y-95945944D01*
X112495370Y-93600000D02*
X116137500Y-93600000D01*
X112733381Y-95390345D02*
X111993968Y-94650932D01*
X106312500Y-87200000D02*
X105537500Y-86425000D01*
X112662500Y-89525000D02*
X112662500Y-90000000D01*
X111203015Y-94892355D02*
X112495370Y-93600000D01*
D40*
X105320000Y-124030000D02*
X105320000Y-110390106D01*
D41*
X90690005Y-91520000D02*
X91740000Y-91520000D01*
D39*
X110488837Y-96554056D02*
X110121142Y-96554056D01*
X104237500Y-81100000D02*
X112662500Y-89525000D01*
X86385462Y-93814538D02*
X87000000Y-93200000D01*
X101600000Y-83766722D02*
X101600000Y-81415256D01*
X112662500Y-93432870D02*
X112662500Y-91600000D01*
X112662500Y-90000000D02*
X112662500Y-91600000D01*
X112733381Y-95723726D02*
X112733381Y-95390345D01*
X101600000Y-81415256D02*
X101915256Y-81100000D01*
X77337500Y-95400000D02*
X77337500Y-92890000D01*
X104258278Y-86425000D02*
X101600000Y-83766722D01*
X75860000Y-91520000D02*
X75000000Y-92380000D01*
D40*
X101459948Y-124925000D02*
X104425000Y-124925000D01*
D41*
X88800000Y-90062500D02*
X90257500Y-91520000D01*
D39*
X109566583Y-95750969D02*
X110647416Y-94670136D01*
X111993968Y-94650932D02*
X111444438Y-94650932D01*
X112300000Y-104400000D02*
X112300000Y-109548529D01*
X110647416Y-94670136D02*
X110980796Y-94670136D01*
X111458423Y-110390106D02*
X105320000Y-110390106D01*
X109566583Y-95999497D02*
X109566583Y-95750969D01*
X110980796Y-94670136D02*
X111203015Y-94892355D01*
%TO.N,RESET*%
X104487500Y-85400000D02*
X104487500Y-84462500D01*
X104487500Y-84462500D02*
X102425000Y-82400000D01*
X109159995Y-92675681D02*
X109159995Y-94100007D01*
X111775000Y-90466722D02*
X111416722Y-90825000D01*
X111416722Y-90825000D02*
X110408278Y-90825000D01*
X104641722Y-82400000D02*
X111775000Y-89533278D01*
X111775000Y-89533278D02*
X111775000Y-90466722D01*
X110408278Y-90825000D02*
X109549990Y-91683288D01*
X108560002Y-94700000D02*
X108260000Y-94700000D01*
X109549990Y-91683288D02*
X109549990Y-92285686D01*
X109549990Y-92285686D02*
X109159995Y-92675681D01*
X102425000Y-82400000D02*
X104641722Y-82400000D01*
X109159995Y-94100007D02*
X108560002Y-94700000D01*
%TO.N,MAG_SCK*%
X89175198Y-94175198D02*
X89700000Y-94700000D01*
X89700000Y-94700000D02*
X91740000Y-94700000D01*
X79552500Y-92400000D02*
X87400000Y-92400000D01*
X86739016Y-94175198D02*
X87200000Y-94175198D01*
X87400000Y-92400000D02*
X87800000Y-92800000D01*
X87200000Y-94175198D02*
X89175198Y-94175198D01*
X79062500Y-92890000D02*
X79552500Y-92400000D01*
X87800000Y-93575198D02*
X87200000Y-94175198D01*
X87800000Y-92800000D02*
X87800000Y-93575198D01*
%TO.N,Net-(U4-C1)*%
X80831433Y-95443933D02*
X84056067Y-95443933D01*
X84056067Y-95443933D02*
X84250000Y-95250000D01*
X80750000Y-95362500D02*
X80831433Y-95443933D01*
%TO.N,MAG_SDA*%
X86739016Y-94896446D02*
X87602570Y-95760000D01*
X86932949Y-95444975D02*
X85377924Y-97000000D01*
X80662500Y-97000000D02*
X79062500Y-95400000D01*
X85377924Y-97000000D02*
X80662500Y-97000000D01*
X87602570Y-95760000D02*
X91740000Y-95760000D01*
X86739016Y-94896446D02*
X86932949Y-95090379D01*
X86932949Y-95090379D02*
X86932949Y-95444975D01*
%TO.N,Net-(J1-CC2)*%
X101750000Y-116850000D02*
X101750000Y-122375000D01*
%TO.N,5V*%
D41*
X92562500Y-122412500D02*
X93250000Y-122412500D01*
X93250000Y-122412500D02*
X94312500Y-123475000D01*
X86750000Y-110600000D02*
X88112500Y-110600000D01*
X87519474Y-105150000D02*
X85200000Y-105150000D01*
X102227000Y-122548000D02*
X102227000Y-123088592D01*
X88112500Y-110600000D02*
X89512500Y-109200000D01*
X94312500Y-123475000D02*
X94312500Y-124531974D01*
X85200000Y-105150000D02*
X84500000Y-105850000D01*
X97600000Y-122375000D02*
X97600000Y-121400000D01*
X88750000Y-112400000D02*
X88650000Y-112500000D01*
X88650000Y-112500000D02*
X88650000Y-118500000D01*
X94312500Y-124531974D02*
X94532526Y-124752000D01*
X88650000Y-118500000D02*
X92562500Y-122412500D01*
X90337500Y-112400000D02*
X88750000Y-112400000D01*
X86750000Y-110600000D02*
X88650000Y-112500000D01*
X102227000Y-123088592D02*
X100563592Y-124752000D01*
X94532526Y-124752000D02*
X100563592Y-124752000D01*
X89512500Y-109200000D02*
X89512500Y-107143026D01*
X102400000Y-122375000D02*
X102227000Y-122548000D01*
X102400000Y-122375000D02*
X102400000Y-121400000D01*
X89512500Y-107143026D02*
X87519474Y-105150000D01*
%TO.N,Net-(U5-CE)*%
D39*
X87687500Y-109200000D02*
X87687500Y-108662500D01*
X87687500Y-108662500D02*
X86775000Y-107750000D01*
%TO.N,IMU_SDA*%
X110937500Y-90000000D02*
X110797510Y-89860010D01*
X106400000Y-89860010D02*
X106400000Y-96459988D01*
X110577107Y-97880000D02*
X111195944Y-97261163D01*
X106400000Y-96459988D02*
X107820012Y-97880000D01*
X108260000Y-97880000D02*
X110577107Y-97880000D01*
X110797510Y-89860010D02*
X106400000Y-89860010D01*
X107820012Y-97880000D02*
X108260000Y-97880000D01*
%TO.N,LDO_IN*%
D41*
X84737501Y-118500000D02*
X87418751Y-121181249D01*
X82850000Y-118500000D02*
X82850000Y-113175000D01*
D39*
X91550001Y-125949999D02*
X91250000Y-126250000D01*
D41*
X87418751Y-121181249D02*
X90587501Y-124350000D01*
X82850000Y-113175000D02*
X84475000Y-111550000D01*
D39*
X91250000Y-126250000D02*
X90587501Y-126250000D01*
X90940553Y-124350000D02*
X91550001Y-124959448D01*
X90587501Y-124350000D02*
X90940553Y-124350000D01*
D41*
X82850000Y-118500000D02*
X84737501Y-118500000D01*
D39*
X91550001Y-124959448D02*
X91550001Y-125949999D01*
D42*
X84906106Y-122137500D02*
X85862357Y-121181249D01*
X85862357Y-121181249D02*
X87418751Y-121181249D01*
%TO.N,V_BAT*%
D41*
X81462500Y-109800000D02*
X84169474Y-109800000D01*
X86775000Y-105850000D02*
X86280526Y-105850000D01*
X84169474Y-109800000D02*
X85687500Y-111318026D01*
X85687500Y-111437500D02*
X86750000Y-112500000D01*
X86280526Y-105850000D02*
X85687500Y-106443026D01*
X85687500Y-111318026D02*
X85687500Y-111437500D01*
X85687500Y-106443026D02*
X85687500Y-111437500D01*
%TO.N,Net-(U5-PROG)*%
X81412500Y-107750000D02*
X84500000Y-107750000D01*
%TO.N,IMU_SCK*%
D39*
X108569828Y-97129828D02*
X108260000Y-96820000D01*
X110842391Y-96907609D02*
X110620172Y-97129828D01*
X109159995Y-96220007D02*
X108560002Y-96820000D01*
X108560002Y-96820000D02*
X108260000Y-96820000D01*
X110937500Y-91600000D02*
X110937500Y-92888188D01*
X109159995Y-94665693D02*
X109159995Y-96220007D01*
X110620172Y-97129828D02*
X108569828Y-97129828D01*
X110937500Y-92888188D02*
X109159995Y-94665693D01*
%TO.N,BOOT*%
X104075000Y-88600000D02*
X106400000Y-88600000D01*
X108260000Y-95760000D02*
X107240000Y-95760000D01*
X103075000Y-87600000D02*
X102425000Y-86950000D01*
X104887500Y-87600000D02*
X103075000Y-87600000D01*
X107240000Y-95760000D02*
X107200000Y-95800000D01*
X102425000Y-86950000D02*
X104075000Y-88600000D01*
%TO.N,WIO_I_GPS_O*%
X111700000Y-109300000D02*
X108500000Y-109300000D01*
X108500000Y-109300000D02*
X108260000Y-109540000D01*
%TO.N,WIO_O_GPS_I*%
X111700000Y-108200000D02*
X108540000Y-108200000D01*
X108540000Y-108200000D02*
X108260000Y-108480000D01*
%TO.N,GPS_PULSE*%
X108580000Y-107100000D02*
X108260000Y-107420000D01*
X111700000Y-107100000D02*
X108580000Y-107100000D01*
%TO.N,GPS_INT*%
X111600000Y-106000000D02*
X111240000Y-106360000D01*
X111700000Y-106000000D02*
X111600000Y-106000000D01*
X111240000Y-106360000D02*
X108260000Y-106360000D01*
%TO.N,GPS_RST*%
X108560002Y-105300000D02*
X111700000Y-102160002D01*
X108260000Y-105300000D02*
X108560002Y-105300000D01*
X111700000Y-102160002D02*
X111700000Y-101600000D01*
%TO.N,LCD_SCL*%
X76202081Y-97460000D02*
X75000000Y-97460000D01*
X91439998Y-96820000D02*
X90859998Y-97400000D01*
X91740000Y-96820000D02*
X91439998Y-96820000D01*
X76262081Y-97400000D02*
X76202081Y-97460000D01*
X90859998Y-97400000D02*
X76262081Y-97400000D01*
%TO.N,LCD_SDA*%
X91740000Y-97880000D02*
X77120000Y-97880000D01*
X77120000Y-97880000D02*
X75000000Y-100000000D01*
%TO.N,LCD_DC*%
X78600000Y-98940000D02*
X75000000Y-102540000D01*
X91740000Y-98940000D02*
X78600000Y-98940000D01*
%TO.N,LCD_CS*%
X80080000Y-100000000D02*
X75000000Y-105080000D01*
X91740000Y-100000000D02*
X80080000Y-100000000D01*
%TO.N,LCD_RST*%
X81560000Y-101060000D02*
X75000000Y-107620000D01*
X91740000Y-101060000D02*
X81560000Y-101060000D01*
%TO.N,D-*%
X99525000Y-117329222D02*
X99525000Y-111175005D01*
X99250000Y-121722590D02*
X99517590Y-121455000D01*
X99517590Y-121455000D02*
X99982410Y-121455000D01*
X99250000Y-122375000D02*
X99250000Y-117604222D01*
X99250000Y-117604222D02*
X99525000Y-117329222D01*
X99250000Y-122375000D02*
X99250000Y-121722590D01*
X99525000Y-111175005D02*
X92589995Y-104240000D01*
X92589995Y-104240000D02*
X91740000Y-104240000D01*
X100250000Y-121722590D02*
X100250000Y-122375000D01*
X99982410Y-121455000D02*
X100250000Y-121722590D01*
%TO.N,D+*%
X95378867Y-124252000D02*
X94812500Y-123685633D01*
X94812500Y-123117893D02*
X94275000Y-122580394D01*
X95981133Y-124252000D02*
X95378867Y-124252000D01*
X94275000Y-107534998D02*
X92040002Y-105300000D01*
X94812500Y-123685633D02*
X94812500Y-123117893D01*
X100750000Y-123027410D02*
X100750000Y-122375000D01*
X99750000Y-123027410D02*
X98527410Y-124250000D01*
X95983133Y-124250000D02*
X95981133Y-124252000D01*
X98527410Y-124250000D02*
X95983133Y-124250000D01*
X100017590Y-123295000D02*
X100482410Y-123295000D01*
X99750000Y-122375000D02*
X99750000Y-123027410D01*
X99750000Y-123027410D02*
X100017590Y-123295000D01*
X94275000Y-122580394D02*
X94275000Y-107534998D01*
X100482410Y-123295000D02*
X100750000Y-123027410D01*
X92040002Y-105300000D02*
X91740000Y-105300000D01*
%TO.N,Net-(J1-CC1)*%
X98750000Y-116850000D02*
X98750000Y-122375000D01*
%TD*%
%TA.AperFunction,Conductor*%
%TO.N,GND*%
G36*
X101061609Y-71520313D02*
G01*
X101065239Y-71520448D01*
X102123541Y-71579757D01*
X102127203Y-71580032D01*
X103182517Y-71678786D01*
X103186119Y-71679190D01*
X104237080Y-71817262D01*
X104240718Y-71817810D01*
X105285723Y-71994988D01*
X105289299Y-71995662D01*
X106327051Y-72211728D01*
X106330584Y-72212534D01*
X107359500Y-72467159D01*
X107363015Y-72468099D01*
X108381733Y-72760945D01*
X108385208Y-72762014D01*
X109392286Y-73092668D01*
X109395733Y-73093872D01*
X109953111Y-73300217D01*
X110389731Y-73461857D01*
X110393170Y-73463203D01*
X111372768Y-73868032D01*
X111376100Y-73869482D01*
X112339920Y-74310587D01*
X112343208Y-74312167D01*
X113289858Y-74788907D01*
X113293127Y-74790630D01*
X114221344Y-75302371D01*
X114224545Y-75304215D01*
X115132986Y-75850212D01*
X115136117Y-75852174D01*
X116023565Y-76431697D01*
X116026620Y-76433774D01*
X116891826Y-77046008D01*
X116894802Y-77048198D01*
X117736591Y-77692312D01*
X117739448Y-77694584D01*
X117895149Y-77823212D01*
X118556601Y-78369650D01*
X118559405Y-78372056D01*
X118687987Y-78486614D01*
X119350814Y-79077152D01*
X119353483Y-79079621D01*
X120118013Y-79813740D01*
X120120630Y-79816348D01*
X120857241Y-80578491D01*
X120859758Y-80581195D01*
X121567396Y-81370267D01*
X121569811Y-81373063D01*
X122247530Y-82188011D01*
X122249837Y-82190894D01*
X122794388Y-82897782D01*
X122896654Y-83030534D01*
X122898848Y-83033494D01*
X122956913Y-83114987D01*
X123513907Y-83896718D01*
X123515995Y-83899767D01*
X124098409Y-84785329D01*
X124100381Y-84788453D01*
X124649340Y-85695122D01*
X124651194Y-85698317D01*
X125165943Y-86624843D01*
X125167677Y-86628106D01*
X125647493Y-87573189D01*
X125649099Y-87576505D01*
X125729885Y-87751514D01*
X126093332Y-88538867D01*
X126094817Y-88542250D01*
X126502805Y-89520458D01*
X126504164Y-89523894D01*
X126875386Y-90516692D01*
X126876615Y-90520176D01*
X127210530Y-91526123D01*
X127211628Y-91529651D01*
X127507768Y-92547338D01*
X127508734Y-92550904D01*
X127766701Y-93578954D01*
X127767533Y-93582554D01*
X127986952Y-94619478D01*
X127987650Y-94623106D01*
X128168235Y-95667555D01*
X128168796Y-95671207D01*
X128310276Y-96721615D01*
X128310701Y-96725285D01*
X128412891Y-97780281D01*
X128413178Y-97783965D01*
X128475929Y-98842000D01*
X128476079Y-98845691D01*
X128499308Y-99905353D01*
X128499320Y-99909048D01*
X128482993Y-100968837D01*
X128482867Y-100972530D01*
X128427008Y-102030951D01*
X128426745Y-102034636D01*
X128331426Y-103090271D01*
X128331025Y-103093944D01*
X128196387Y-104145278D01*
X128195849Y-104148933D01*
X128022079Y-105194474D01*
X128021406Y-105198107D01*
X127808735Y-106236490D01*
X127807926Y-106240095D01*
X127556661Y-107269797D01*
X127555718Y-107273369D01*
X127266213Y-108292956D01*
X127265138Y-108296491D01*
X126937777Y-109304608D01*
X126936570Y-109308100D01*
X126571841Y-110303239D01*
X126570506Y-110306684D01*
X126168869Y-111287596D01*
X126167405Y-111290988D01*
X125729473Y-112256172D01*
X125727884Y-112259508D01*
X125254222Y-113207716D01*
X125252509Y-113210990D01*
X124743818Y-114140825D01*
X124741985Y-114144033D01*
X124198931Y-115054277D01*
X124196979Y-115057414D01*
X123620344Y-115946751D01*
X123618276Y-115949813D01*
X123008865Y-116817003D01*
X123006685Y-116819985D01*
X122365349Y-117663824D01*
X122363059Y-117666724D01*
X121690660Y-118486070D01*
X121688263Y-118488882D01*
X120985766Y-119282560D01*
X120983266Y-119285280D01*
X120251660Y-120052176D01*
X120249061Y-120054801D01*
X119489336Y-120793877D01*
X119486640Y-120796404D01*
X118699850Y-121506631D01*
X118697061Y-121509055D01*
X117884350Y-122189402D01*
X117881473Y-122191720D01*
X117043922Y-122841283D01*
X117040961Y-122843493D01*
X116179760Y-123461348D01*
X116176719Y-123463445D01*
X115293051Y-124048745D01*
X115289933Y-124050727D01*
X114385065Y-124602630D01*
X114381875Y-124604495D01*
X113457022Y-125122263D01*
X113453765Y-125124007D01*
X112510259Y-125606893D01*
X112506939Y-125608515D01*
X111546061Y-126055863D01*
X111542683Y-126057360D01*
X110565762Y-126468551D01*
X110562331Y-126469920D01*
X109570785Y-126844358D01*
X109567305Y-126845599D01*
X108562442Y-127182790D01*
X108558917Y-127183900D01*
X107542176Y-127483360D01*
X107538613Y-127484337D01*
X106511434Y-127745643D01*
X106507837Y-127746487D01*
X105471601Y-127969289D01*
X105467975Y-127969998D01*
X104465256Y-128146732D01*
X104448072Y-128148235D01*
X95551928Y-128148235D01*
X95534744Y-128146732D01*
X94532024Y-127969998D01*
X94528398Y-127969289D01*
X93492162Y-127746487D01*
X93488565Y-127745643D01*
X92461386Y-127484337D01*
X92457823Y-127483360D01*
X91441082Y-127183900D01*
X91437559Y-127182790D01*
X91398258Y-127169603D01*
X91349105Y-127133167D01*
X91330756Y-127074798D01*
X91350219Y-127016791D01*
X91379353Y-126990534D01*
X91501866Y-126918081D01*
X91618082Y-126801865D01*
X91639788Y-126765160D01*
X91685680Y-126724700D01*
X91746593Y-126718941D01*
X91799259Y-126750085D01*
X91810213Y-126765161D01*
X91831920Y-126801865D01*
X91948136Y-126918081D01*
X92089603Y-127001744D01*
X92247432Y-127047598D01*
X92284307Y-127050500D01*
X92284312Y-127050500D01*
X93440690Y-127050500D01*
X93440695Y-127050500D01*
X93477570Y-127047598D01*
X93635399Y-127001744D01*
X93776866Y-126918081D01*
X93893082Y-126801865D01*
X93976745Y-126660398D01*
X94022599Y-126502569D01*
X94025501Y-126465694D01*
X94025501Y-126351500D01*
X94044408Y-126293309D01*
X94093908Y-126257345D01*
X94124501Y-126252500D01*
X101011789Y-126252500D01*
X101011790Y-126252500D01*
X101166445Y-126221737D01*
X101312127Y-126161394D01*
X101443237Y-126073789D01*
X101762530Y-125754496D01*
X101817047Y-125726719D01*
X101832534Y-125725500D01*
X104503841Y-125725500D01*
X104503842Y-125725500D01*
X104658497Y-125694737D01*
X104804179Y-125634394D01*
X104935289Y-125546789D01*
X105941789Y-124540289D01*
X106029394Y-124409179D01*
X106089737Y-124263497D01*
X106107241Y-124175500D01*
X106120500Y-124108843D01*
X106120500Y-123951158D01*
X106120500Y-117239197D01*
X106139407Y-117181006D01*
X106149490Y-117169199D01*
X106220340Y-117098350D01*
X106310908Y-116951516D01*
X106365174Y-116787753D01*
X106375500Y-116686677D01*
X106375499Y-116113324D01*
X106375499Y-116113323D01*
X106375499Y-116113315D01*
X106365175Y-116012255D01*
X106365174Y-116012253D01*
X106365174Y-116012247D01*
X106310908Y-115848484D01*
X106220340Y-115701650D01*
X106220339Y-115701649D01*
X106149496Y-115630805D01*
X106121719Y-115576288D01*
X106120500Y-115560802D01*
X106120500Y-114878710D01*
X113149500Y-114878710D01*
X113149500Y-115121289D01*
X113181161Y-115361781D01*
X113181161Y-115361786D01*
X113243944Y-115596092D01*
X113243948Y-115596105D01*
X113336772Y-115820204D01*
X113336774Y-115820208D01*
X113336776Y-115820212D01*
X113450484Y-116017160D01*
X113458066Y-116030292D01*
X113605729Y-116222731D01*
X113605731Y-116222733D01*
X113605735Y-116222738D01*
X113777262Y-116394265D01*
X113777266Y-116394268D01*
X113777268Y-116394270D01*
X113849578Y-116449755D01*
X113969711Y-116541936D01*
X114179788Y-116663224D01*
X114403900Y-116756054D01*
X114638211Y-116818838D01*
X114878712Y-116850500D01*
X114878713Y-116850500D01*
X115121287Y-116850500D01*
X115121288Y-116850500D01*
X115361789Y-116818838D01*
X115596100Y-116756054D01*
X115820212Y-116663224D01*
X116030289Y-116541936D01*
X116222738Y-116394265D01*
X116394265Y-116222738D01*
X116541936Y-116030289D01*
X116663224Y-115820212D01*
X116756054Y-115596100D01*
X116818838Y-115361789D01*
X116850500Y-115121288D01*
X116850500Y-114878712D01*
X116818838Y-114638211D01*
X116756054Y-114403900D01*
X116663224Y-114179788D01*
X116541936Y-113969711D01*
X116394265Y-113777262D01*
X116222738Y-113605735D01*
X116222733Y-113605731D01*
X116222731Y-113605729D01*
X116030292Y-113458066D01*
X116030289Y-113458064D01*
X115820212Y-113336776D01*
X115820208Y-113336774D01*
X115820204Y-113336772D01*
X115596105Y-113243948D01*
X115596104Y-113243947D01*
X115596100Y-113243946D01*
X115361789Y-113181162D01*
X115361786Y-113181161D01*
X115361784Y-113181161D01*
X115121289Y-113149500D01*
X115121288Y-113149500D01*
X114878712Y-113149500D01*
X114878710Y-113149500D01*
X114638218Y-113181161D01*
X114638213Y-113181161D01*
X114403907Y-113243944D01*
X114403894Y-113243948D01*
X114179795Y-113336772D01*
X113969707Y-113458066D01*
X113777268Y-113605729D01*
X113605729Y-113777268D01*
X113458066Y-113969707D01*
X113336772Y-114179795D01*
X113243948Y-114403894D01*
X113243944Y-114403907D01*
X113181161Y-114638213D01*
X113181161Y-114638218D01*
X113149500Y-114878710D01*
X106120500Y-114878710D01*
X106120500Y-111089606D01*
X106139407Y-111031415D01*
X106188907Y-110995451D01*
X106219500Y-110990606D01*
X111373287Y-110990606D01*
X111373303Y-110990607D01*
X111379366Y-110990607D01*
X111537478Y-110990607D01*
X111537480Y-110990607D01*
X111690208Y-110949683D01*
X111775575Y-110900396D01*
X111827139Y-110870626D01*
X111938943Y-110758822D01*
X111938943Y-110758820D01*
X111947093Y-110750671D01*
X111947094Y-110750668D01*
X112780520Y-109917245D01*
X112859577Y-109780313D01*
X112900501Y-109627586D01*
X112900501Y-109469471D01*
X112900501Y-109463409D01*
X112900500Y-109463391D01*
X112900500Y-104320944D01*
X112900499Y-104320940D01*
X112895655Y-104302860D01*
X112895655Y-104302861D01*
X112859577Y-104168215D01*
X112808357Y-104079500D01*
X112780520Y-104031284D01*
X112668716Y-103919480D01*
X112668713Y-103919478D01*
X112619238Y-103870003D01*
X112591461Y-103815486D01*
X112601032Y-103755054D01*
X112619232Y-103730002D01*
X113802130Y-102547104D01*
X113802133Y-102547103D01*
X113913937Y-102435299D01*
X113986628Y-102309394D01*
X113992994Y-102298368D01*
X114033918Y-102145640D01*
X114033918Y-101987526D01*
X114033918Y-101981464D01*
X114033917Y-101981446D01*
X114033917Y-96587547D01*
X114033918Y-96587534D01*
X114033918Y-96421448D01*
X114033918Y-96421446D01*
X113992994Y-96268718D01*
X113963999Y-96218497D01*
X113963999Y-96218496D01*
X113935254Y-96168709D01*
X113913937Y-96131787D01*
X113802133Y-96019983D01*
X113802130Y-96019981D01*
X113751653Y-95969504D01*
X113723876Y-95914987D01*
X113733447Y-95854555D01*
X113776712Y-95811290D01*
X113821657Y-95800500D01*
X115139052Y-95800500D01*
X115197243Y-95819407D01*
X115223313Y-95847528D01*
X115254657Y-95898346D01*
X115254658Y-95898347D01*
X115254660Y-95898350D01*
X115376650Y-96020340D01*
X115376652Y-96020341D01*
X115376653Y-96020342D01*
X115503118Y-96098346D01*
X115523484Y-96110908D01*
X115687247Y-96165174D01*
X115687251Y-96165174D01*
X115687253Y-96165175D01*
X115755905Y-96172188D01*
X115788323Y-96175500D01*
X116486676Y-96175499D01*
X116486684Y-96175499D01*
X116587744Y-96165175D01*
X116587744Y-96165174D01*
X116587753Y-96165174D01*
X116751516Y-96110908D01*
X116898350Y-96020340D01*
X117020340Y-95898350D01*
X117110908Y-95751516D01*
X117165174Y-95587753D01*
X117175500Y-95486677D01*
X117175499Y-94913324D01*
X117175499Y-94913315D01*
X117165175Y-94812255D01*
X117165174Y-94812253D01*
X117165174Y-94812247D01*
X117110908Y-94648484D01*
X117105936Y-94640423D01*
X117020342Y-94501653D01*
X117020341Y-94501652D01*
X117020340Y-94501650D01*
X116988691Y-94470001D01*
X116960916Y-94415487D01*
X116970487Y-94355055D01*
X116988690Y-94329999D01*
X117020340Y-94298350D01*
X117110908Y-94151516D01*
X117165174Y-93987753D01*
X117175500Y-93886677D01*
X117175499Y-93313324D01*
X117175499Y-93313315D01*
X117165175Y-93212255D01*
X117165174Y-93212253D01*
X117165174Y-93212247D01*
X117110908Y-93048484D01*
X117109964Y-93046953D01*
X117020342Y-92901653D01*
X117020341Y-92901652D01*
X117020340Y-92901650D01*
X116898350Y-92779660D01*
X116898347Y-92779658D01*
X116898346Y-92779657D01*
X116751520Y-92689094D01*
X116751514Y-92689091D01*
X116587756Y-92634827D01*
X116587746Y-92634824D01*
X116486684Y-92624500D01*
X115788315Y-92624500D01*
X115687255Y-92634824D01*
X115687243Y-92634827D01*
X115523485Y-92689091D01*
X115523479Y-92689094D01*
X115376653Y-92779657D01*
X115254657Y-92901653D01*
X115223313Y-92952472D01*
X115176672Y-92992074D01*
X115139052Y-92999500D01*
X113362000Y-92999500D01*
X113303809Y-92980593D01*
X113267845Y-92931093D01*
X113263000Y-92900500D01*
X113263000Y-92574498D01*
X113281907Y-92516307D01*
X113310026Y-92490238D01*
X113423350Y-92420340D01*
X113545340Y-92298350D01*
X113635908Y-92151516D01*
X113690174Y-91987753D01*
X113700500Y-91886677D01*
X113700499Y-91313324D01*
X113700499Y-91313315D01*
X113690175Y-91212255D01*
X113690174Y-91212253D01*
X113690174Y-91212247D01*
X113635908Y-91048484D01*
X113556350Y-90919500D01*
X113545342Y-90901653D01*
X113545341Y-90901652D01*
X113545340Y-90901650D01*
X113513691Y-90870001D01*
X113485916Y-90815487D01*
X113495487Y-90755055D01*
X113513690Y-90729999D01*
X113545340Y-90698350D01*
X113635908Y-90551516D01*
X113690174Y-90387753D01*
X113700500Y-90286677D01*
X113700499Y-89713324D01*
X113700499Y-89713315D01*
X113690175Y-89612255D01*
X113690174Y-89612253D01*
X113690174Y-89612247D01*
X113635908Y-89448484D01*
X113567825Y-89338104D01*
X113545342Y-89301653D01*
X113545341Y-89301652D01*
X113545340Y-89301650D01*
X113423350Y-89179660D01*
X113423347Y-89179658D01*
X113423346Y-89179657D01*
X113276520Y-89089094D01*
X113276514Y-89089091D01*
X113112756Y-89034827D01*
X113112753Y-89034826D01*
X113112750Y-89034825D01*
X113112747Y-89034825D01*
X113046221Y-89028028D01*
X112990254Y-89003304D01*
X112986280Y-88999545D01*
X108865445Y-84878710D01*
X113149500Y-84878710D01*
X113149500Y-85121289D01*
X113181161Y-85361781D01*
X113181161Y-85361786D01*
X113243944Y-85596092D01*
X113243948Y-85596105D01*
X113336772Y-85820204D01*
X113336774Y-85820208D01*
X113336776Y-85820212D01*
X113458064Y-86030289D01*
X113458066Y-86030292D01*
X113605729Y-86222731D01*
X113605731Y-86222733D01*
X113605735Y-86222738D01*
X113777262Y-86394265D01*
X113777266Y-86394268D01*
X113777268Y-86394270D01*
X113917209Y-86501650D01*
X113969711Y-86541936D01*
X114179788Y-86663224D01*
X114403900Y-86756054D01*
X114638211Y-86818838D01*
X114878712Y-86850500D01*
X114878713Y-86850500D01*
X115121287Y-86850500D01*
X115121288Y-86850500D01*
X115361789Y-86818838D01*
X115596100Y-86756054D01*
X115820212Y-86663224D01*
X116030289Y-86541936D01*
X116222738Y-86394265D01*
X116394265Y-86222738D01*
X116541936Y-86030289D01*
X116663224Y-85820212D01*
X116756054Y-85596100D01*
X116818838Y-85361789D01*
X116850500Y-85121288D01*
X116850500Y-84878712D01*
X116818838Y-84638211D01*
X116756054Y-84403900D01*
X116663224Y-84179788D01*
X116541936Y-83969711D01*
X116440098Y-83836993D01*
X116394270Y-83777268D01*
X116394268Y-83777266D01*
X116394265Y-83777262D01*
X116222738Y-83605735D01*
X116222733Y-83605731D01*
X116222731Y-83605729D01*
X116030292Y-83458066D01*
X116030289Y-83458064D01*
X115820212Y-83336776D01*
X115820208Y-83336774D01*
X115820204Y-83336772D01*
X115596105Y-83243948D01*
X115596104Y-83243947D01*
X115596100Y-83243946D01*
X115361789Y-83181162D01*
X115361786Y-83181161D01*
X115361784Y-83181161D01*
X115121289Y-83149500D01*
X115121288Y-83149500D01*
X114878712Y-83149500D01*
X114878710Y-83149500D01*
X114638218Y-83181161D01*
X114638213Y-83181161D01*
X114403907Y-83243944D01*
X114403894Y-83243948D01*
X114179795Y-83336772D01*
X113969707Y-83458066D01*
X113777268Y-83605729D01*
X113605729Y-83777268D01*
X113458066Y-83969707D01*
X113336772Y-84179795D01*
X113243948Y-84403894D01*
X113243944Y-84403907D01*
X113181161Y-84638213D01*
X113181161Y-84638218D01*
X113149500Y-84878710D01*
X108865445Y-84878710D01*
X104718021Y-80731286D01*
X104718020Y-80731284D01*
X104606216Y-80619480D01*
X104519404Y-80569360D01*
X104519403Y-80569359D01*
X104469288Y-80540425D01*
X104469285Y-80540423D01*
X104316557Y-80499499D01*
X104158443Y-80499499D01*
X104152380Y-80499499D01*
X104152364Y-80499500D01*
X101994313Y-80499500D01*
X101836198Y-80499500D01*
X101742725Y-80524545D01*
X101683466Y-80540424D01*
X101633351Y-80569359D01*
X101546540Y-80619479D01*
X101434735Y-80731283D01*
X101434736Y-80731284D01*
X101434734Y-80731286D01*
X101231286Y-80934734D01*
X101231284Y-80934736D01*
X101231283Y-80934735D01*
X101119479Y-81046540D01*
X101069359Y-81133351D01*
X101040425Y-81183465D01*
X101040423Y-81183469D01*
X101040423Y-81183471D01*
X100999499Y-81336199D01*
X100999499Y-81336201D01*
X100999499Y-81502287D01*
X100999500Y-81502300D01*
X100999500Y-83681585D01*
X100999499Y-83681603D01*
X100999499Y-83687665D01*
X100999499Y-83845779D01*
X101032706Y-83969707D01*
X101040423Y-83998506D01*
X101040425Y-83998510D01*
X101069360Y-84048627D01*
X101069361Y-84048627D01*
X101119480Y-84135438D01*
X101231284Y-84247242D01*
X101231286Y-84247243D01*
X102264539Y-85280496D01*
X102292316Y-85335013D01*
X102282745Y-85395445D01*
X102239480Y-85438710D01*
X102194536Y-85449500D01*
X102099983Y-85449500D01*
X101997211Y-85459999D01*
X101997199Y-85460002D01*
X101830663Y-85515187D01*
X101681347Y-85607285D01*
X101557285Y-85731347D01*
X101465187Y-85880663D01*
X101410000Y-86047205D01*
X101399500Y-86149983D01*
X101399500Y-87750016D01*
X101409999Y-87852788D01*
X101410000Y-87852795D01*
X101410001Y-87852797D01*
X101458887Y-88000326D01*
X101465187Y-88019336D01*
X101557285Y-88168652D01*
X101557286Y-88168653D01*
X101557288Y-88168656D01*
X101681344Y-88292712D01*
X101830666Y-88384814D01*
X101997203Y-88439999D01*
X102099991Y-88450500D01*
X102750008Y-88450499D01*
X102750016Y-88450499D01*
X102852788Y-88440000D01*
X102852788Y-88439999D01*
X102852797Y-88439999D01*
X102954795Y-88406199D01*
X103015975Y-88405844D01*
X103055936Y-88430171D01*
X103594478Y-88968713D01*
X103594480Y-88968716D01*
X103706284Y-89080520D01*
X103843216Y-89159577D01*
X103955019Y-89189534D01*
X103995942Y-89200500D01*
X103995943Y-89200500D01*
X105828348Y-89200500D01*
X105885647Y-89219117D01*
X105885668Y-89219087D01*
X105885775Y-89219159D01*
X105886539Y-89219407D01*
X105889044Y-89221343D01*
X105889710Y-89221788D01*
X105889711Y-89221789D01*
X105966391Y-89273025D01*
X105968811Y-89274642D01*
X106006690Y-89322692D01*
X106009092Y-89383830D01*
X105983813Y-89426960D01*
X105919482Y-89491291D01*
X105919480Y-89491293D01*
X105919480Y-89491294D01*
X105849651Y-89612243D01*
X105840423Y-89628226D01*
X105799500Y-89780954D01*
X105799500Y-96374851D01*
X105799499Y-96374869D01*
X105799499Y-96380931D01*
X105799499Y-96539045D01*
X105840423Y-96691773D01*
X105858714Y-96723453D01*
X105858715Y-96723457D01*
X105919478Y-96828701D01*
X105919480Y-96828704D01*
X106031284Y-96940508D01*
X106031286Y-96940509D01*
X107339490Y-98248713D01*
X107339492Y-98248716D01*
X107451296Y-98360520D01*
X107451298Y-98360521D01*
X107451299Y-98360522D01*
X107454316Y-98362264D01*
X107455987Y-98364120D01*
X107456447Y-98364473D01*
X107456381Y-98364558D01*
X107495258Y-98407731D01*
X107501656Y-98468581D01*
X107487135Y-98503003D01*
X107468238Y-98531283D01*
X107468237Y-98531286D01*
X107459505Y-98575179D01*
X107459505Y-99304820D01*
X107468237Y-99348713D01*
X107468238Y-99348715D01*
X107501501Y-99398497D01*
X107501504Y-99398499D01*
X107503001Y-99399996D01*
X107504601Y-99403136D01*
X107506918Y-99406604D01*
X107506507Y-99406878D01*
X107530778Y-99454513D01*
X107521207Y-99514945D01*
X107503001Y-99540004D01*
X107501499Y-99541505D01*
X107468239Y-99591282D01*
X107468237Y-99591286D01*
X107459505Y-99635179D01*
X107459505Y-100364820D01*
X107468237Y-100408713D01*
X107468238Y-100408715D01*
X107501501Y-100458497D01*
X107501504Y-100458499D01*
X107503001Y-100459996D01*
X107504601Y-100463136D01*
X107506918Y-100466604D01*
X107506507Y-100466878D01*
X107530778Y-100514513D01*
X107521207Y-100574945D01*
X107503001Y-100600004D01*
X107501499Y-100601505D01*
X107468239Y-100651282D01*
X107468237Y-100651286D01*
X107459505Y-100695179D01*
X107459505Y-101424820D01*
X107468237Y-101468713D01*
X107468238Y-101468715D01*
X107501501Y-101518497D01*
X107501504Y-101518499D01*
X107503001Y-101519996D01*
X107504601Y-101523136D01*
X107506918Y-101526604D01*
X107506507Y-101526878D01*
X107530778Y-101574513D01*
X107521207Y-101634945D01*
X107503001Y-101660004D01*
X107501499Y-101661505D01*
X107468239Y-101711282D01*
X107468237Y-101711286D01*
X107459505Y-101755179D01*
X107459505Y-102484820D01*
X107468237Y-102528713D01*
X107468239Y-102528717D01*
X107501057Y-102577833D01*
X107501501Y-102578497D01*
X107501504Y-102578499D01*
X107503001Y-102579996D01*
X107504601Y-102583136D01*
X107506918Y-102586604D01*
X107506507Y-102586878D01*
X107530778Y-102634513D01*
X107521207Y-102694945D01*
X107503001Y-102720004D01*
X107501499Y-102721505D01*
X107468239Y-102771282D01*
X107468237Y-102771286D01*
X107459505Y-102815179D01*
X107459505Y-103544820D01*
X107468237Y-103588713D01*
X107468238Y-103588715D01*
X107501501Y-103638497D01*
X107501504Y-103638499D01*
X107503001Y-103639996D01*
X107504601Y-103643136D01*
X107506918Y-103646604D01*
X107506507Y-103646878D01*
X107530778Y-103694513D01*
X107521207Y-103754945D01*
X107503001Y-103780004D01*
X107501499Y-103781505D01*
X107468239Y-103831282D01*
X107468237Y-103831286D01*
X107459505Y-103875179D01*
X107459505Y-104604820D01*
X107468237Y-104648713D01*
X107468238Y-104648715D01*
X107501501Y-104698497D01*
X107501504Y-104698499D01*
X107503001Y-104699996D01*
X107504601Y-104703136D01*
X107506918Y-104706604D01*
X107506507Y-104706878D01*
X107530778Y-104754513D01*
X107521207Y-104814945D01*
X107503001Y-104840004D01*
X107501499Y-104841505D01*
X107468239Y-104891282D01*
X107468237Y-104891286D01*
X107459505Y-104935179D01*
X107459505Y-105664820D01*
X107468237Y-105708713D01*
X107468238Y-105708715D01*
X107501501Y-105758497D01*
X107501504Y-105758499D01*
X107503001Y-105759996D01*
X107504601Y-105763136D01*
X107506918Y-105766604D01*
X107506507Y-105766878D01*
X107530778Y-105814513D01*
X107521207Y-105874945D01*
X107503001Y-105900004D01*
X107501499Y-105901505D01*
X107468239Y-105951282D01*
X107468237Y-105951286D01*
X107459505Y-105995179D01*
X107459505Y-106724820D01*
X107468237Y-106768713D01*
X107468239Y-106768717D01*
X107484100Y-106792455D01*
X107501501Y-106818497D01*
X107501504Y-106818499D01*
X107503001Y-106819996D01*
X107504601Y-106823136D01*
X107506918Y-106826604D01*
X107506507Y-106826878D01*
X107530778Y-106874513D01*
X107521207Y-106934945D01*
X107503001Y-106960004D01*
X107501499Y-106961505D01*
X107468239Y-107011282D01*
X107468237Y-107011286D01*
X107459505Y-107055179D01*
X107459505Y-107784820D01*
X107468237Y-107828713D01*
X107468238Y-107828715D01*
X107501501Y-107878497D01*
X107501504Y-107878499D01*
X107503001Y-107879996D01*
X107504601Y-107883136D01*
X107506918Y-107886604D01*
X107506507Y-107886878D01*
X107530778Y-107934513D01*
X107521207Y-107994945D01*
X107503001Y-108020004D01*
X107501499Y-108021505D01*
X107468239Y-108071282D01*
X107468237Y-108071286D01*
X107459505Y-108115179D01*
X107459505Y-108844820D01*
X107468237Y-108888713D01*
X107468238Y-108888715D01*
X107501501Y-108938497D01*
X107501504Y-108938499D01*
X107503001Y-108939996D01*
X107504601Y-108943136D01*
X107506918Y-108946604D01*
X107506507Y-108946878D01*
X107530778Y-108994513D01*
X107521207Y-109054945D01*
X107503001Y-109080004D01*
X107501499Y-109081505D01*
X107468239Y-109131282D01*
X107468237Y-109131286D01*
X107459505Y-109175179D01*
X107459505Y-109690606D01*
X107440598Y-109748797D01*
X107391098Y-109784761D01*
X107360505Y-109789606D01*
X105892586Y-109789606D01*
X105834395Y-109770699D01*
X105822582Y-109760610D01*
X93719491Y-97657519D01*
X93691714Y-97603002D01*
X93690495Y-97587515D01*
X93690495Y-91651166D01*
X93690494Y-91651162D01*
X93681058Y-91603725D01*
X93680130Y-91599057D01*
X93659733Y-91496510D01*
X93599389Y-91350828D01*
X93511784Y-91219718D01*
X93190277Y-90898211D01*
X93138047Y-90863312D01*
X93059173Y-90810609D01*
X93059162Y-90810603D01*
X92913485Y-90750263D01*
X92758832Y-90719500D01*
X92758830Y-90719500D01*
X91661158Y-90719500D01*
X91661155Y-90719500D01*
X91506504Y-90750262D01*
X91451392Y-90773090D01*
X91390395Y-90777889D01*
X91338227Y-90745919D01*
X91314813Y-90689391D01*
X91319532Y-90650489D01*
X91365174Y-90512753D01*
X91375500Y-90411677D01*
X91375499Y-89713324D01*
X91375499Y-89713315D01*
X91365175Y-89612255D01*
X91365174Y-89612253D01*
X91365174Y-89612247D01*
X91310908Y-89448484D01*
X91242825Y-89338104D01*
X91220342Y-89301653D01*
X91220341Y-89301652D01*
X91220340Y-89301650D01*
X91098350Y-89179660D01*
X91098347Y-89179658D01*
X91098346Y-89179657D01*
X90951520Y-89089094D01*
X90951514Y-89089091D01*
X90787756Y-89034827D01*
X90787746Y-89034824D01*
X90686684Y-89024500D01*
X90113315Y-89024500D01*
X90012255Y-89034824D01*
X90012243Y-89034827D01*
X89848485Y-89089091D01*
X89848479Y-89089094D01*
X89701653Y-89179657D01*
X89670003Y-89211307D01*
X89615486Y-89239083D01*
X89555054Y-89229511D01*
X89529997Y-89211307D01*
X89519190Y-89200500D01*
X89498350Y-89179660D01*
X89498347Y-89179658D01*
X89498346Y-89179657D01*
X89351520Y-89089094D01*
X89351514Y-89089091D01*
X89187756Y-89034827D01*
X89187746Y-89034824D01*
X89086684Y-89024500D01*
X88513315Y-89024500D01*
X88412255Y-89034824D01*
X88412243Y-89034827D01*
X88248485Y-89089091D01*
X88248479Y-89089094D01*
X88101653Y-89179657D01*
X87979655Y-89301655D01*
X87977652Y-89304189D01*
X87976065Y-89305245D01*
X87975583Y-89305728D01*
X87975486Y-89305631D01*
X87926726Y-89338104D01*
X87865592Y-89335608D01*
X87824439Y-89305706D01*
X87824417Y-89305729D01*
X87824274Y-89305586D01*
X87822340Y-89304181D01*
X87820342Y-89301654D01*
X87820341Y-89301653D01*
X87820340Y-89301651D01*
X87698350Y-89179661D01*
X87698347Y-89179659D01*
X87698346Y-89179658D01*
X87551520Y-89089095D01*
X87551514Y-89089092D01*
X87387756Y-89034828D01*
X87387746Y-89034825D01*
X87286684Y-89024501D01*
X86713315Y-89024501D01*
X86612255Y-89034825D01*
X86612243Y-89034828D01*
X86448485Y-89089092D01*
X86448479Y-89089095D01*
X86301653Y-89179658D01*
X86179657Y-89301654D01*
X86089094Y-89448480D01*
X86089091Y-89448486D01*
X86034827Y-89612244D01*
X86034824Y-89612254D01*
X86024500Y-89713316D01*
X86024500Y-90411685D01*
X86034824Y-90512745D01*
X86034827Y-90512757D01*
X86073516Y-90629514D01*
X86089092Y-90676517D01*
X86145845Y-90768528D01*
X86160301Y-90827980D01*
X86137051Y-90884576D01*
X86084975Y-90916697D01*
X86061584Y-90919500D01*
X75945137Y-90919500D01*
X75945121Y-90919499D01*
X75939058Y-90919499D01*
X75780943Y-90919499D01*
X75780940Y-90919499D01*
X75628219Y-90960421D01*
X75628215Y-90960423D01*
X75531541Y-91016237D01*
X75482042Y-91029500D01*
X74102133Y-91029500D01*
X74102129Y-91029500D01*
X74102128Y-91029501D01*
X74094949Y-91030272D01*
X74042519Y-91035908D01*
X74042514Y-91035909D01*
X73907670Y-91086202D01*
X73792458Y-91172450D01*
X73792450Y-91172458D01*
X73706202Y-91287670D01*
X73655910Y-91422511D01*
X73655908Y-91422522D01*
X73649500Y-91482129D01*
X73649500Y-93277866D01*
X73649501Y-93277870D01*
X73655908Y-93337480D01*
X73655909Y-93337485D01*
X73706202Y-93472329D01*
X73756825Y-93539952D01*
X73792454Y-93587546D01*
X73792457Y-93587548D01*
X73792458Y-93587549D01*
X73907670Y-93673797D01*
X74042511Y-93724089D01*
X74042512Y-93724089D01*
X74042517Y-93724091D01*
X74102127Y-93730500D01*
X75897872Y-93730499D01*
X75957483Y-93724091D01*
X76024907Y-93698943D01*
X76092329Y-93673797D01*
X76092329Y-93673796D01*
X76092331Y-93673796D01*
X76207546Y-93587546D01*
X76250497Y-93530170D01*
X76300505Y-93494918D01*
X76329750Y-93490500D01*
X76339052Y-93490500D01*
X76397243Y-93509407D01*
X76423313Y-93537528D01*
X76454657Y-93588346D01*
X76454658Y-93588347D01*
X76454660Y-93588350D01*
X76576650Y-93710340D01*
X76689973Y-93780238D01*
X76729574Y-93826878D01*
X76737000Y-93864498D01*
X76737000Y-94425501D01*
X76718093Y-94483692D01*
X76689973Y-94509761D01*
X76674538Y-94519282D01*
X76576651Y-94579659D01*
X76454657Y-94701653D01*
X76364094Y-94848479D01*
X76364091Y-94848485D01*
X76309827Y-95012243D01*
X76309824Y-95012253D01*
X76299500Y-95113315D01*
X76299500Y-95686684D01*
X76309824Y-95787744D01*
X76309827Y-95787756D01*
X76364091Y-95951514D01*
X76364094Y-95951520D01*
X76454657Y-96098346D01*
X76454658Y-96098347D01*
X76454660Y-96098350D01*
X76576650Y-96220340D01*
X76576652Y-96220341D01*
X76576653Y-96220342D01*
X76723479Y-96310905D01*
X76723484Y-96310908D01*
X76887247Y-96365174D01*
X76887251Y-96365174D01*
X76887253Y-96365175D01*
X76955905Y-96372188D01*
X76988323Y-96375500D01*
X77686676Y-96375499D01*
X77686684Y-96375499D01*
X77787744Y-96365175D01*
X77787744Y-96365174D01*
X77787753Y-96365174D01*
X77951516Y-96310908D01*
X78098350Y-96220340D01*
X78129998Y-96188691D01*
X78184513Y-96160916D01*
X78244945Y-96170487D01*
X78270000Y-96188690D01*
X78301650Y-96220340D01*
X78301652Y-96220341D01*
X78301653Y-96220342D01*
X78448479Y-96310905D01*
X78448484Y-96310908D01*
X78612247Y-96365174D01*
X78612251Y-96365174D01*
X78612253Y-96365175D01*
X78680905Y-96372188D01*
X78713323Y-96375500D01*
X79147755Y-96375499D01*
X79205946Y-96394406D01*
X79217759Y-96404495D01*
X79443760Y-96630496D01*
X79471537Y-96685013D01*
X79461966Y-96745445D01*
X79418701Y-96788710D01*
X79373756Y-96799500D01*
X76347217Y-96799500D01*
X76347201Y-96799499D01*
X76341138Y-96799499D01*
X76239488Y-96799499D01*
X76181297Y-96780592D01*
X76157702Y-96755064D01*
X76157337Y-96755330D01*
X76155094Y-96752242D01*
X76155072Y-96752219D01*
X76155054Y-96752190D01*
X76155051Y-96752184D01*
X76150155Y-96745445D01*
X76030108Y-96580213D01*
X76030106Y-96580211D01*
X76030104Y-96580208D01*
X75879792Y-96429896D01*
X75879788Y-96429893D01*
X75879786Y-96429891D01*
X75707819Y-96304950D01*
X75707815Y-96304948D01*
X75518412Y-96208443D01*
X75316238Y-96142752D01*
X75106290Y-96109500D01*
X75106287Y-96109500D01*
X74893713Y-96109500D01*
X74893710Y-96109500D01*
X74683761Y-96142752D01*
X74481587Y-96208443D01*
X74292184Y-96304948D01*
X74292180Y-96304950D01*
X74120213Y-96429891D01*
X73969891Y-96580213D01*
X73844950Y-96752180D01*
X73844948Y-96752184D01*
X73748443Y-96941587D01*
X73682752Y-97143761D01*
X73649500Y-97353709D01*
X73649500Y-97566290D01*
X73682752Y-97776238D01*
X73748443Y-97978412D01*
X73844948Y-98167815D01*
X73844950Y-98167819D01*
X73969891Y-98339786D01*
X73969893Y-98339788D01*
X73969896Y-98339792D01*
X74120208Y-98490104D01*
X74120211Y-98490106D01*
X74120213Y-98490108D01*
X74292180Y-98615049D01*
X74292184Y-98615051D01*
X74344662Y-98641790D01*
X74387927Y-98685055D01*
X74397498Y-98745487D01*
X74369720Y-98800004D01*
X74344662Y-98818210D01*
X74292184Y-98844948D01*
X74292180Y-98844950D01*
X74120213Y-98969891D01*
X73969891Y-99120213D01*
X73844950Y-99292180D01*
X73844948Y-99292184D01*
X73748443Y-99481587D01*
X73682752Y-99683761D01*
X73649500Y-99893709D01*
X73649500Y-100106290D01*
X73682752Y-100316238D01*
X73748443Y-100518412D01*
X73844948Y-100707815D01*
X73844950Y-100707819D01*
X73969891Y-100879786D01*
X73969893Y-100879788D01*
X73969896Y-100879792D01*
X74120208Y-101030104D01*
X74120211Y-101030106D01*
X74120213Y-101030108D01*
X74292180Y-101155049D01*
X74292184Y-101155051D01*
X74344662Y-101181790D01*
X74387927Y-101225055D01*
X74397498Y-101285487D01*
X74369720Y-101340004D01*
X74344662Y-101358210D01*
X74292184Y-101384948D01*
X74292180Y-101384950D01*
X74120213Y-101509891D01*
X73969891Y-101660213D01*
X73844950Y-101832180D01*
X73844948Y-101832184D01*
X73748443Y-102021587D01*
X73682752Y-102223761D01*
X73649500Y-102433709D01*
X73649500Y-102646290D01*
X73682752Y-102856238D01*
X73748443Y-103058412D01*
X73844948Y-103247815D01*
X73844950Y-103247819D01*
X73969891Y-103419786D01*
X73969893Y-103419788D01*
X73969896Y-103419792D01*
X74120208Y-103570104D01*
X74120211Y-103570106D01*
X74120213Y-103570108D01*
X74292180Y-103695049D01*
X74292182Y-103695050D01*
X74344662Y-103721790D01*
X74387927Y-103765055D01*
X74397498Y-103825487D01*
X74369720Y-103880004D01*
X74344662Y-103898210D01*
X74292184Y-103924948D01*
X74292180Y-103924950D01*
X74120213Y-104049891D01*
X73969891Y-104200213D01*
X73844950Y-104372180D01*
X73844948Y-104372184D01*
X73748443Y-104561587D01*
X73682752Y-104763761D01*
X73649500Y-104973709D01*
X73649500Y-105186290D01*
X73682752Y-105396238D01*
X73748443Y-105598412D01*
X73844948Y-105787815D01*
X73844950Y-105787819D01*
X73969891Y-105959786D01*
X73969893Y-105959788D01*
X73969896Y-105959792D01*
X74120208Y-106110104D01*
X74120211Y-106110106D01*
X74120213Y-106110108D01*
X74292180Y-106235049D01*
X74292184Y-106235051D01*
X74344662Y-106261790D01*
X74387927Y-106305055D01*
X74397498Y-106365487D01*
X74369720Y-106420004D01*
X74344662Y-106438210D01*
X74292184Y-106464948D01*
X74292180Y-106464950D01*
X74120213Y-106589891D01*
X73969891Y-106740213D01*
X73844950Y-106912180D01*
X73844948Y-106912184D01*
X73748443Y-107101587D01*
X73682752Y-107303761D01*
X73649500Y-107513709D01*
X73649500Y-107726290D01*
X73682752Y-107936238D01*
X73748443Y-108138412D01*
X73844948Y-108327815D01*
X73844950Y-108327819D01*
X73969891Y-108499786D01*
X73969893Y-108499788D01*
X73969896Y-108499792D01*
X74120208Y-108650104D01*
X74120211Y-108650106D01*
X74120213Y-108650108D01*
X74292180Y-108775049D01*
X74292184Y-108775051D01*
X74481588Y-108871557D01*
X74683757Y-108937246D01*
X74683758Y-108937246D01*
X74683761Y-108937247D01*
X74893710Y-108970500D01*
X74893713Y-108970500D01*
X75106290Y-108970500D01*
X75316238Y-108937247D01*
X75316239Y-108937246D01*
X75316243Y-108937246D01*
X75518412Y-108871557D01*
X75707816Y-108775051D01*
X75879792Y-108650104D01*
X76030104Y-108499792D01*
X76155051Y-108327816D01*
X76251557Y-108138412D01*
X76317246Y-107936243D01*
X76325108Y-107886604D01*
X76350500Y-107726290D01*
X76350500Y-107513709D01*
X76317247Y-107303763D01*
X76317246Y-107303762D01*
X76317246Y-107303757D01*
X76298772Y-107246904D01*
X76298772Y-107185723D01*
X76322921Y-107146312D01*
X81779739Y-101689496D01*
X81834256Y-101661719D01*
X81849743Y-101660500D01*
X90840505Y-101660500D01*
X90898696Y-101679407D01*
X90934660Y-101728907D01*
X90939505Y-101759500D01*
X90939505Y-102484820D01*
X90948237Y-102528713D01*
X90948239Y-102528717D01*
X90981057Y-102577833D01*
X90981501Y-102578497D01*
X90981504Y-102578499D01*
X90983001Y-102579996D01*
X90984601Y-102583136D01*
X90986918Y-102586604D01*
X90986507Y-102586878D01*
X91010778Y-102634513D01*
X91001207Y-102694945D01*
X90983001Y-102720004D01*
X90981499Y-102721505D01*
X90948239Y-102771282D01*
X90948237Y-102771286D01*
X90939505Y-102815179D01*
X90939505Y-103544820D01*
X90948237Y-103588713D01*
X90948238Y-103588715D01*
X90981501Y-103638497D01*
X90981504Y-103638499D01*
X90983001Y-103639996D01*
X90984601Y-103643136D01*
X90986918Y-103646604D01*
X90986507Y-103646878D01*
X91010778Y-103694513D01*
X91001207Y-103754945D01*
X90983001Y-103780004D01*
X90981499Y-103781505D01*
X90948239Y-103831282D01*
X90948237Y-103831286D01*
X90939505Y-103875179D01*
X90939505Y-104604820D01*
X90948237Y-104648713D01*
X90948238Y-104648715D01*
X90981501Y-104698497D01*
X90981504Y-104698499D01*
X90983001Y-104699996D01*
X90984601Y-104703136D01*
X90986918Y-104706604D01*
X90986507Y-104706878D01*
X91010778Y-104754513D01*
X91001207Y-104814945D01*
X90983001Y-104840004D01*
X90981499Y-104841505D01*
X90948239Y-104891282D01*
X90948237Y-104891286D01*
X90939505Y-104935179D01*
X90939505Y-105664820D01*
X90948237Y-105708713D01*
X90948238Y-105708715D01*
X90981501Y-105758497D01*
X90981504Y-105758499D01*
X90983001Y-105759996D01*
X90984601Y-105763136D01*
X90986918Y-105766604D01*
X90986507Y-105766878D01*
X91010778Y-105814513D01*
X91001207Y-105874945D01*
X90983001Y-105900004D01*
X90981499Y-105901505D01*
X90948239Y-105951282D01*
X90948237Y-105951286D01*
X90939505Y-105995179D01*
X90939505Y-106724820D01*
X90948237Y-106768713D01*
X90948239Y-106768717D01*
X90964100Y-106792455D01*
X90981501Y-106818497D01*
X91031283Y-106851760D01*
X91042332Y-106853957D01*
X91075177Y-106860492D01*
X91075183Y-106860492D01*
X91075185Y-106860493D01*
X91075186Y-106860493D01*
X92404814Y-106860493D01*
X92404815Y-106860493D01*
X92404816Y-106860492D01*
X92404822Y-106860492D01*
X92426618Y-106856155D01*
X92448717Y-106851760D01*
X92498499Y-106818497D01*
X92515900Y-106792454D01*
X92563949Y-106754575D01*
X92625087Y-106752173D01*
X92668219Y-106777452D01*
X93645504Y-107754737D01*
X93673281Y-107809254D01*
X93674500Y-107824741D01*
X93674500Y-121328950D01*
X93655593Y-121387141D01*
X93606093Y-121423105D01*
X93565440Y-121427438D01*
X93536677Y-121424500D01*
X92963315Y-121424500D01*
X92862255Y-121434824D01*
X92862243Y-121434827D01*
X92704821Y-121486991D01*
X92643636Y-121487347D01*
X92603677Y-121463020D01*
X90972653Y-119831996D01*
X90944876Y-119777479D01*
X90947987Y-119733033D01*
X90949665Y-119727549D01*
X90950500Y-119716724D01*
X90950500Y-117283277D01*
X90949665Y-117272451D01*
X90949664Y-117272448D01*
X90949664Y-117272446D01*
X90907578Y-117134823D01*
X90907575Y-117134815D01*
X90828419Y-117014624D01*
X90828418Y-117014622D01*
X90718603Y-116921594D01*
X90645348Y-116889124D01*
X90587028Y-116863274D01*
X90539468Y-116856977D01*
X90444350Y-116844385D01*
X90444348Y-116844385D01*
X90433534Y-116845340D01*
X89465775Y-117006633D01*
X89405268Y-116997549D01*
X89361656Y-116954635D01*
X89350500Y-116908980D01*
X89350500Y-113233197D01*
X89369407Y-113175006D01*
X89418907Y-113139042D01*
X89480093Y-113139042D01*
X89519501Y-113163191D01*
X89576650Y-113220340D01*
X89576652Y-113220341D01*
X89576653Y-113220342D01*
X89627562Y-113251743D01*
X89723484Y-113310908D01*
X89887247Y-113365174D01*
X89887251Y-113365174D01*
X89887253Y-113365175D01*
X89955905Y-113372188D01*
X89988323Y-113375500D01*
X90686676Y-113375499D01*
X90686684Y-113375499D01*
X90787744Y-113365175D01*
X90787744Y-113365174D01*
X90787753Y-113365174D01*
X90951516Y-113310908D01*
X91098350Y-113220340D01*
X91220340Y-113098350D01*
X91310908Y-112951516D01*
X91365174Y-112787753D01*
X91368769Y-112752569D01*
X91371232Y-112728457D01*
X91375500Y-112686677D01*
X91375499Y-112113324D01*
X91375499Y-112113315D01*
X91365175Y-112012255D01*
X91365174Y-112012253D01*
X91365174Y-112012247D01*
X91310908Y-111848484D01*
X91310905Y-111848479D01*
X91220342Y-111701653D01*
X91220341Y-111701652D01*
X91220340Y-111701650D01*
X91098350Y-111579660D01*
X91098347Y-111579658D01*
X91098346Y-111579657D01*
X90951520Y-111489094D01*
X90951514Y-111489091D01*
X90787756Y-111434827D01*
X90787746Y-111434824D01*
X90686684Y-111424500D01*
X89988315Y-111424500D01*
X89887255Y-111434824D01*
X89887243Y-111434827D01*
X89723485Y-111489091D01*
X89723479Y-111489094D01*
X89576652Y-111579658D01*
X89576649Y-111579660D01*
X89485805Y-111670504D01*
X89431288Y-111698281D01*
X89415802Y-111699500D01*
X88881165Y-111699500D01*
X88822974Y-111680593D01*
X88811161Y-111670504D01*
X88479928Y-111339271D01*
X88452151Y-111284754D01*
X88461722Y-111224322D01*
X88494931Y-111186951D01*
X88559043Y-111144114D01*
X89498661Y-110204494D01*
X89553178Y-110176718D01*
X89568665Y-110175499D01*
X89811684Y-110175499D01*
X89912744Y-110165175D01*
X89912744Y-110165174D01*
X89912753Y-110165174D01*
X90076516Y-110110908D01*
X90223350Y-110020340D01*
X90345340Y-109898350D01*
X90435908Y-109751516D01*
X90490174Y-109587753D01*
X90500500Y-109486677D01*
X90500499Y-108913324D01*
X90500499Y-108913323D01*
X90500499Y-108913315D01*
X90490175Y-108812255D01*
X90490174Y-108812253D01*
X90490174Y-108812247D01*
X90435908Y-108648484D01*
X90373680Y-108547596D01*
X90345342Y-108501653D01*
X90345341Y-108501652D01*
X90345340Y-108501650D01*
X90241994Y-108398304D01*
X90214219Y-108343790D01*
X90213000Y-108328303D01*
X90213000Y-108115179D01*
X90939505Y-108115179D01*
X90939505Y-108844820D01*
X90948237Y-108888713D01*
X90948238Y-108888715D01*
X90981501Y-108938497D01*
X91031283Y-108971760D01*
X91042332Y-108973957D01*
X91075177Y-108980492D01*
X91075183Y-108980492D01*
X91075185Y-108980493D01*
X91075186Y-108980493D01*
X92404814Y-108980493D01*
X92404815Y-108980493D01*
X92404816Y-108980492D01*
X92404822Y-108980492D01*
X92426618Y-108976155D01*
X92448717Y-108971760D01*
X92498499Y-108938497D01*
X92531762Y-108888715D01*
X92540495Y-108844813D01*
X92540495Y-108115187D01*
X92540494Y-108115185D01*
X92540494Y-108115179D01*
X92531762Y-108071286D01*
X92531760Y-108071282D01*
X92516029Y-108047739D01*
X92498499Y-108021503D01*
X92458752Y-107994945D01*
X92448719Y-107988241D01*
X92448715Y-107988239D01*
X92404822Y-107979507D01*
X92404815Y-107979507D01*
X91075185Y-107979507D01*
X91075177Y-107979507D01*
X91031284Y-107988239D01*
X91031280Y-107988241D01*
X90981503Y-108021501D01*
X90981499Y-108021505D01*
X90948239Y-108071282D01*
X90948237Y-108071286D01*
X90939505Y-108115179D01*
X90213000Y-108115179D01*
X90213000Y-107074034D01*
X90212999Y-107074030D01*
X90209249Y-107055179D01*
X90186080Y-106938698D01*
X90184340Y-106934498D01*
X90164207Y-106885892D01*
X90159494Y-106874513D01*
X90133277Y-106811219D01*
X90133271Y-106811208D01*
X90056614Y-106696484D01*
X88980951Y-105620821D01*
X87966017Y-104605886D01*
X87964411Y-104604813D01*
X87851282Y-104529223D01*
X87723802Y-104476420D01*
X87588470Y-104449500D01*
X87588468Y-104449500D01*
X87588467Y-104449500D01*
X85131007Y-104449500D01*
X85131004Y-104449500D01*
X85022591Y-104471064D01*
X85022591Y-104471065D01*
X85017237Y-104472130D01*
X84995672Y-104476419D01*
X84942864Y-104498293D01*
X84868191Y-104529223D01*
X84819755Y-104561588D01*
X84753455Y-104605888D01*
X84338839Y-105020504D01*
X84284323Y-105048281D01*
X84268836Y-105049500D01*
X83921806Y-105049500D01*
X83909273Y-105050486D01*
X83884934Y-105052401D01*
X83884927Y-105052403D01*
X83727102Y-105098256D01*
X83585636Y-105181918D01*
X83469418Y-105298136D01*
X83385756Y-105439602D01*
X83339903Y-105597427D01*
X83339901Y-105597434D01*
X83337000Y-105634311D01*
X83337000Y-106065688D01*
X83339901Y-106102565D01*
X83339901Y-106102568D01*
X83339902Y-106102569D01*
X83385756Y-106260398D01*
X83469419Y-106401865D01*
X83585635Y-106518081D01*
X83727102Y-106601744D01*
X83884931Y-106647598D01*
X83921806Y-106650500D01*
X84888000Y-106650500D01*
X84946191Y-106669407D01*
X84982155Y-106718907D01*
X84987000Y-106749500D01*
X84987000Y-106850500D01*
X84968093Y-106908691D01*
X84918593Y-106944655D01*
X84888000Y-106949500D01*
X83921806Y-106949500D01*
X83909273Y-106950486D01*
X83884934Y-106952401D01*
X83884927Y-106952403D01*
X83727102Y-106998256D01*
X83727098Y-106998257D01*
X83663765Y-107035713D01*
X83613370Y-107049500D01*
X82284198Y-107049500D01*
X82226007Y-107030593D01*
X82214195Y-107020504D01*
X82123350Y-106929660D01*
X82123347Y-106929658D01*
X81976520Y-106839094D01*
X81976514Y-106839091D01*
X81812756Y-106784827D01*
X81812746Y-106784824D01*
X81711684Y-106774500D01*
X81113315Y-106774500D01*
X81012255Y-106784824D01*
X81012243Y-106784827D01*
X80848485Y-106839091D01*
X80848479Y-106839094D01*
X80701653Y-106929657D01*
X80579657Y-107051653D01*
X80489094Y-107198479D01*
X80489091Y-107198485D01*
X80434827Y-107362243D01*
X80434824Y-107362253D01*
X80424500Y-107463315D01*
X80424500Y-108036684D01*
X80434824Y-108137744D01*
X80434827Y-108137756D01*
X80489091Y-108301514D01*
X80489094Y-108301520D01*
X80579657Y-108448346D01*
X80579658Y-108448347D01*
X80579660Y-108448350D01*
X80701650Y-108570340D01*
X80701652Y-108570341D01*
X80701653Y-108570342D01*
X80828343Y-108648485D01*
X80848484Y-108660908D01*
X80908034Y-108680641D01*
X80909193Y-108681025D01*
X80958482Y-108717277D01*
X80977050Y-108775577D01*
X80957804Y-108833656D01*
X80909193Y-108868975D01*
X80848483Y-108889092D01*
X80848479Y-108889094D01*
X80701653Y-108979657D01*
X80579657Y-109101653D01*
X80489094Y-109248479D01*
X80489091Y-109248485D01*
X80434827Y-109412243D01*
X80434824Y-109412253D01*
X80424500Y-109513315D01*
X80424500Y-110086684D01*
X80434824Y-110187744D01*
X80434827Y-110187756D01*
X80489091Y-110351514D01*
X80489094Y-110351520D01*
X80579657Y-110498346D01*
X80579658Y-110498347D01*
X80579660Y-110498350D01*
X80701650Y-110620340D01*
X80701652Y-110620341D01*
X80701653Y-110620342D01*
X80821855Y-110694483D01*
X80848484Y-110710908D01*
X81012247Y-110765174D01*
X81012251Y-110765174D01*
X81012253Y-110765175D01*
X81080905Y-110772188D01*
X81113323Y-110775500D01*
X81811676Y-110775499D01*
X81811684Y-110775499D01*
X81912744Y-110765175D01*
X81912744Y-110765174D01*
X81912753Y-110765174D01*
X82076516Y-110710908D01*
X82223350Y-110620340D01*
X82268772Y-110574917D01*
X82314195Y-110529496D01*
X82368712Y-110501719D01*
X82384198Y-110500500D01*
X83838309Y-110500500D01*
X83896500Y-110519407D01*
X83908313Y-110529496D01*
X83959576Y-110580759D01*
X83987353Y-110635276D01*
X83977782Y-110695708D01*
X83934517Y-110738973D01*
X83897340Y-110749458D01*
X83859933Y-110752401D01*
X83859927Y-110752403D01*
X83702102Y-110798256D01*
X83560636Y-110881918D01*
X83444418Y-110998136D01*
X83360756Y-111139602D01*
X83314903Y-111297427D01*
X83314901Y-111297434D01*
X83312000Y-111334311D01*
X83312000Y-111681335D01*
X83293093Y-111739526D01*
X83283004Y-111751339D01*
X82305883Y-112728460D01*
X82229223Y-112843191D01*
X82176420Y-112970670D01*
X82176420Y-112970672D01*
X82160270Y-113051864D01*
X82149500Y-113106006D01*
X82149500Y-116908979D01*
X82130593Y-116967170D01*
X82081093Y-117003134D01*
X82034225Y-117006632D01*
X81066470Y-116845340D01*
X81055651Y-116844385D01*
X81055649Y-116844385D01*
X80912971Y-116863274D01*
X80832153Y-116899096D01*
X80781397Y-116921594D01*
X80781396Y-116921595D01*
X80781393Y-116921596D01*
X80671583Y-117014620D01*
X80671581Y-117014622D01*
X80616441Y-117098350D01*
X80592421Y-117134823D01*
X80592421Y-117134824D01*
X80550335Y-117272446D01*
X80550335Y-117272448D01*
X80550335Y-117272451D01*
X80549500Y-117283276D01*
X80549500Y-119716723D01*
X80550001Y-119723218D01*
X80550335Y-119727553D01*
X80592421Y-119865176D01*
X80592424Y-119865184D01*
X80650381Y-119953186D01*
X80671582Y-119985378D01*
X80781397Y-120078406D01*
X80912973Y-120136726D01*
X81055650Y-120155615D01*
X81066468Y-120154659D01*
X84731961Y-119543744D01*
X84792465Y-119552828D01*
X84818237Y-119571393D01*
X85659754Y-120412909D01*
X85687531Y-120467426D01*
X85677960Y-120527858D01*
X85634695Y-120571123D01*
X85627637Y-120574377D01*
X85554228Y-120604784D01*
X85554222Y-120604787D01*
X85447689Y-120675971D01*
X85076614Y-121047044D01*
X85022098Y-121074821D01*
X84986592Y-121073995D01*
X84829803Y-121041622D01*
X84657361Y-121046640D01*
X84490719Y-121091291D01*
X84338868Y-121173169D01*
X84209991Y-121287859D01*
X84150510Y-121370230D01*
X84119983Y-121423105D01*
X83863834Y-121866768D01*
X83822237Y-121959467D01*
X83787351Y-122128424D01*
X83792072Y-122290650D01*
X83792369Y-122300869D01*
X83837021Y-122467510D01*
X83897314Y-122579329D01*
X83918900Y-122619362D01*
X83918901Y-122619363D01*
X84033585Y-122748237D01*
X84033587Y-122748238D01*
X84033588Y-122748239D01*
X84115960Y-122807719D01*
X84720752Y-123156895D01*
X84813450Y-123198492D01*
X84982405Y-123233377D01*
X85154851Y-123228360D01*
X85321493Y-123183709D01*
X85473344Y-123101831D01*
X85602221Y-122987141D01*
X85661702Y-122904770D01*
X85948378Y-122408231D01*
X85989974Y-122315533D01*
X86024860Y-122146577D01*
X86020224Y-121987251D01*
X86037431Y-121928538D01*
X86049173Y-121914376D01*
X86102807Y-121860744D01*
X86157324Y-121832968D01*
X86172809Y-121831749D01*
X87037586Y-121831749D01*
X87095777Y-121850656D01*
X87107590Y-121860745D01*
X89395505Y-124148660D01*
X89423282Y-124203177D01*
X89424501Y-124218664D01*
X89424501Y-124565688D01*
X89427402Y-124602565D01*
X89427402Y-124602568D01*
X89427403Y-124602569D01*
X89473257Y-124760398D01*
X89556920Y-124901865D01*
X89673136Y-125018081D01*
X89814603Y-125101744D01*
X89972432Y-125147598D01*
X90009307Y-125150500D01*
X90850501Y-125150500D01*
X90908692Y-125169407D01*
X90944656Y-125218907D01*
X90949501Y-125249500D01*
X90949501Y-125350500D01*
X90930594Y-125408691D01*
X90881094Y-125444655D01*
X90850501Y-125449500D01*
X90009307Y-125449500D01*
X89996774Y-125450486D01*
X89972435Y-125452401D01*
X89972428Y-125452403D01*
X89814603Y-125498256D01*
X89673137Y-125581918D01*
X89556919Y-125698136D01*
X89473257Y-125839602D01*
X89427404Y-125997427D01*
X89427402Y-125997434D01*
X89424501Y-126034311D01*
X89424501Y-126315371D01*
X89405594Y-126373562D01*
X89356094Y-126409526D01*
X89294908Y-126409526D01*
X89287095Y-126406618D01*
X88457316Y-126057360D01*
X88453938Y-126055863D01*
X87493060Y-125608515D01*
X87489740Y-125606893D01*
X86546234Y-125124007D01*
X86542977Y-125122263D01*
X85618124Y-124604495D01*
X85614934Y-124602630D01*
X84710066Y-124050727D01*
X84706948Y-124048745D01*
X83823280Y-123463445D01*
X83820239Y-123461348D01*
X82959038Y-122843493D01*
X82956077Y-122841283D01*
X82118526Y-122191720D01*
X82115649Y-122189402D01*
X81302925Y-121509043D01*
X81300162Y-121506643D01*
X80513337Y-120796384D01*
X80510685Y-120793897D01*
X79750938Y-120054801D01*
X79748339Y-120052176D01*
X79016733Y-119285280D01*
X79014233Y-119282560D01*
X78311736Y-118488882D01*
X78309339Y-118486070D01*
X77636940Y-117666724D01*
X77634650Y-117663824D01*
X76993314Y-116819985D01*
X76991134Y-116817003D01*
X76429051Y-116017160D01*
X76381718Y-115949806D01*
X76379655Y-115946751D01*
X76366585Y-115926594D01*
X75803020Y-115057414D01*
X75801068Y-115054277D01*
X75258014Y-114144033D01*
X75256181Y-114140825D01*
X75245492Y-114121287D01*
X75112784Y-113878710D01*
X76149500Y-113878710D01*
X76149500Y-114121289D01*
X76181161Y-114361781D01*
X76181161Y-114361786D01*
X76243944Y-114596092D01*
X76243948Y-114596105D01*
X76336772Y-114820204D01*
X76336774Y-114820208D01*
X76336776Y-114820212D01*
X76370552Y-114878713D01*
X76458066Y-115030292D01*
X76605729Y-115222731D01*
X76605731Y-115222733D01*
X76605735Y-115222738D01*
X76777262Y-115394265D01*
X76777266Y-115394268D01*
X76777268Y-115394270D01*
X76946502Y-115524127D01*
X76969711Y-115541936D01*
X77179788Y-115663224D01*
X77403900Y-115756054D01*
X77638211Y-115818838D01*
X77878712Y-115850500D01*
X77878713Y-115850500D01*
X78121287Y-115850500D01*
X78121288Y-115850500D01*
X78361789Y-115818838D01*
X78596100Y-115756054D01*
X78820212Y-115663224D01*
X79030289Y-115541936D01*
X79222738Y-115394265D01*
X79394265Y-115222738D01*
X79541936Y-115030289D01*
X79663224Y-114820212D01*
X79756054Y-114596100D01*
X79818838Y-114361789D01*
X79850500Y-114121288D01*
X79850500Y-113878712D01*
X79818838Y-113638211D01*
X79756054Y-113403900D01*
X79663224Y-113179788D01*
X79541936Y-112969711D01*
X79444854Y-112843191D01*
X79394270Y-112777268D01*
X79394268Y-112777266D01*
X79394265Y-112777262D01*
X79222738Y-112605735D01*
X79222733Y-112605731D01*
X79222731Y-112605729D01*
X79030292Y-112458066D01*
X79030289Y-112458064D01*
X78820212Y-112336776D01*
X78820208Y-112336774D01*
X78820204Y-112336772D01*
X78596105Y-112243948D01*
X78596104Y-112243947D01*
X78596100Y-112243946D01*
X78361789Y-112181162D01*
X78361786Y-112181161D01*
X78361784Y-112181161D01*
X78121289Y-112149500D01*
X78121288Y-112149500D01*
X77878712Y-112149500D01*
X77878710Y-112149500D01*
X77638218Y-112181161D01*
X77638213Y-112181161D01*
X77403907Y-112243944D01*
X77403894Y-112243948D01*
X77179795Y-112336772D01*
X76969707Y-112458066D01*
X76777268Y-112605729D01*
X76605729Y-112777268D01*
X76458066Y-112969707D01*
X76336772Y-113179795D01*
X76243948Y-113403894D01*
X76243944Y-113403907D01*
X76181161Y-113638213D01*
X76181161Y-113638218D01*
X76149500Y-113878710D01*
X75112784Y-113878710D01*
X74831839Y-113365172D01*
X74747490Y-113210990D01*
X74745777Y-113207716D01*
X74631730Y-112979410D01*
X74272099Y-112259476D01*
X74270541Y-112256204D01*
X73832583Y-111290964D01*
X73831141Y-111287621D01*
X73429493Y-110306684D01*
X73428158Y-110303239D01*
X73279762Y-109898350D01*
X73063418Y-109308068D01*
X73062233Y-109304640D01*
X72734856Y-108296476D01*
X72733786Y-108292956D01*
X72444275Y-107273348D01*
X72443338Y-107269797D01*
X72425937Y-107198485D01*
X72192064Y-106240058D01*
X72191272Y-106236527D01*
X71978592Y-105198105D01*
X71977920Y-105194474D01*
X71962662Y-105102669D01*
X71804145Y-104148899D01*
X71803617Y-104145312D01*
X71668973Y-103093937D01*
X71668573Y-103090271D01*
X71665696Y-103058412D01*
X71573250Y-102034589D01*
X71572994Y-102030998D01*
X71517130Y-100972498D01*
X71517007Y-100968868D01*
X71500679Y-99909022D01*
X71500691Y-99905353D01*
X71523921Y-98845658D01*
X71524068Y-98842032D01*
X71586824Y-97783924D01*
X71587104Y-97780321D01*
X71689301Y-96725256D01*
X71689719Y-96721644D01*
X71831209Y-95671166D01*
X71831757Y-95667595D01*
X72012356Y-94623065D01*
X72013038Y-94619520D01*
X72232467Y-93582546D01*
X72233298Y-93578954D01*
X72253500Y-93498447D01*
X72491266Y-92550899D01*
X72492231Y-92547338D01*
X72538160Y-92389504D01*
X72788384Y-91529608D01*
X72789455Y-91526166D01*
X73123385Y-90520170D01*
X73124613Y-90516692D01*
X73126084Y-90512757D01*
X73495841Y-89523877D01*
X73497194Y-89520458D01*
X73527212Y-89448486D01*
X73905194Y-88542221D01*
X73906654Y-88538895D01*
X74350920Y-87576461D01*
X74352480Y-87573241D01*
X74832329Y-86628092D01*
X74834056Y-86624843D01*
X75348814Y-85698299D01*
X75350659Y-85695122D01*
X75493017Y-85460002D01*
X75844970Y-84878710D01*
X81149500Y-84878710D01*
X81149500Y-85121289D01*
X81181161Y-85361781D01*
X81181161Y-85361786D01*
X81243944Y-85596092D01*
X81243948Y-85596105D01*
X81336772Y-85820204D01*
X81336774Y-85820208D01*
X81336776Y-85820212D01*
X81458064Y-86030289D01*
X81458066Y-86030292D01*
X81605729Y-86222731D01*
X81605731Y-86222733D01*
X81605735Y-86222738D01*
X81777262Y-86394265D01*
X81777266Y-86394268D01*
X81777268Y-86394270D01*
X81917209Y-86501650D01*
X81969711Y-86541936D01*
X82179788Y-86663224D01*
X82403900Y-86756054D01*
X82638211Y-86818838D01*
X82878712Y-86850500D01*
X82878713Y-86850500D01*
X83121287Y-86850500D01*
X83121288Y-86850500D01*
X83361789Y-86818838D01*
X83596100Y-86756054D01*
X83820212Y-86663224D01*
X84030289Y-86541936D01*
X84222738Y-86394265D01*
X84394265Y-86222738D01*
X84541936Y-86030289D01*
X84663224Y-85820212D01*
X84756054Y-85596100D01*
X84818838Y-85361789D01*
X84850500Y-85121288D01*
X84850500Y-84878712D01*
X84818838Y-84638211D01*
X84756054Y-84403900D01*
X84663224Y-84179788D01*
X84541936Y-83969711D01*
X84440098Y-83836993D01*
X84394270Y-83777268D01*
X84394268Y-83777266D01*
X84394265Y-83777262D01*
X84222738Y-83605735D01*
X84222733Y-83605731D01*
X84222731Y-83605729D01*
X84030292Y-83458066D01*
X84030289Y-83458064D01*
X83820212Y-83336776D01*
X83820208Y-83336774D01*
X83820204Y-83336772D01*
X83596105Y-83243948D01*
X83596104Y-83243947D01*
X83596100Y-83243946D01*
X83361789Y-83181162D01*
X83361786Y-83181161D01*
X83361784Y-83181161D01*
X83121289Y-83149500D01*
X83121288Y-83149500D01*
X82878712Y-83149500D01*
X82878710Y-83149500D01*
X82638218Y-83181161D01*
X82638213Y-83181161D01*
X82403907Y-83243944D01*
X82403894Y-83243948D01*
X82179795Y-83336772D01*
X81969707Y-83458066D01*
X81777268Y-83605729D01*
X81605729Y-83777268D01*
X81458066Y-83969707D01*
X81336772Y-84179795D01*
X81243948Y-84403894D01*
X81243944Y-84403907D01*
X81181161Y-84638213D01*
X81181161Y-84638218D01*
X81149500Y-84878710D01*
X75844970Y-84878710D01*
X75899636Y-84788423D01*
X75901571Y-84785359D01*
X76484008Y-83899760D01*
X76486092Y-83896718D01*
X76490879Y-83890000D01*
X77101176Y-83033459D01*
X77103312Y-83030577D01*
X77750187Y-82190861D01*
X77752441Y-82188045D01*
X78430208Y-81373038D01*
X78432582Y-81370290D01*
X79140260Y-80581173D01*
X79142738Y-80578511D01*
X79879403Y-79816314D01*
X79881951Y-79813774D01*
X80646542Y-79079596D01*
X80649158Y-79077176D01*
X81440602Y-78372048D01*
X81443398Y-78369650D01*
X81511506Y-78313385D01*
X113424500Y-78313385D01*
X113424500Y-78486614D01*
X113451597Y-78657702D01*
X113451598Y-78657706D01*
X113505123Y-78822438D01*
X113505125Y-78822441D01*
X113505126Y-78822444D01*
X113505127Y-78822445D01*
X113583768Y-78976788D01*
X113685586Y-79116928D01*
X113808072Y-79239414D01*
X113948212Y-79341232D01*
X114102555Y-79419873D01*
X114102557Y-79419873D01*
X114102558Y-79419874D01*
X114102561Y-79419876D01*
X114267293Y-79473401D01*
X114267297Y-79473402D01*
X114438386Y-79500500D01*
X114438389Y-79500500D01*
X115161614Y-79500500D01*
X115332702Y-79473402D01*
X115332706Y-79473401D01*
X115497438Y-79419876D01*
X115497440Y-79419874D01*
X115497445Y-79419873D01*
X115651788Y-79341232D01*
X115791928Y-79239414D01*
X115914414Y-79116928D01*
X116016232Y-78976788D01*
X116094873Y-78822445D01*
X116094874Y-78822440D01*
X116094876Y-78822438D01*
X116148401Y-78657706D01*
X116148402Y-78657702D01*
X116175500Y-78486614D01*
X116175500Y-78313385D01*
X116148402Y-78142297D01*
X116148401Y-78142293D01*
X116094876Y-77977561D01*
X116094874Y-77977558D01*
X116094873Y-77977557D01*
X116094873Y-77977555D01*
X116016232Y-77823212D01*
X115914414Y-77683072D01*
X115791928Y-77560586D01*
X115651788Y-77458768D01*
X115651787Y-77458767D01*
X115651785Y-77458766D01*
X115497441Y-77380125D01*
X115497438Y-77380123D01*
X115332706Y-77326598D01*
X115332702Y-77326597D01*
X115161614Y-77299500D01*
X115161611Y-77299500D01*
X114438389Y-77299500D01*
X114438386Y-77299500D01*
X114267297Y-77326597D01*
X114267293Y-77326598D01*
X114102561Y-77380123D01*
X114102558Y-77380125D01*
X113948214Y-77458766D01*
X113808073Y-77560585D01*
X113685585Y-77683073D01*
X113583766Y-77823214D01*
X113505125Y-77977558D01*
X113505123Y-77977561D01*
X113451598Y-78142293D01*
X113451597Y-78142297D01*
X113424500Y-78313385D01*
X81511506Y-78313385D01*
X82260577Y-77694563D01*
X82263382Y-77692332D01*
X83105220Y-77048180D01*
X83108149Y-77046025D01*
X83973398Y-76433760D01*
X83976414Y-76431709D01*
X84863905Y-75852159D01*
X84866990Y-75850225D01*
X85775455Y-75304214D01*
X85778655Y-75302371D01*
X86706893Y-74790618D01*
X86710119Y-74788918D01*
X87656811Y-74312156D01*
X87660058Y-74310597D01*
X88623919Y-73869473D01*
X88627211Y-73868040D01*
X89606848Y-73463196D01*
X89610247Y-73461864D01*
X90604282Y-73093865D01*
X90607696Y-73092673D01*
X91614806Y-72762009D01*
X91618251Y-72760949D01*
X92636997Y-72468095D01*
X92640485Y-72467162D01*
X93669427Y-72212531D01*
X93672936Y-72211731D01*
X94710710Y-71995660D01*
X94714266Y-71994990D01*
X95759289Y-71817808D01*
X95762911Y-71817263D01*
X96813886Y-71679189D01*
X96817476Y-71678786D01*
X97872800Y-71580031D01*
X97876454Y-71579758D01*
X98934762Y-71520448D01*
X98938388Y-71520313D01*
X99998178Y-71500534D01*
X100001822Y-71500534D01*
X101061609Y-71520313D01*
G37*
%TD.AperFunction*%
%TA.AperFunction,Conductor*%
G36*
X92709499Y-98911683D02*
G01*
X104490504Y-110692688D01*
X104518281Y-110747205D01*
X104519500Y-110762692D01*
X104519500Y-115595802D01*
X104500593Y-115653993D01*
X104490504Y-115665805D01*
X104454660Y-115701649D01*
X104454658Y-115701652D01*
X104364094Y-115848479D01*
X104364091Y-115848485D01*
X104309827Y-116012243D01*
X104309824Y-116012253D01*
X104299500Y-116113315D01*
X104299500Y-116686684D01*
X104309824Y-116787744D01*
X104309827Y-116787756D01*
X104364091Y-116951514D01*
X104364094Y-116951520D01*
X104454657Y-117098346D01*
X104454658Y-117098347D01*
X104454660Y-117098350D01*
X104490505Y-117134195D01*
X104518281Y-117188710D01*
X104519500Y-117204197D01*
X104519500Y-123657414D01*
X104500593Y-123715605D01*
X104490504Y-123727418D01*
X104122418Y-124095504D01*
X104067901Y-124123281D01*
X104052414Y-124124500D01*
X103313387Y-124124500D01*
X103255196Y-124105593D01*
X103219232Y-124056093D01*
X103219232Y-123994907D01*
X103243381Y-123955498D01*
X103350515Y-123848365D01*
X103350518Y-123848360D01*
X103426279Y-123717139D01*
X103426279Y-123717137D01*
X103426281Y-123717135D01*
X103465500Y-123570766D01*
X103465500Y-123419234D01*
X103426281Y-123272865D01*
X103426279Y-123272862D01*
X103426279Y-123272860D01*
X103350518Y-123141639D01*
X103350516Y-123141637D01*
X103350515Y-123141635D01*
X103243365Y-123034485D01*
X103243362Y-123034483D01*
X103243360Y-123034481D01*
X103112140Y-122958721D01*
X103112137Y-122958720D01*
X103112135Y-122958719D01*
X103025334Y-122935461D01*
X102974020Y-122902136D01*
X102952094Y-122845015D01*
X102967930Y-122785914D01*
X102968643Y-122784832D01*
X102992467Y-122749177D01*
X103020775Y-122706811D01*
X103073580Y-122579328D01*
X103100500Y-122443994D01*
X103100500Y-122306006D01*
X103100500Y-121820343D01*
X103108036Y-121782458D01*
X103130835Y-121727415D01*
X103169737Y-121633497D01*
X103200500Y-121478842D01*
X103200500Y-121321158D01*
X103169737Y-121166503D01*
X103138668Y-121091496D01*
X103109396Y-121020825D01*
X103109390Y-121020814D01*
X103074017Y-120967876D01*
X103021789Y-120889711D01*
X102910289Y-120778211D01*
X102858059Y-120743312D01*
X102779185Y-120690609D01*
X102779174Y-120690603D01*
X102633497Y-120630263D01*
X102478844Y-120599500D01*
X102478842Y-120599500D01*
X102449500Y-120599500D01*
X102391309Y-120580593D01*
X102355345Y-120531093D01*
X102350500Y-120500500D01*
X102350500Y-117798448D01*
X102369407Y-117740257D01*
X102397528Y-117714187D01*
X102448350Y-117682840D01*
X102570340Y-117560850D01*
X102660908Y-117414016D01*
X102715174Y-117250253D01*
X102715803Y-117244102D01*
X102725499Y-117149184D01*
X102725500Y-117149177D01*
X102725499Y-116550824D01*
X102725499Y-116550823D01*
X102725499Y-116550815D01*
X102715175Y-116449755D01*
X102715174Y-116449753D01*
X102715174Y-116449747D01*
X102660908Y-116285984D01*
X102570340Y-116139150D01*
X102448350Y-116017160D01*
X102448347Y-116017158D01*
X102448346Y-116017157D01*
X102301520Y-115926594D01*
X102301514Y-115926591D01*
X102137756Y-115872327D01*
X102137746Y-115872324D01*
X102036684Y-115862000D01*
X101463315Y-115862000D01*
X101362255Y-115872324D01*
X101362243Y-115872327D01*
X101198485Y-115926591D01*
X101198479Y-115926594D01*
X101051653Y-116017157D01*
X100929657Y-116139153D01*
X100839094Y-116285979D01*
X100839091Y-116285985D01*
X100784827Y-116449743D01*
X100784824Y-116449753D01*
X100774500Y-116550815D01*
X100774500Y-117149184D01*
X100784824Y-117250244D01*
X100784827Y-117250256D01*
X100839091Y-117414014D01*
X100839094Y-117414020D01*
X100929657Y-117560846D01*
X100929658Y-117560847D01*
X100929660Y-117560850D01*
X101051650Y-117682840D01*
X101051652Y-117682841D01*
X101051653Y-117682842D01*
X101102472Y-117714187D01*
X101142074Y-117760828D01*
X101149500Y-117798448D01*
X101149500Y-121550934D01*
X101130593Y-121609125D01*
X101102425Y-121631332D01*
X101104095Y-121633832D01*
X101055002Y-121666635D01*
X100996113Y-121683244D01*
X100944998Y-121666635D01*
X100904013Y-121639249D01*
X100895004Y-121635518D01*
X100895765Y-121633678D01*
X100853260Y-121609868D01*
X100830341Y-121568301D01*
X100809577Y-121490806D01*
X100730520Y-121353874D01*
X100618716Y-121242070D01*
X100618713Y-121242068D01*
X100462931Y-121086286D01*
X100462930Y-121086284D01*
X100351126Y-120974480D01*
X100264314Y-120924360D01*
X100264313Y-120924359D01*
X100214198Y-120895425D01*
X100214195Y-120895423D01*
X100061467Y-120854499D01*
X99949500Y-120854499D01*
X99891309Y-120835592D01*
X99855345Y-120786092D01*
X99850500Y-120755499D01*
X99850500Y-117893964D01*
X99869407Y-117835773D01*
X99879497Y-117823960D01*
X99905009Y-117798448D01*
X100005520Y-117697938D01*
X100084577Y-117561006D01*
X100125501Y-117408279D01*
X100125501Y-117250164D01*
X100125501Y-117244102D01*
X100125500Y-117244084D01*
X100125500Y-111095949D01*
X100123801Y-111089606D01*
X100096097Y-110986215D01*
X100084577Y-110943220D01*
X100059852Y-110900396D01*
X100055639Y-110893099D01*
X100055639Y-110893098D01*
X100055637Y-110893096D01*
X100005524Y-110806294D01*
X100005521Y-110806291D01*
X100005520Y-110806289D01*
X99893716Y-110694485D01*
X99893713Y-110694483D01*
X93070516Y-103871286D01*
X93070515Y-103871284D01*
X92958711Y-103759480D01*
X92951045Y-103755054D01*
X92847117Y-103695051D01*
X92847114Y-103695050D01*
X92847112Y-103695049D01*
X92834448Y-103687737D01*
X92821782Y-103680424D01*
X92821781Y-103680423D01*
X92821780Y-103680423D01*
X92669052Y-103639499D01*
X92639495Y-103639499D01*
X92581304Y-103620592D01*
X92545340Y-103571092D01*
X92540495Y-103540499D01*
X92540495Y-102815188D01*
X92540494Y-102815179D01*
X92531762Y-102771286D01*
X92531760Y-102771282D01*
X92510215Y-102739037D01*
X92498499Y-102721503D01*
X92498495Y-102721500D01*
X92496999Y-102720004D01*
X92495398Y-102716863D01*
X92493082Y-102713396D01*
X92493492Y-102713121D01*
X92469222Y-102665487D01*
X92478793Y-102605055D01*
X92496999Y-102579996D01*
X92498492Y-102578501D01*
X92498499Y-102578497D01*
X92531762Y-102528715D01*
X92540495Y-102484813D01*
X92540495Y-101755187D01*
X92540494Y-101755185D01*
X92540494Y-101755179D01*
X92531762Y-101711286D01*
X92531760Y-101711282D01*
X92498500Y-101661505D01*
X92498499Y-101661503D01*
X92498495Y-101661500D01*
X92496999Y-101660004D01*
X92495398Y-101656863D01*
X92493082Y-101653396D01*
X92493492Y-101653121D01*
X92469222Y-101605487D01*
X92478793Y-101545055D01*
X92496999Y-101519996D01*
X92498492Y-101518501D01*
X92498499Y-101518497D01*
X92531762Y-101468715D01*
X92540495Y-101424813D01*
X92540495Y-100695187D01*
X92540494Y-100695185D01*
X92540494Y-100695179D01*
X92531762Y-100651286D01*
X92531760Y-100651282D01*
X92498500Y-100601505D01*
X92498499Y-100601503D01*
X92498495Y-100601500D01*
X92496999Y-100600004D01*
X92495398Y-100596863D01*
X92493082Y-100593396D01*
X92493492Y-100593121D01*
X92469222Y-100545487D01*
X92478793Y-100485055D01*
X92496999Y-100459996D01*
X92498492Y-100458501D01*
X92498499Y-100458497D01*
X92531762Y-100408715D01*
X92540495Y-100364813D01*
X92540495Y-99635187D01*
X92540494Y-99635185D01*
X92540494Y-99635179D01*
X92531762Y-99591286D01*
X92531760Y-99591282D01*
X92498500Y-99541505D01*
X92498499Y-99541503D01*
X92498495Y-99541500D01*
X92496999Y-99540004D01*
X92495398Y-99536863D01*
X92493082Y-99533396D01*
X92493492Y-99533121D01*
X92469222Y-99485487D01*
X92478793Y-99425055D01*
X92496999Y-99399996D01*
X92498492Y-99398501D01*
X92498499Y-99398497D01*
X92531762Y-99348715D01*
X92540495Y-99304813D01*
X92540495Y-98981687D01*
X92559402Y-98923496D01*
X92608902Y-98887532D01*
X92670088Y-98887532D01*
X92709499Y-98911683D01*
G37*
%TD.AperFunction*%
%TA.AperFunction,Conductor*%
G36*
X95044504Y-107543744D02*
G01*
X98895504Y-111394744D01*
X98923281Y-111449261D01*
X98924500Y-111464748D01*
X98924500Y-115763000D01*
X98905593Y-115821191D01*
X98856093Y-115857155D01*
X98825500Y-115862000D01*
X98463315Y-115862000D01*
X98362255Y-115872324D01*
X98362243Y-115872327D01*
X98198485Y-115926591D01*
X98198479Y-115926594D01*
X98051653Y-116017157D01*
X97929657Y-116139153D01*
X97839094Y-116285979D01*
X97839091Y-116285985D01*
X97784827Y-116449743D01*
X97784824Y-116449753D01*
X97774500Y-116550815D01*
X97774500Y-117149184D01*
X97784824Y-117250244D01*
X97784827Y-117250256D01*
X97839091Y-117414014D01*
X97839094Y-117414020D01*
X97929657Y-117560846D01*
X97929658Y-117560847D01*
X97929660Y-117560850D01*
X98051650Y-117682840D01*
X98051652Y-117682841D01*
X98051653Y-117682842D01*
X98102472Y-117714187D01*
X98142074Y-117760828D01*
X98149500Y-117798448D01*
X98149500Y-120619194D01*
X98130593Y-120677385D01*
X98081093Y-120713349D01*
X98019907Y-120713349D01*
X97995499Y-120701510D01*
X97979184Y-120690608D01*
X97979174Y-120690603D01*
X97833497Y-120630263D01*
X97678844Y-120599500D01*
X97678842Y-120599500D01*
X97521158Y-120599500D01*
X97521155Y-120599500D01*
X97366503Y-120630263D01*
X97366501Y-120630263D01*
X97220825Y-120690603D01*
X97220814Y-120690609D01*
X97089711Y-120778211D01*
X97089707Y-120778214D01*
X96978214Y-120889707D01*
X96978211Y-120889711D01*
X96890609Y-121020814D01*
X96890603Y-121020825D01*
X96830263Y-121166501D01*
X96830263Y-121166503D01*
X96799500Y-121321155D01*
X96799500Y-121478844D01*
X96806755Y-121515314D01*
X96829832Y-121631332D01*
X96830263Y-121633496D01*
X96830263Y-121633498D01*
X96891964Y-121782458D01*
X96899500Y-121820343D01*
X96899500Y-122443995D01*
X96926420Y-122579327D01*
X96926420Y-122579329D01*
X96979222Y-122706806D01*
X96979228Y-122706817D01*
X97031357Y-122784832D01*
X97047966Y-122843720D01*
X97026789Y-122901124D01*
X96975915Y-122935117D01*
X96974664Y-122935461D01*
X96887865Y-122958719D01*
X96887863Y-122958719D01*
X96887859Y-122958721D01*
X96756639Y-123034481D01*
X96649481Y-123141639D01*
X96573720Y-123272860D01*
X96534500Y-123419235D01*
X96534500Y-123550500D01*
X96515593Y-123608691D01*
X96466093Y-123644655D01*
X96435500Y-123649500D01*
X95904075Y-123649500D01*
X95897641Y-123650347D01*
X95897550Y-123649660D01*
X95883577Y-123651500D01*
X95668610Y-123651500D01*
X95610419Y-123632593D01*
X95598606Y-123622504D01*
X95441996Y-123465894D01*
X95414219Y-123411377D01*
X95413000Y-123395890D01*
X95413000Y-123196953D01*
X95413001Y-123196950D01*
X95413000Y-123038835D01*
X95411834Y-123034485D01*
X95403811Y-123004542D01*
X95396029Y-122975500D01*
X95372077Y-122886109D01*
X95293020Y-122749177D01*
X95181216Y-122637373D01*
X95181213Y-122637371D01*
X94904496Y-122360654D01*
X94876719Y-122306137D01*
X94875500Y-122290650D01*
X94875500Y-107613748D01*
X94894407Y-107555557D01*
X94943907Y-107519593D01*
X95005093Y-107519593D01*
X95044504Y-107543744D01*
G37*
%TD.AperFunction*%
%TA.AperFunction,Conductor*%
G36*
X87838075Y-106466112D02*
G01*
X87863135Y-106484318D01*
X88783004Y-107404186D01*
X88810781Y-107458703D01*
X88812000Y-107474190D01*
X88812000Y-108328303D01*
X88793093Y-108386494D01*
X88783009Y-108398300D01*
X88730810Y-108450500D01*
X88679657Y-108501653D01*
X88677654Y-108504187D01*
X88676067Y-108505243D01*
X88675583Y-108505728D01*
X88675485Y-108505630D01*
X88626729Y-108538103D01*
X88565594Y-108535608D01*
X88524438Y-108505706D01*
X88524417Y-108505728D01*
X88524284Y-108505595D01*
X88522346Y-108504187D01*
X88520342Y-108501653D01*
X88520341Y-108501652D01*
X88520340Y-108501650D01*
X88398350Y-108379660D01*
X88398347Y-108379658D01*
X88398346Y-108379657D01*
X88251520Y-108289094D01*
X88251516Y-108289092D01*
X88141894Y-108252766D01*
X88103032Y-108228795D01*
X88052759Y-108178523D01*
X88052758Y-108178523D01*
X87962809Y-108088574D01*
X87935032Y-108034057D01*
X87935343Y-108007663D01*
X87934701Y-108007613D01*
X87935698Y-107994945D01*
X87938000Y-107965694D01*
X87938000Y-107534306D01*
X87935098Y-107497431D01*
X87889244Y-107339602D01*
X87805581Y-107198135D01*
X87689365Y-107081919D01*
X87547898Y-106998256D01*
X87390069Y-106952402D01*
X87390068Y-106952401D01*
X87390065Y-106952401D01*
X87366640Y-106950558D01*
X87353194Y-106949500D01*
X87353189Y-106949500D01*
X86487000Y-106949500D01*
X86428809Y-106930593D01*
X86392845Y-106881093D01*
X86388000Y-106850500D01*
X86388000Y-106774189D01*
X86406907Y-106715998D01*
X86416998Y-106704184D01*
X86441688Y-106679495D01*
X86496205Y-106651719D01*
X86511690Y-106650500D01*
X87353189Y-106650500D01*
X87353194Y-106650500D01*
X87390069Y-106647598D01*
X87547898Y-106601744D01*
X87689365Y-106518081D01*
X87723127Y-106484319D01*
X87777643Y-106456541D01*
X87838075Y-106466112D01*
G37*
%TD.AperFunction*%
%TA.AperFunction,Conductor*%
G36*
X110872015Y-103933964D02*
G01*
X110915280Y-103977229D01*
X110924167Y-104002857D01*
X110930261Y-104033491D01*
X110930263Y-104033498D01*
X110990603Y-104179174D01*
X110990609Y-104179185D01*
X111004660Y-104200213D01*
X111078211Y-104310289D01*
X111189711Y-104421789D01*
X111263456Y-104471064D01*
X111320814Y-104509390D01*
X111320825Y-104509396D01*
X111368693Y-104529223D01*
X111466503Y-104569737D01*
X111619815Y-104600233D01*
X111673198Y-104630129D01*
X111698814Y-104685694D01*
X111699500Y-104697330D01*
X111699500Y-105102669D01*
X111680593Y-105160860D01*
X111631093Y-105196824D01*
X111619814Y-105199767D01*
X111466503Y-105230263D01*
X111466501Y-105230263D01*
X111320825Y-105290603D01*
X111320814Y-105290609D01*
X111189711Y-105378211D01*
X111189707Y-105378214D01*
X111078214Y-105489707D01*
X111078211Y-105489711D01*
X110990605Y-105620822D01*
X110958478Y-105698385D01*
X110918742Y-105744911D01*
X110867014Y-105759500D01*
X109188745Y-105759500D01*
X109130554Y-105740593D01*
X109094590Y-105691093D01*
X109094590Y-105629907D01*
X109118741Y-105590496D01*
X109909730Y-104799507D01*
X110757068Y-103952168D01*
X110811583Y-103924393D01*
X110872015Y-103933964D01*
G37*
%TD.AperFunction*%
%TA.AperFunction,Conductor*%
G36*
X111870211Y-95383264D02*
G01*
X111895271Y-95401470D01*
X111952548Y-95458747D01*
X111980325Y-95513264D01*
X111970754Y-95573696D01*
X111952549Y-95598754D01*
X111847633Y-95703672D01*
X111810015Y-95750351D01*
X111750226Y-95881266D01*
X111750224Y-95881271D01*
X111729745Y-96023722D01*
X111729745Y-96023729D01*
X111750224Y-96166179D01*
X111810013Y-96297097D01*
X111810015Y-96297101D01*
X111847631Y-96343779D01*
X112071021Y-96567168D01*
X112093636Y-96605279D01*
X112093766Y-96605220D01*
X112094316Y-96606425D01*
X112096005Y-96609271D01*
X112096706Y-96611657D01*
X112156494Y-96742573D01*
X112156495Y-96742576D01*
X112194114Y-96789258D01*
X112194115Y-96789259D01*
X112615371Y-97210513D01*
X112662054Y-97248134D01*
X112775045Y-97299736D01*
X112820121Y-97341107D01*
X112832917Y-97389788D01*
X112832917Y-101776839D01*
X112814010Y-101835030D01*
X112803921Y-101846843D01*
X112575929Y-102074835D01*
X112521412Y-102102612D01*
X112460980Y-102093041D01*
X112417715Y-102049776D01*
X112408144Y-101989344D01*
X112414461Y-101966946D01*
X112422706Y-101947041D01*
X112469737Y-101833497D01*
X112500500Y-101678842D01*
X112500500Y-101521158D01*
X112469737Y-101366503D01*
X112436179Y-101285487D01*
X112409396Y-101220825D01*
X112409390Y-101220814D01*
X112365448Y-101155051D01*
X112321789Y-101089711D01*
X112210289Y-100978211D01*
X112158059Y-100943312D01*
X112079185Y-100890609D01*
X112079174Y-100890603D01*
X111933497Y-100830263D01*
X111778844Y-100799500D01*
X111778842Y-100799500D01*
X111621158Y-100799500D01*
X111621155Y-100799500D01*
X111466503Y-100830263D01*
X111466501Y-100830263D01*
X111320825Y-100890603D01*
X111320814Y-100890609D01*
X111189711Y-100978211D01*
X111189707Y-100978214D01*
X111078214Y-101089707D01*
X111078211Y-101089711D01*
X110990609Y-101220814D01*
X110990603Y-101220825D01*
X110930263Y-101366501D01*
X110930263Y-101366503D01*
X110899500Y-101521155D01*
X110899500Y-101678844D01*
X110930263Y-101833496D01*
X110930263Y-101833498D01*
X110977294Y-101947041D01*
X110982095Y-102008037D01*
X110955834Y-102054930D01*
X109188218Y-103822547D01*
X109133701Y-103850324D01*
X109073269Y-103840753D01*
X109035898Y-103807543D01*
X109018501Y-103781506D01*
X109018500Y-103781505D01*
X109018499Y-103781503D01*
X109018495Y-103781500D01*
X109016999Y-103780004D01*
X109015397Y-103776861D01*
X109013081Y-103773394D01*
X109013491Y-103773119D01*
X108989222Y-103725487D01*
X108998793Y-103665055D01*
X109016999Y-103639996D01*
X109018492Y-103638501D01*
X109018499Y-103638497D01*
X109051762Y-103588715D01*
X109060495Y-103544813D01*
X109060495Y-102815187D01*
X109060494Y-102815185D01*
X109060494Y-102815179D01*
X109051762Y-102771286D01*
X109051760Y-102771282D01*
X109030215Y-102739037D01*
X109018499Y-102721503D01*
X109018495Y-102721500D01*
X109016999Y-102720004D01*
X109015398Y-102716863D01*
X109013082Y-102713396D01*
X109013492Y-102713121D01*
X108989222Y-102665487D01*
X108998793Y-102605055D01*
X109016999Y-102579996D01*
X109018492Y-102578501D01*
X109018499Y-102578497D01*
X109051762Y-102528715D01*
X109060495Y-102484813D01*
X109060495Y-101755187D01*
X109060494Y-101755185D01*
X109060494Y-101755179D01*
X109051762Y-101711286D01*
X109051760Y-101711282D01*
X109018500Y-101661505D01*
X109018499Y-101661503D01*
X109018495Y-101661500D01*
X109016999Y-101660004D01*
X109015398Y-101656863D01*
X109013082Y-101653396D01*
X109013492Y-101653121D01*
X108989222Y-101605487D01*
X108998793Y-101545055D01*
X109016999Y-101519996D01*
X109018492Y-101518501D01*
X109018499Y-101518497D01*
X109051762Y-101468715D01*
X109060495Y-101424813D01*
X109060495Y-100695187D01*
X109060494Y-100695185D01*
X109060494Y-100695179D01*
X109051762Y-100651286D01*
X109051760Y-100651282D01*
X109018500Y-100601505D01*
X109018499Y-100601503D01*
X109018495Y-100601500D01*
X109016999Y-100600004D01*
X109015398Y-100596863D01*
X109013082Y-100593396D01*
X109013492Y-100593121D01*
X108989222Y-100545487D01*
X108998793Y-100485055D01*
X109016999Y-100459996D01*
X109018492Y-100458501D01*
X109018499Y-100458497D01*
X109051762Y-100408715D01*
X109060495Y-100364813D01*
X109060495Y-99635187D01*
X109060494Y-99635185D01*
X109060494Y-99635179D01*
X109051762Y-99591286D01*
X109051760Y-99591282D01*
X109018500Y-99541505D01*
X109018499Y-99541503D01*
X109018495Y-99541500D01*
X109016999Y-99540004D01*
X109015398Y-99536863D01*
X109013082Y-99533396D01*
X109013492Y-99533121D01*
X108989222Y-99485487D01*
X108998793Y-99425055D01*
X109016999Y-99399996D01*
X109018492Y-99398501D01*
X109018499Y-99398497D01*
X109051762Y-99348715D01*
X109060495Y-99304813D01*
X109060495Y-98579500D01*
X109079402Y-98521309D01*
X109128902Y-98485345D01*
X109159495Y-98480500D01*
X110491971Y-98480500D01*
X110491987Y-98480501D01*
X110498050Y-98480501D01*
X110656163Y-98480501D01*
X110656164Y-98480501D01*
X110808892Y-98439577D01*
X110859011Y-98410639D01*
X110945823Y-98360520D01*
X111057627Y-98248716D01*
X111057627Y-98248714D01*
X111065777Y-98240565D01*
X111065778Y-98240562D01*
X111291473Y-98014868D01*
X111320342Y-97994824D01*
X111391535Y-97962312D01*
X111438218Y-97924693D01*
X111859472Y-97503437D01*
X111897093Y-97456754D01*
X111956881Y-97325839D01*
X111957650Y-97320493D01*
X111977362Y-97183384D01*
X111977362Y-97183377D01*
X111956882Y-97040927D01*
X111911515Y-96941588D01*
X111897093Y-96910008D01*
X111859474Y-96863326D01*
X111593781Y-96597635D01*
X111553415Y-96565104D01*
X111538453Y-96550141D01*
X111505922Y-96509773D01*
X111240236Y-96244089D01*
X111240228Y-96244081D01*
X111199857Y-96211546D01*
X111184896Y-96196584D01*
X111152372Y-96156225D01*
X111152371Y-96156224D01*
X111152367Y-96156219D01*
X111146443Y-96150295D01*
X111118667Y-96095780D01*
X111128238Y-96035348D01*
X111146444Y-96010290D01*
X111159436Y-95997299D01*
X111191970Y-95956928D01*
X111206926Y-95941972D01*
X111247299Y-95909438D01*
X111512990Y-95643745D01*
X111545528Y-95603369D01*
X111560484Y-95588415D01*
X111600852Y-95555885D01*
X111755266Y-95401469D01*
X111809779Y-95373693D01*
X111870211Y-95383264D01*
G37*
%TD.AperFunction*%
%TA.AperFunction,Conductor*%
G36*
X83970947Y-96044434D02*
G01*
X84120578Y-96044434D01*
X84178769Y-96063341D01*
X84214733Y-96112841D01*
X84218570Y-96129346D01*
X84224454Y-96170273D01*
X84265145Y-96259373D01*
X84272120Y-96320160D01*
X84242034Y-96373437D01*
X84186378Y-96398855D01*
X84175092Y-96399500D01*
X81533197Y-96399500D01*
X81475006Y-96380593D01*
X81439042Y-96331093D01*
X81439042Y-96269907D01*
X81463191Y-96230498D01*
X81570340Y-96123350D01*
X81570344Y-96123344D01*
X81590009Y-96091462D01*
X81636649Y-96051860D01*
X81674270Y-96044433D01*
X83970931Y-96044433D01*
X83970947Y-96044434D01*
G37*
%TD.AperFunction*%
%TA.AperFunction,Conductor*%
G36*
X109742715Y-90479417D02*
G01*
X109778679Y-90528917D01*
X109778679Y-90590103D01*
X109754528Y-90629514D01*
X109211049Y-91172992D01*
X109156532Y-91200769D01*
X109096100Y-91191198D01*
X109052835Y-91147933D01*
X109043948Y-91122305D01*
X109041757Y-91111293D01*
X109041755Y-91111289D01*
X109024994Y-91086204D01*
X109008494Y-91061510D01*
X108960589Y-91029501D01*
X108958714Y-91028248D01*
X108958710Y-91028246D01*
X108914817Y-91019514D01*
X108914810Y-91019514D01*
X107585180Y-91019514D01*
X107585172Y-91019514D01*
X107541279Y-91028246D01*
X107541275Y-91028248D01*
X107491498Y-91061508D01*
X107491494Y-91061512D01*
X107458234Y-91111289D01*
X107458232Y-91111293D01*
X107449500Y-91155186D01*
X107449500Y-91884827D01*
X107458232Y-91928720D01*
X107458233Y-91928722D01*
X107491496Y-91978504D01*
X107541278Y-92011767D01*
X107550498Y-92013601D01*
X107585172Y-92020499D01*
X107585178Y-92020499D01*
X107585180Y-92020500D01*
X107585181Y-92020500D01*
X108726933Y-92020500D01*
X108785124Y-92039407D01*
X108821088Y-92088907D01*
X108821088Y-92150093D01*
X108796938Y-92189501D01*
X108791281Y-92195159D01*
X108791279Y-92195161D01*
X108791270Y-92195168D01*
X108679475Y-92306964D01*
X108646116Y-92364742D01*
X108646117Y-92364743D01*
X108607700Y-92431284D01*
X108600418Y-92443896D01*
X108559494Y-92596624D01*
X108559494Y-92596626D01*
X108559494Y-92762712D01*
X108559495Y-92762725D01*
X108559495Y-93810264D01*
X108540588Y-93868455D01*
X108530499Y-93880268D01*
X108340263Y-94070504D01*
X108285746Y-94098281D01*
X108270259Y-94099500D01*
X108180943Y-94099500D01*
X108028216Y-94140423D01*
X107948850Y-94186244D01*
X107899352Y-94199507D01*
X107595177Y-94199507D01*
X107551284Y-94208239D01*
X107551280Y-94208241D01*
X107501503Y-94241501D01*
X107501499Y-94241505D01*
X107468239Y-94291282D01*
X107468237Y-94291286D01*
X107459505Y-94335179D01*
X107459505Y-94914804D01*
X107440598Y-94972995D01*
X107391098Y-95008959D01*
X107341191Y-95011902D01*
X107278844Y-94999500D01*
X107278842Y-94999500D01*
X107121158Y-94999500D01*
X107121153Y-94999500D01*
X107118813Y-94999966D01*
X107117728Y-94999837D01*
X107116313Y-94999977D01*
X107116282Y-94999666D01*
X107058052Y-94992774D01*
X107013122Y-94951241D01*
X107000500Y-94902868D01*
X107000500Y-90559510D01*
X107019407Y-90501319D01*
X107068907Y-90465355D01*
X107099500Y-90460510D01*
X109684524Y-90460510D01*
X109742715Y-90479417D01*
G37*
%TD.AperFunction*%
%TA.AperFunction,Conductor*%
G36*
X83867483Y-93019407D02*
G01*
X83903447Y-93068907D01*
X83903447Y-93130093D01*
X83871412Y-93176584D01*
X83871289Y-93176684D01*
X83859231Y-93186400D01*
X83859229Y-93186402D01*
X83614759Y-93430874D01*
X83614756Y-93430878D01*
X83577136Y-93477560D01*
X83577135Y-93477561D01*
X83573250Y-93482383D01*
X83571771Y-93481191D01*
X83555996Y-93496972D01*
X83557185Y-93498447D01*
X83505679Y-93539952D01*
X83505675Y-93539956D01*
X83261205Y-93784428D01*
X83223580Y-93831116D01*
X83223577Y-93831121D01*
X83163793Y-93962028D01*
X83163793Y-93962030D01*
X83143312Y-94104484D01*
X83143312Y-94104489D01*
X83163793Y-94246944D01*
X83223579Y-94377856D01*
X83223582Y-94377860D01*
X83261196Y-94424539D01*
X83261203Y-94424547D01*
X83511087Y-94674429D01*
X83538865Y-94728946D01*
X83529294Y-94789378D01*
X83486029Y-94832642D01*
X83441084Y-94843433D01*
X81763859Y-94843433D01*
X81705668Y-94824526D01*
X81669884Y-94775572D01*
X81660909Y-94748487D01*
X81660908Y-94748486D01*
X81660908Y-94748484D01*
X81619475Y-94681310D01*
X81570342Y-94601653D01*
X81570341Y-94601652D01*
X81570340Y-94601650D01*
X81448350Y-94479660D01*
X81448347Y-94479658D01*
X81448346Y-94479657D01*
X81301520Y-94389094D01*
X81301514Y-94389091D01*
X81137756Y-94334827D01*
X81137746Y-94334824D01*
X81036684Y-94324500D01*
X80463315Y-94324500D01*
X80362255Y-94334824D01*
X80362243Y-94334827D01*
X80198485Y-94389091D01*
X80198479Y-94389094D01*
X80051652Y-94479658D01*
X80051649Y-94479660D01*
X79957295Y-94574014D01*
X79902779Y-94601791D01*
X79842346Y-94592219D01*
X79825888Y-94581667D01*
X79823347Y-94579658D01*
X79676520Y-94489094D01*
X79676514Y-94489091D01*
X79512756Y-94434827D01*
X79512746Y-94434824D01*
X79411684Y-94424500D01*
X78713315Y-94424500D01*
X78612255Y-94434824D01*
X78612243Y-94434827D01*
X78448485Y-94489091D01*
X78448479Y-94489094D01*
X78301653Y-94579657D01*
X78270003Y-94611307D01*
X78215486Y-94639083D01*
X78155054Y-94629511D01*
X78142663Y-94622008D01*
X78135876Y-94617186D01*
X78098350Y-94579660D01*
X77982292Y-94508075D01*
X77979663Y-94506207D01*
X77963250Y-94484114D01*
X77945426Y-94463121D01*
X77944619Y-94459035D01*
X77943176Y-94457092D01*
X77943115Y-94451417D01*
X77938000Y-94425501D01*
X77938000Y-93864498D01*
X77956907Y-93806307D01*
X77985026Y-93780238D01*
X78098350Y-93710340D01*
X78129998Y-93678691D01*
X78184513Y-93650916D01*
X78244945Y-93660487D01*
X78270000Y-93678690D01*
X78301650Y-93710340D01*
X78301652Y-93710341D01*
X78301653Y-93710342D01*
X78404976Y-93774072D01*
X78448484Y-93800908D01*
X78612247Y-93855174D01*
X78612251Y-93855174D01*
X78612253Y-93855175D01*
X78680905Y-93862188D01*
X78713323Y-93865500D01*
X79411676Y-93865499D01*
X79411684Y-93865499D01*
X79512744Y-93855175D01*
X79512744Y-93855174D01*
X79512753Y-93855174D01*
X79676516Y-93800908D01*
X79823350Y-93710340D01*
X79945340Y-93588350D01*
X80035908Y-93441516D01*
X80090174Y-93277753D01*
X80092304Y-93256903D01*
X80100500Y-93176684D01*
X80100500Y-93099500D01*
X80119407Y-93041309D01*
X80168907Y-93005345D01*
X80199500Y-93000500D01*
X83809292Y-93000500D01*
X83867483Y-93019407D01*
G37*
%TD.AperFunction*%
%TA.AperFunction,Conductor*%
G36*
X91357541Y-92228036D02*
G01*
X91433536Y-92259513D01*
X91506503Y-92289737D01*
X91661158Y-92320500D01*
X91990495Y-92320500D01*
X92048686Y-92339407D01*
X92084650Y-92388907D01*
X92089495Y-92419500D01*
X92089495Y-94042944D01*
X92070588Y-94101135D01*
X92021088Y-94137099D01*
X91964872Y-94138571D01*
X91819057Y-94099500D01*
X91819055Y-94099500D01*
X89989743Y-94099500D01*
X89931552Y-94080593D01*
X89919739Y-94070504D01*
X89655719Y-93806484D01*
X89655718Y-93806482D01*
X89543914Y-93694678D01*
X89457102Y-93644558D01*
X89457101Y-93644557D01*
X89406986Y-93615623D01*
X89406983Y-93615621D01*
X89254255Y-93574697D01*
X89096141Y-93574697D01*
X89090078Y-93574697D01*
X89090062Y-93574698D01*
X88499500Y-93574698D01*
X88441309Y-93555791D01*
X88405345Y-93506291D01*
X88400500Y-93475698D01*
X88400500Y-92720946D01*
X88400500Y-92720943D01*
X88400113Y-92719500D01*
X88400114Y-92719479D01*
X88400108Y-92719481D01*
X88383692Y-92658215D01*
X88382670Y-92654402D01*
X88359577Y-92568216D01*
X88280520Y-92431284D01*
X88238737Y-92389501D01*
X88210962Y-92334987D01*
X88220533Y-92274555D01*
X88263798Y-92231290D01*
X88308743Y-92220500D01*
X90188507Y-92220500D01*
X90621011Y-92220500D01*
X90621012Y-92220500D01*
X91319656Y-92220500D01*
X91357541Y-92228036D01*
G37*
%TD.AperFunction*%
%TD*%
M02*
