%TF.GenerationSoftware,KiCad,Pcbnew,10.0.5*%
%TF.CreationDate,2026-08-03T15:17:48-04:00*%
%TF.ProjectId,tracker,74726163-6b65-4722-9e6b-696361645f70,rev?*%
%TF.SameCoordinates,Original*%
%TF.FileFunction,Copper,L2,Bot*%
%TF.FilePolarity,Positive*%
%FSLAX46Y46*%
G04 Gerber Fmt 4.6, Leading zero omitted, Abs format (unit mm)*
G04 Created by KiCad (PCBNEW 10.0.5) date 2026-08-03 15:17:48*
%MOMM*%
%LPD*%
G01*
G04 APERTURE LIST*
G04 Aperture macros list*
%AMRoundRect*
0 Rectangle with rounded corners*
0 $1 Rounding radius*
0 $2 $3 $4 $5 $6 $7 $8 $9 X,Y pos of 4 corners*
0 Add a 4 corners polygon primitive as box body*
4,1,4,$2,$3,$4,$5,$6,$7,$8,$9,$2,$3,0*
0 Add four circle primitives for the rounded corners*
1,1,$1+$1,$2,$3*
1,1,$1+$1,$4,$5*
1,1,$1+$1,$6,$7*
1,1,$1+$1,$8,$9*
0 Add four rect primitives between the rounded corners*
20,1,$1+$1,$2,$3,$4,$5,0*
20,1,$1+$1,$4,$5,$6,$7,0*
20,1,$1+$1,$6,$7,$8,$9,0*
20,1,$1+$1,$8,$9,$2,$3,0*%
G04 Aperture macros list end*
%TA.AperFunction,ComponentPad*%
%ADD10R,3.790000X4.740000*%
%TD*%
%TA.AperFunction,ComponentPad*%
%ADD11O,1.000000X2.100000*%
%TD*%
%TA.AperFunction,ComponentPad*%
%ADD12O,1.000000X1.800000*%
%TD*%
%TA.AperFunction,ComponentPad*%
%ADD13RoundRect,0.250000X0.625000X-0.350000X0.625000X0.350000X-0.625000X0.350000X-0.625000X-0.350000X0*%
%TD*%
%TA.AperFunction,ComponentPad*%
%ADD14O,1.750000X1.200000*%
%TD*%
%TA.AperFunction,SMDPad,CuDef*%
%ADD15RoundRect,0.160000X0.160000X-0.197500X0.160000X0.197500X-0.160000X0.197500X-0.160000X-0.197500X0*%
%TD*%
%TA.AperFunction,SMDPad,CuDef*%
%ADD16RoundRect,0.155000X-0.155000X0.212500X-0.155000X-0.212500X0.155000X-0.212500X0.155000X0.212500X0*%
%TD*%
%TA.AperFunction,SMDPad,CuDef*%
%ADD17R,1.000000X1.050000*%
%TD*%
%TA.AperFunction,SMDPad,CuDef*%
%ADD18R,1.050000X2.200000*%
%TD*%
%TA.AperFunction,SMDPad,CuDef*%
%ADD19R,1.800000X0.700000*%
%TD*%
%TA.AperFunction,ComponentPad*%
%ADD20R,1.700000X1.700000*%
%TD*%
%TA.AperFunction,ComponentPad*%
%ADD21C,1.700000*%
%TD*%
%TA.AperFunction,ViaPad*%
%ADD22C,0.600000*%
%TD*%
%TA.AperFunction,Conductor*%
%ADD23C,0.200000*%
%TD*%
%TA.AperFunction,Conductor*%
%ADD24C,0.400000*%
%TD*%
%TA.AperFunction,Conductor*%
%ADD25C,0.828705*%
%TD*%
G04 APERTURE END LIST*
D10*
%TO.P,U1,39,GND_39*%
%TO.N,GND*%
X101570146Y-101375252D03*
%TD*%
D11*
%TO.P,J1,SH,SHIELD_SH*%
%TO.N,GND*%
X95680000Y-122975000D03*
D12*
X95680000Y-127175000D03*
D11*
X104320000Y-122975000D03*
D12*
X104320000Y-127175000D03*
%TD*%
D13*
%TO.P,J2,1,Pin_1_1*%
%TO.N,GND*%
X114800000Y-80400000D03*
D14*
%TO.P,J2,2,Pin_2_2*%
%TO.N,V_BAT*%
X114800000Y-78400000D03*
%TD*%
D15*
%TO.P,R4,1*%
%TO.N,Net-(U3-RF_IN)*%
X125000000Y-102697500D03*
%TO.P,R4,2*%
%TO.N,Net-(JP1-SIG)*%
X125000000Y-101502500D03*
%TD*%
D16*
%TO.P,C1,1*%
%TO.N,Net-(U3-RF_IN)*%
X125000000Y-104032500D03*
%TO.P,C1,2*%
%TO.N,GND*%
X125000000Y-105167500D03*
%TD*%
D17*
%TO.P,JP1,1,SIG_1*%
%TO.N,Net-(JP1-SIG)*%
X125000000Y-100110000D03*
D18*
%TO.P,JP1,2,GND_2*%
%TO.N,GND*%
X126470000Y-98590000D03*
%TO.P,JP1,3,GND_3*%
X123530000Y-98590000D03*
%TD*%
D19*
%TO.P,U3,1,GND_1*%
%TO.N,GND*%
X111700000Y-110400000D03*
%TO.P,U3,2,TXD_2*%
%TO.N,WIO_I_GPS_O*%
X111700000Y-109300000D03*
%TO.P,U3,3,RXD_3*%
%TO.N,WIO_O_GPS_I*%
X111700000Y-108200000D03*
%TO.P,U3,4,TIMEPULSE_4*%
%TO.N,GPS_PULSE*%
X111700000Y-107100000D03*
%TO.P,U3,5,EXTINT_5*%
%TO.N,GPS_INT*%
X111700000Y-106000000D03*
%TO.P,U3,6,V_BCKP_6*%
%TO.N,unconnected-(U3-V_BCKP-Pad6)*%
X111700000Y-104900000D03*
%TO.P,U3,7,V_IO_7*%
%TO.N,3.3V*%
X111700000Y-103800000D03*
%TO.P,U3,8,VCC_8*%
X111700000Y-102700000D03*
%TO.P,U3,9,RESET_N_9*%
%TO.N,GPS_RST*%
X111700000Y-101600000D03*
%TO.P,U3,10,GND_10*%
%TO.N,GND*%
X121300000Y-101600000D03*
%TO.P,U3,11,RF_IN_11*%
%TO.N,Net-(U3-RF_IN)*%
X121300000Y-102700000D03*
%TO.P,U3,12,GND_12*%
%TO.N,GND*%
X121300000Y-103800000D03*
%TO.P,U3,13,LNA_EN_13*%
%TO.N,unconnected-(U3-LNA_EN-Pad13)*%
X121300000Y-104900000D03*
%TO.P,U3,14,VCC_RF_14*%
%TO.N,unconnected-(U3-VCC_RF-Pad14)*%
X121300000Y-106000000D03*
%TO.P,U3,15,VIO_SEL_15*%
%TO.N,unconnected-(U3-VIO_SEL-Pad15)*%
X121300000Y-107100000D03*
%TO.P,U3,16,SDA_16*%
%TO.N,unconnected-(U3-SDA-Pad16)*%
X121300000Y-108200000D03*
%TO.P,U3,17,SCL_17*%
%TO.N,unconnected-(U3-SCL-Pad17)*%
X121300000Y-109300000D03*
%TO.P,U3,18,SAFEBOOT_N_18*%
%TO.N,unconnected-(U3-SAFEBOOT_N-Pad18)*%
X121300000Y-110400000D03*
%TD*%
D20*
%TO.P,J3,1,Pin_1_1*%
%TO.N,3.3V*%
X75000000Y-92380000D03*
D21*
%TO.P,J3,2,Pin_2_2*%
%TO.N,GND*%
X75000000Y-94920000D03*
%TO.P,J3,3,Pin_3_3*%
%TO.N,LCD_SCL*%
X75000000Y-97460000D03*
%TO.P,J3,4,Pin_4_4*%
%TO.N,LCD_SDA*%
X75000000Y-100000000D03*
%TO.P,J3,5,Pin_5_5*%
%TO.N,LCD_DC*%
X75000000Y-102540000D03*
%TO.P,J3,6,Pin_6_6*%
%TO.N,LCD_CS*%
X75000000Y-105080000D03*
%TO.P,J3,7,Pin_7_7*%
%TO.N,LCD_RST*%
X75000000Y-107620000D03*
%TD*%
D16*
%TO.P,C2,1*%
%TO.N,Net-(JP1-SIG)*%
X126000000Y-101532500D03*
%TO.P,C2,2*%
%TO.N,GND*%
X126000000Y-102667500D03*
%TD*%
D22*
%TO.N,GND*%
X122500000Y-97250000D03*
X124000000Y-97250000D03*
X125000000Y-106500000D03*
X96500000Y-120100000D03*
X120250000Y-101000000D03*
X127000000Y-99500000D03*
X119750000Y-101500000D03*
X73250000Y-101250000D03*
X123250000Y-97250000D03*
X110250000Y-100000000D03*
X126500000Y-105250000D03*
X81500000Y-113500000D03*
X122500000Y-101000000D03*
X121000000Y-101000000D03*
X127000000Y-97250000D03*
X127000000Y-98000000D03*
X127000000Y-100250000D03*
X126500000Y-103750000D03*
X119750000Y-103000000D03*
X122500000Y-100250000D03*
X122750000Y-103750000D03*
X119750000Y-102250000D03*
X86775000Y-106800000D03*
X124250000Y-106000000D03*
X90000000Y-93000000D03*
X127000000Y-102500000D03*
X125500000Y-97250000D03*
X124750000Y-97250000D03*
X93500000Y-102500000D03*
X101500000Y-110500000D03*
X126250000Y-97250000D03*
X125750000Y-106000000D03*
X121750000Y-101000000D03*
X109750000Y-105500000D03*
X127000000Y-98750000D03*
X122500000Y-99500000D03*
X96000000Y-113000000D03*
X122500000Y-98750000D03*
X127000000Y-101750000D03*
X126500000Y-104500000D03*
X123500000Y-104500000D03*
X82500000Y-93000000D03*
X123500000Y-105250000D03*
X123500000Y-103750000D03*
X108260000Y-93640000D03*
X122500000Y-98000000D03*
X83250000Y-96150000D03*
X119750000Y-103750000D03*
X127000000Y-101000000D03*
X94000000Y-127250000D03*
X127000000Y-103250000D03*
X109400000Y-90600000D03*
X125000000Y-98350000D03*
%TO.N,3.3V*%
X87000000Y-91520000D03*
X111700000Y-103800000D03*
X87000000Y-93200000D03*
%TO.N,5V*%
X102400000Y-121400000D03*
X97600000Y-121400000D03*
%TO.N,V_BAT*%
X86775000Y-105850000D03*
%TO.N,BOOT*%
X106400000Y-88600000D03*
X107200000Y-95800000D03*
%TO.N,WIO_I_GPS_O*%
X111700000Y-109300000D03*
%TO.N,WIO_O_GPS_I*%
X111700000Y-108200000D03*
%TO.N,GPS_PULSE*%
X111700000Y-107100000D03*
%TO.N,GPS_INT*%
X111700000Y-106000000D03*
%TO.N,GPS_RST*%
X111700000Y-101600000D03*
%TD*%
%TO.N,3.3V*%
D23*
X111700000Y-103800000D02*
X111700000Y-102700000D01*
X87000000Y-93200000D02*
X87000000Y-91520000D01*
%TO.N,5V*%
D24*
X97600000Y-121400000D02*
X102400000Y-121400000D01*
%TO.N,V_BAT*%
X86775000Y-105850000D02*
X88250000Y-104375000D01*
X88250000Y-104375000D02*
X88250000Y-86050000D01*
X95900000Y-78400000D02*
X114800000Y-78400000D01*
X88250000Y-86050000D02*
X95900000Y-78400000D01*
%TO.N,BOOT*%
D23*
X107200000Y-89400000D02*
X106400000Y-88600000D01*
X107200000Y-95800000D02*
X107200000Y-89400000D01*
%TO.N,Net-(U3-RF_IN)*%
D25*
X121300000Y-102700000D02*
X124997500Y-102700000D01*
X124997500Y-102700000D02*
X125000000Y-102697500D01*
X125000000Y-102697500D02*
X125000000Y-104032500D01*
%TO.N,Net-(JP1-SIG)*%
X125000000Y-101502500D02*
X125000000Y-100110000D01*
X125970000Y-101502500D02*
X126000000Y-101532500D01*
X125000000Y-101502500D02*
X125970000Y-101502500D01*
D23*
X125030000Y-101532500D02*
X125000000Y-101502500D01*
%TD*%
%TA.AperFunction,Conductor*%
%TO.N,GND*%
G36*
X101061609Y-71520313D02*
G01*
X101065239Y-71520448D01*
X102123541Y-71579757D01*
X102127203Y-71580032D01*
X103182517Y-71678786D01*
X103186119Y-71679190D01*
X104237080Y-71817262D01*
X104240718Y-71817810D01*
X105285723Y-71994988D01*
X105289299Y-71995662D01*
X106327051Y-72211728D01*
X106330584Y-72212534D01*
X107359500Y-72467159D01*
X107363015Y-72468099D01*
X108381733Y-72760945D01*
X108385208Y-72762014D01*
X109392286Y-73092668D01*
X109395733Y-73093872D01*
X109953111Y-73300217D01*
X110389731Y-73461857D01*
X110393170Y-73463203D01*
X111372768Y-73868032D01*
X111376100Y-73869482D01*
X112339920Y-74310587D01*
X112343208Y-74312167D01*
X113289858Y-74788907D01*
X113293127Y-74790630D01*
X114221344Y-75302371D01*
X114224545Y-75304215D01*
X115132986Y-75850212D01*
X115136117Y-75852174D01*
X116023565Y-76431697D01*
X116026620Y-76433774D01*
X116891826Y-77046008D01*
X116894802Y-77048198D01*
X117736591Y-77692312D01*
X117739448Y-77694584D01*
X118081978Y-77977555D01*
X118556601Y-78369650D01*
X118559405Y-78372056D01*
X118687987Y-78486614D01*
X119350814Y-79077152D01*
X119353483Y-79079621D01*
X120118013Y-79813740D01*
X120120630Y-79816348D01*
X120857241Y-80578491D01*
X120859758Y-80581195D01*
X121567396Y-81370267D01*
X121569811Y-81373063D01*
X122247530Y-82188011D01*
X122249837Y-82190894D01*
X122794388Y-82897782D01*
X122896654Y-83030534D01*
X122898854Y-83033502D01*
X123513907Y-83896718D01*
X123515995Y-83899767D01*
X124098409Y-84785329D01*
X124100381Y-84788453D01*
X124649340Y-85695122D01*
X124651194Y-85698317D01*
X125165943Y-86624843D01*
X125167677Y-86628106D01*
X125647493Y-87573189D01*
X125649104Y-87576514D01*
X126093332Y-88538867D01*
X126094817Y-88542250D01*
X126502805Y-89520458D01*
X126504164Y-89523894D01*
X126875386Y-90516692D01*
X126876615Y-90520176D01*
X127210530Y-91526123D01*
X127211628Y-91529651D01*
X127507768Y-92547338D01*
X127508734Y-92550904D01*
X127766701Y-93578954D01*
X127767533Y-93582554D01*
X127986952Y-94619478D01*
X127987650Y-94623106D01*
X128168235Y-95667555D01*
X128168796Y-95671207D01*
X128280427Y-96500000D01*
X118750000Y-96500000D01*
X118708188Y-97442155D01*
X118606309Y-99737844D01*
X118541325Y-101202155D01*
X118512574Y-101850000D01*
X118408380Y-104197844D01*
X118000000Y-113400000D01*
X124964157Y-113738065D01*
X125221520Y-113267634D01*
X124743818Y-114140825D01*
X124741985Y-114144033D01*
X124198931Y-115054277D01*
X124196979Y-115057414D01*
X123620344Y-115946751D01*
X123618276Y-115949813D01*
X123008865Y-116817003D01*
X123006685Y-116819985D01*
X122365349Y-117663824D01*
X122363059Y-117666724D01*
X121690660Y-118486070D01*
X121688263Y-118488882D01*
X120985766Y-119282560D01*
X120983266Y-119285280D01*
X120251660Y-120052176D01*
X120249061Y-120054801D01*
X119489336Y-120793877D01*
X119486640Y-120796404D01*
X118699850Y-121506631D01*
X118697061Y-121509055D01*
X117884350Y-122189402D01*
X117881473Y-122191720D01*
X117043922Y-122841283D01*
X117040961Y-122843493D01*
X116179760Y-123461348D01*
X116176719Y-123463445D01*
X115293051Y-124048745D01*
X115289933Y-124050727D01*
X114385065Y-124602630D01*
X114381875Y-124604495D01*
X113457022Y-125122263D01*
X113453765Y-125124007D01*
X112510259Y-125606893D01*
X112506939Y-125608515D01*
X111546061Y-126055863D01*
X111542683Y-126057360D01*
X110565762Y-126468551D01*
X110562331Y-126469920D01*
X109570785Y-126844358D01*
X109567305Y-126845599D01*
X108562442Y-127182790D01*
X108558917Y-127183900D01*
X107542176Y-127483360D01*
X107538613Y-127484337D01*
X106511434Y-127745643D01*
X106507837Y-127746487D01*
X105471601Y-127969289D01*
X105467975Y-127969998D01*
X104465256Y-128146732D01*
X104448072Y-128148235D01*
X95551928Y-128148235D01*
X95534744Y-128146732D01*
X94532024Y-127969998D01*
X94528398Y-127969289D01*
X93492162Y-127746487D01*
X93488565Y-127745643D01*
X92461386Y-127484337D01*
X92457823Y-127483360D01*
X91441082Y-127183900D01*
X91437557Y-127182790D01*
X90432694Y-126845599D01*
X90429214Y-126844358D01*
X89437668Y-126469920D01*
X89434237Y-126468551D01*
X88457316Y-126057360D01*
X88453938Y-126055863D01*
X87493060Y-125608515D01*
X87489740Y-125606893D01*
X86546234Y-125124007D01*
X86542977Y-125122263D01*
X85618124Y-124604495D01*
X85614934Y-124602630D01*
X84710066Y-124050727D01*
X84706948Y-124048745D01*
X83871347Y-123495282D01*
X83871347Y-123495281D01*
X83823281Y-123463445D01*
X83820239Y-123461348D01*
X83761538Y-123419234D01*
X96534500Y-123419234D01*
X96534500Y-123570766D01*
X96569086Y-123699847D01*
X96573720Y-123717139D01*
X96649481Y-123848360D01*
X96649483Y-123848362D01*
X96649485Y-123848365D01*
X96756635Y-123955515D01*
X96756637Y-123955516D01*
X96756639Y-123955518D01*
X96887861Y-124031279D01*
X96887859Y-124031279D01*
X96887863Y-124031280D01*
X96887865Y-124031281D01*
X97034234Y-124070500D01*
X97034236Y-124070500D01*
X97185764Y-124070500D01*
X97185766Y-124070500D01*
X97332135Y-124031281D01*
X97332137Y-124031279D01*
X97332139Y-124031279D01*
X97463360Y-123955518D01*
X97463360Y-123955517D01*
X97463365Y-123955515D01*
X97570515Y-123848365D01*
X97646281Y-123717135D01*
X97685500Y-123570766D01*
X97685500Y-123419234D01*
X102314500Y-123419234D01*
X102314500Y-123570766D01*
X102349086Y-123699847D01*
X102353720Y-123717139D01*
X102429481Y-123848360D01*
X102429483Y-123848362D01*
X102429485Y-123848365D01*
X102536635Y-123955515D01*
X102536637Y-123955516D01*
X102536639Y-123955518D01*
X102667861Y-124031279D01*
X102667859Y-124031279D01*
X102667863Y-124031280D01*
X102667865Y-124031281D01*
X102814234Y-124070500D01*
X102814236Y-124070500D01*
X102965764Y-124070500D01*
X102965766Y-124070500D01*
X103112135Y-124031281D01*
X103112137Y-124031279D01*
X103112139Y-124031279D01*
X103243360Y-123955518D01*
X103243360Y-123955517D01*
X103243365Y-123955515D01*
X103350515Y-123848365D01*
X103426281Y-123717135D01*
X103465500Y-123570766D01*
X103465500Y-123419234D01*
X103426281Y-123272865D01*
X103426279Y-123272862D01*
X103426279Y-123272860D01*
X103350518Y-123141639D01*
X103350516Y-123141637D01*
X103350515Y-123141635D01*
X103243365Y-123034485D01*
X103243362Y-123034483D01*
X103243360Y-123034481D01*
X103112138Y-122958720D01*
X103112140Y-122958720D01*
X103055347Y-122943503D01*
X102965766Y-122919500D01*
X102814234Y-122919500D01*
X102724652Y-122943503D01*
X102667860Y-122958720D01*
X102536639Y-123034481D01*
X102429481Y-123141639D01*
X102353720Y-123272860D01*
X102353719Y-123272865D01*
X102314500Y-123419234D01*
X97685500Y-123419234D01*
X97646281Y-123272865D01*
X97646279Y-123272862D01*
X97646279Y-123272860D01*
X97570518Y-123141639D01*
X97570516Y-123141637D01*
X97570515Y-123141635D01*
X97463365Y-123034485D01*
X97463362Y-123034483D01*
X97463360Y-123034481D01*
X97332138Y-122958720D01*
X97332140Y-122958720D01*
X97275347Y-122943503D01*
X97185766Y-122919500D01*
X97034234Y-122919500D01*
X96944652Y-122943503D01*
X96887860Y-122958720D01*
X96756639Y-123034481D01*
X96649481Y-123141639D01*
X96573720Y-123272860D01*
X96573719Y-123272865D01*
X96534500Y-123419234D01*
X83761538Y-123419234D01*
X82959038Y-122843493D01*
X82956077Y-122841283D01*
X82118526Y-122191720D01*
X82115649Y-122189402D01*
X81302925Y-121509043D01*
X81300162Y-121506643D01*
X81094678Y-121321155D01*
X96799500Y-121321155D01*
X96799500Y-121478844D01*
X96830263Y-121633496D01*
X96830263Y-121633498D01*
X96890603Y-121779174D01*
X96890609Y-121779185D01*
X96943312Y-121858059D01*
X96978211Y-121910289D01*
X97089711Y-122021789D01*
X97167876Y-122074017D01*
X97220814Y-122109390D01*
X97220825Y-122109396D01*
X97274638Y-122131685D01*
X97366503Y-122169737D01*
X97521158Y-122200500D01*
X97521159Y-122200500D01*
X97678841Y-122200500D01*
X97678842Y-122200500D01*
X97833497Y-122169737D01*
X97906463Y-122139513D01*
X97982459Y-122108036D01*
X98020344Y-122100500D01*
X101979656Y-122100500D01*
X102017541Y-122108036D01*
X102093536Y-122139513D01*
X102166503Y-122169737D01*
X102321158Y-122200500D01*
X102321159Y-122200500D01*
X102478841Y-122200500D01*
X102478842Y-122200500D01*
X102633497Y-122169737D01*
X102779179Y-122109394D01*
X102910289Y-122021789D01*
X103021789Y-121910289D01*
X103109394Y-121779179D01*
X103169737Y-121633497D01*
X103200500Y-121478842D01*
X103200500Y-121321158D01*
X103169737Y-121166503D01*
X103109394Y-121020821D01*
X103109393Y-121020819D01*
X103109390Y-121020814D01*
X103074017Y-120967876D01*
X103021789Y-120889711D01*
X102910289Y-120778211D01*
X102858059Y-120743312D01*
X102779185Y-120690609D01*
X102779174Y-120690603D01*
X102633497Y-120630263D01*
X102478844Y-120599500D01*
X102478842Y-120599500D01*
X102321158Y-120599500D01*
X102321155Y-120599500D01*
X102166503Y-120630263D01*
X102166501Y-120630263D01*
X102017541Y-120691964D01*
X101979656Y-120699500D01*
X98020344Y-120699500D01*
X97982459Y-120691964D01*
X97833497Y-120630263D01*
X97678844Y-120599500D01*
X97678842Y-120599500D01*
X97521158Y-120599500D01*
X97521155Y-120599500D01*
X97366503Y-120630263D01*
X97366501Y-120630263D01*
X97220825Y-120690603D01*
X97220814Y-120690609D01*
X97089711Y-120778211D01*
X97089707Y-120778214D01*
X96978214Y-120889707D01*
X96978211Y-120889711D01*
X96890609Y-121020814D01*
X96890603Y-121020825D01*
X96830263Y-121166501D01*
X96830263Y-121166503D01*
X96799500Y-121321155D01*
X81094678Y-121321155D01*
X80513337Y-120796384D01*
X80510685Y-120793897D01*
X79750938Y-120054801D01*
X79748339Y-120052176D01*
X79016733Y-119285280D01*
X79014233Y-119282560D01*
X78311736Y-118488882D01*
X78309339Y-118486070D01*
X77636940Y-117666724D01*
X77634650Y-117663824D01*
X76993314Y-116819985D01*
X76991134Y-116817003D01*
X76381723Y-115949813D01*
X76379655Y-115946751D01*
X76317246Y-115850499D01*
X75803020Y-115057414D01*
X75801068Y-115054277D01*
X75258014Y-114144033D01*
X75256181Y-114140825D01*
X75245492Y-114121287D01*
X75112784Y-113878710D01*
X76149500Y-113878710D01*
X76149500Y-114121289D01*
X76181161Y-114361781D01*
X76181161Y-114361786D01*
X76243944Y-114596092D01*
X76243948Y-114596105D01*
X76336772Y-114820204D01*
X76336773Y-114820205D01*
X76336776Y-114820212D01*
X76370552Y-114878713D01*
X76458066Y-115030292D01*
X76605729Y-115222731D01*
X76605731Y-115222733D01*
X76605735Y-115222738D01*
X76777262Y-115394265D01*
X76777266Y-115394268D01*
X76777268Y-115394270D01*
X76946502Y-115524127D01*
X76969711Y-115541936D01*
X77179788Y-115663224D01*
X77403900Y-115756054D01*
X77638211Y-115818838D01*
X77878712Y-115850500D01*
X77878713Y-115850500D01*
X78121287Y-115850500D01*
X78121288Y-115850500D01*
X78361789Y-115818838D01*
X78596100Y-115756054D01*
X78820212Y-115663224D01*
X79030289Y-115541936D01*
X79222738Y-115394265D01*
X79394265Y-115222738D01*
X79541936Y-115030289D01*
X79629450Y-114878710D01*
X113149500Y-114878710D01*
X113149500Y-115121289D01*
X113181161Y-115361781D01*
X113181161Y-115361786D01*
X113243944Y-115596092D01*
X113243948Y-115596105D01*
X113336772Y-115820204D01*
X113336774Y-115820208D01*
X113336776Y-115820212D01*
X113458064Y-116030289D01*
X113458066Y-116030292D01*
X113605729Y-116222731D01*
X113605731Y-116222733D01*
X113605735Y-116222738D01*
X113777262Y-116394265D01*
X113777266Y-116394268D01*
X113777268Y-116394270D01*
X113827397Y-116432735D01*
X113969711Y-116541936D01*
X114179788Y-116663224D01*
X114403900Y-116756054D01*
X114638211Y-116818838D01*
X114878712Y-116850500D01*
X114878713Y-116850500D01*
X115121287Y-116850500D01*
X115121288Y-116850500D01*
X115361789Y-116818838D01*
X115596100Y-116756054D01*
X115820212Y-116663224D01*
X116030289Y-116541936D01*
X116222738Y-116394265D01*
X116394265Y-116222738D01*
X116541936Y-116030289D01*
X116663224Y-115820212D01*
X116756054Y-115596100D01*
X116818838Y-115361789D01*
X116850500Y-115121288D01*
X116850500Y-114878712D01*
X116818838Y-114638211D01*
X116756054Y-114403900D01*
X116663224Y-114179788D01*
X116541936Y-113969711D01*
X116394265Y-113777262D01*
X116222738Y-113605735D01*
X116222733Y-113605731D01*
X116222731Y-113605729D01*
X116030292Y-113458066D01*
X115936486Y-113403907D01*
X115820212Y-113336776D01*
X115820208Y-113336774D01*
X115820204Y-113336772D01*
X115596105Y-113243948D01*
X115596104Y-113243947D01*
X115596100Y-113243946D01*
X115361789Y-113181162D01*
X115361786Y-113181161D01*
X115361784Y-113181161D01*
X115121289Y-113149500D01*
X115121288Y-113149500D01*
X114878712Y-113149500D01*
X114878710Y-113149500D01*
X114638218Y-113181161D01*
X114638213Y-113181161D01*
X114403907Y-113243944D01*
X114403894Y-113243948D01*
X114179795Y-113336772D01*
X113969707Y-113458066D01*
X113777268Y-113605729D01*
X113605729Y-113777268D01*
X113458066Y-113969707D01*
X113336772Y-114179795D01*
X113243948Y-114403894D01*
X113243944Y-114403907D01*
X113181161Y-114638213D01*
X113181161Y-114638218D01*
X113149500Y-114878710D01*
X79629450Y-114878710D01*
X79663224Y-114820212D01*
X79756054Y-114596100D01*
X79818838Y-114361789D01*
X79850500Y-114121288D01*
X79850500Y-113878712D01*
X79818838Y-113638211D01*
X79756054Y-113403900D01*
X79663224Y-113179788D01*
X79541936Y-112969711D01*
X79394265Y-112777262D01*
X79222738Y-112605735D01*
X79222733Y-112605731D01*
X79222731Y-112605729D01*
X79030292Y-112458066D01*
X79030289Y-112458064D01*
X78820212Y-112336776D01*
X78820208Y-112336774D01*
X78820204Y-112336772D01*
X78596105Y-112243948D01*
X78596104Y-112243947D01*
X78596100Y-112243946D01*
X78361789Y-112181162D01*
X78361786Y-112181161D01*
X78361784Y-112181161D01*
X78121289Y-112149500D01*
X78121288Y-112149500D01*
X77878712Y-112149500D01*
X77878710Y-112149500D01*
X77638218Y-112181161D01*
X77638213Y-112181161D01*
X77403907Y-112243944D01*
X77403894Y-112243948D01*
X77179795Y-112336772D01*
X76969707Y-112458066D01*
X76777268Y-112605729D01*
X76605729Y-112777268D01*
X76458066Y-112969707D01*
X76336772Y-113179795D01*
X76243948Y-113403894D01*
X76243944Y-113403907D01*
X76181161Y-113638213D01*
X76181161Y-113638218D01*
X76149500Y-113878710D01*
X75112784Y-113878710D01*
X74853023Y-113403894D01*
X74747490Y-113210990D01*
X74745777Y-113207716D01*
X74445064Y-112605729D01*
X74272099Y-112259476D01*
X74270541Y-112256204D01*
X73832583Y-111290964D01*
X73831141Y-111287621D01*
X73429493Y-110306684D01*
X73428158Y-110303239D01*
X73351395Y-110093796D01*
X73063418Y-109308068D01*
X73062233Y-109304640D01*
X72734856Y-108296476D01*
X72733786Y-108292956D01*
X72444275Y-107273348D01*
X72443338Y-107269797D01*
X72192064Y-106240058D01*
X72191272Y-106236527D01*
X71978592Y-105198105D01*
X71977920Y-105194474D01*
X71958938Y-105080263D01*
X71804145Y-104148899D01*
X71803617Y-104145312D01*
X71668973Y-103093937D01*
X71668573Y-103090271D01*
X71665696Y-103058412D01*
X71573250Y-102034589D01*
X71572994Y-102030998D01*
X71517130Y-100972498D01*
X71517007Y-100968868D01*
X71500679Y-99909022D01*
X71500691Y-99905353D01*
X71523921Y-98845658D01*
X71524068Y-98842032D01*
X71586824Y-97783924D01*
X71587104Y-97780321D01*
X71628427Y-97353709D01*
X73649500Y-97353709D01*
X73649500Y-97566290D01*
X73682752Y-97776238D01*
X73748443Y-97978412D01*
X73844948Y-98167815D01*
X73844950Y-98167819D01*
X73969891Y-98339786D01*
X73969893Y-98339788D01*
X73969896Y-98339792D01*
X74120208Y-98490104D01*
X74120211Y-98490106D01*
X74120213Y-98490108D01*
X74292180Y-98615049D01*
X74292184Y-98615051D01*
X74344662Y-98641790D01*
X74387927Y-98685055D01*
X74397498Y-98745487D01*
X74369720Y-98800004D01*
X74344662Y-98818210D01*
X74292184Y-98844948D01*
X74292180Y-98844950D01*
X74120213Y-98969891D01*
X73969891Y-99120213D01*
X73844950Y-99292180D01*
X73844948Y-99292184D01*
X73748443Y-99481587D01*
X73682752Y-99683761D01*
X73649500Y-99893709D01*
X73649500Y-100106290D01*
X73682752Y-100316238D01*
X73748443Y-100518412D01*
X73844948Y-100707815D01*
X73844950Y-100707819D01*
X73969891Y-100879786D01*
X73969893Y-100879788D01*
X73969896Y-100879792D01*
X74120208Y-101030104D01*
X74120211Y-101030106D01*
X74120213Y-101030108D01*
X74292180Y-101155049D01*
X74292184Y-101155051D01*
X74344662Y-101181790D01*
X74387927Y-101225055D01*
X74397498Y-101285487D01*
X74369720Y-101340004D01*
X74344662Y-101358210D01*
X74292184Y-101384948D01*
X74292180Y-101384950D01*
X74120213Y-101509891D01*
X73969891Y-101660213D01*
X73844950Y-101832180D01*
X73844948Y-101832184D01*
X73748443Y-102021587D01*
X73682752Y-102223761D01*
X73649500Y-102433709D01*
X73649500Y-102646290D01*
X73682752Y-102856238D01*
X73748443Y-103058412D01*
X73844948Y-103247815D01*
X73844950Y-103247819D01*
X73969891Y-103419786D01*
X73969893Y-103419788D01*
X73969896Y-103419792D01*
X74120208Y-103570104D01*
X74120211Y-103570106D01*
X74120213Y-103570108D01*
X74292180Y-103695049D01*
X74292184Y-103695051D01*
X74344662Y-103721790D01*
X74387927Y-103765055D01*
X74397498Y-103825487D01*
X74369720Y-103880004D01*
X74344662Y-103898210D01*
X74292184Y-103924948D01*
X74292180Y-103924950D01*
X74120213Y-104049891D01*
X73969891Y-104200213D01*
X73844950Y-104372180D01*
X73844948Y-104372184D01*
X73748443Y-104561587D01*
X73682752Y-104763761D01*
X73649500Y-104973709D01*
X73649500Y-105186290D01*
X73682752Y-105396238D01*
X73748443Y-105598412D01*
X73844948Y-105787815D01*
X73844950Y-105787819D01*
X73969891Y-105959786D01*
X73969893Y-105959788D01*
X73969896Y-105959792D01*
X74120208Y-106110104D01*
X74120211Y-106110106D01*
X74120213Y-106110108D01*
X74292180Y-106235049D01*
X74292184Y-106235051D01*
X74344662Y-106261790D01*
X74387927Y-106305055D01*
X74397498Y-106365487D01*
X74369720Y-106420004D01*
X74344662Y-106438210D01*
X74292184Y-106464948D01*
X74292180Y-106464950D01*
X74120213Y-106589891D01*
X73969891Y-106740213D01*
X73844950Y-106912180D01*
X73844948Y-106912184D01*
X73748443Y-107101587D01*
X73682752Y-107303761D01*
X73649500Y-107513709D01*
X73649500Y-107726290D01*
X73682752Y-107936238D01*
X73748443Y-108138412D01*
X73844948Y-108327815D01*
X73844950Y-108327819D01*
X73969891Y-108499786D01*
X73969893Y-108499788D01*
X73969896Y-108499792D01*
X74120208Y-108650104D01*
X74120211Y-108650106D01*
X74120213Y-108650108D01*
X74292180Y-108775049D01*
X74292184Y-108775051D01*
X74481588Y-108871557D01*
X74683757Y-108937246D01*
X74683758Y-108937246D01*
X74683761Y-108937247D01*
X74893710Y-108970500D01*
X74893713Y-108970500D01*
X75106290Y-108970500D01*
X75316238Y-108937247D01*
X75316239Y-108937246D01*
X75316243Y-108937246D01*
X75518412Y-108871557D01*
X75707816Y-108775051D01*
X75879792Y-108650104D01*
X76030104Y-108499792D01*
X76155051Y-108327816D01*
X76251557Y-108138412D01*
X76317246Y-107936243D01*
X76347929Y-107742522D01*
X76350500Y-107726290D01*
X76350500Y-107513709D01*
X76317247Y-107303761D01*
X76307372Y-107273369D01*
X76251557Y-107101588D01*
X76155051Y-106912184D01*
X76155049Y-106912180D01*
X76030108Y-106740213D01*
X76030106Y-106740211D01*
X76030104Y-106740208D01*
X75879792Y-106589896D01*
X75879788Y-106589893D01*
X75879786Y-106589891D01*
X75707819Y-106464950D01*
X75707815Y-106464948D01*
X75676904Y-106449198D01*
X75655336Y-106438209D01*
X75612073Y-106394946D01*
X75602501Y-106334514D01*
X75630278Y-106279997D01*
X75655335Y-106261791D01*
X75707816Y-106235051D01*
X75879792Y-106110104D01*
X76030104Y-105959792D01*
X76155051Y-105787816D01*
X76163539Y-105771158D01*
X76163541Y-105771155D01*
X85974500Y-105771155D01*
X85974500Y-105928844D01*
X86005263Y-106083496D01*
X86005263Y-106083498D01*
X86065603Y-106229174D01*
X86065609Y-106229185D01*
X86116305Y-106305055D01*
X86153211Y-106360289D01*
X86264711Y-106471789D01*
X86342054Y-106523468D01*
X86395814Y-106559390D01*
X86395825Y-106559396D01*
X86449638Y-106581685D01*
X86541503Y-106619737D01*
X86696158Y-106650500D01*
X86696159Y-106650500D01*
X86853841Y-106650500D01*
X86853842Y-106650500D01*
X87008497Y-106619737D01*
X87154179Y-106559394D01*
X87285289Y-106471789D01*
X87396789Y-106360289D01*
X87484394Y-106229179D01*
X87544737Y-106083497D01*
X87544737Y-106083495D01*
X87546094Y-106080220D01*
X87567551Y-106048104D01*
X88794114Y-104821543D01*
X88870775Y-104706811D01*
X88923580Y-104579328D01*
X88950500Y-104443994D01*
X88950500Y-104306006D01*
X88950500Y-101202129D01*
X110299500Y-101202129D01*
X110299500Y-101997866D01*
X110299501Y-101997870D01*
X110305909Y-102057485D01*
X110327511Y-102115404D01*
X110330131Y-102176533D01*
X110327512Y-102184595D01*
X110305909Y-102242515D01*
X110305908Y-102242522D01*
X110301533Y-102283209D01*
X110300667Y-102291278D01*
X110299500Y-102302129D01*
X110299500Y-103097866D01*
X110299501Y-103097870D01*
X110305909Y-103157485D01*
X110327511Y-103215404D01*
X110330131Y-103276533D01*
X110327512Y-103284595D01*
X110305909Y-103342515D01*
X110305908Y-103342522D01*
X110299500Y-103402129D01*
X110299500Y-104197866D01*
X110299501Y-104197870D01*
X110305909Y-104257485D01*
X110327511Y-104315404D01*
X110330131Y-104376533D01*
X110327512Y-104384595D01*
X110305909Y-104442515D01*
X110305908Y-104442522D01*
X110299500Y-104502129D01*
X110299500Y-105297866D01*
X110299501Y-105297870D01*
X110305909Y-105357485D01*
X110327511Y-105415404D01*
X110330131Y-105476533D01*
X110327512Y-105484595D01*
X110305909Y-105542515D01*
X110305909Y-105542519D01*
X110299900Y-105598412D01*
X110299500Y-105602129D01*
X110299500Y-106397866D01*
X110299501Y-106397870D01*
X110305909Y-106457485D01*
X110327511Y-106515404D01*
X110330131Y-106576533D01*
X110327512Y-106584595D01*
X110305909Y-106642515D01*
X110305908Y-106642522D01*
X110299500Y-106702129D01*
X110299500Y-107497866D01*
X110299500Y-107497869D01*
X110299501Y-107497872D01*
X110301204Y-107513713D01*
X110305909Y-107557485D01*
X110327511Y-107615404D01*
X110330131Y-107676533D01*
X110327512Y-107684595D01*
X110305909Y-107742515D01*
X110305908Y-107742522D01*
X110299500Y-107802129D01*
X110299500Y-108597866D01*
X110299501Y-108597870D01*
X110305909Y-108657485D01*
X110327511Y-108715404D01*
X110330131Y-108776533D01*
X110327512Y-108784595D01*
X110305909Y-108842515D01*
X110305908Y-108842522D01*
X110299500Y-108902129D01*
X110299500Y-109697866D01*
X110299501Y-109697870D01*
X110305908Y-109757480D01*
X110305909Y-109757485D01*
X110356202Y-109892329D01*
X110393777Y-109942522D01*
X110442454Y-110007546D01*
X110442457Y-110007548D01*
X110442458Y-110007549D01*
X110557670Y-110093797D01*
X110692511Y-110144089D01*
X110692512Y-110144089D01*
X110692517Y-110144091D01*
X110752127Y-110150500D01*
X112647872Y-110150499D01*
X112707483Y-110144091D01*
X112774907Y-110118943D01*
X112842329Y-110093797D01*
X112842329Y-110093796D01*
X112842331Y-110093796D01*
X112957546Y-110007546D01*
X113043796Y-109892331D01*
X113046682Y-109884595D01*
X113094089Y-109757488D01*
X113094090Y-109757485D01*
X113094091Y-109757483D01*
X113100500Y-109697873D01*
X113100499Y-108902128D01*
X113094091Y-108842517D01*
X113072486Y-108784593D01*
X113069866Y-108723468D01*
X113072477Y-108715430D01*
X113094091Y-108657483D01*
X113100500Y-108597873D01*
X113100499Y-107802128D01*
X113094091Y-107742517D01*
X113072486Y-107684593D01*
X113069866Y-107623468D01*
X113072477Y-107615430D01*
X113094091Y-107557483D01*
X113100500Y-107497873D01*
X113100499Y-106702128D01*
X113094091Y-106642517D01*
X113072486Y-106584593D01*
X113069866Y-106523468D01*
X113072477Y-106515430D01*
X113094091Y-106457483D01*
X113100500Y-106397873D01*
X113100499Y-105602128D01*
X113094091Y-105542517D01*
X113072486Y-105484593D01*
X113069866Y-105423468D01*
X113072477Y-105415430D01*
X113094091Y-105357483D01*
X113100500Y-105297873D01*
X113100499Y-104502128D01*
X113094091Y-104442517D01*
X113072486Y-104384593D01*
X113069866Y-104323468D01*
X113072477Y-104315430D01*
X113094091Y-104257483D01*
X113100500Y-104197873D01*
X113100499Y-103402128D01*
X113094091Y-103342517D01*
X113072486Y-103284593D01*
X113069866Y-103223468D01*
X113072477Y-103215430D01*
X113094091Y-103157483D01*
X113100500Y-103097873D01*
X113100499Y-102302128D01*
X113094091Y-102242517D01*
X113069550Y-102176720D01*
X113067984Y-102168476D01*
X113070834Y-102146051D01*
X113069866Y-102123468D01*
X113072477Y-102115430D01*
X113094091Y-102057483D01*
X113100500Y-101997873D01*
X113100499Y-101202128D01*
X113094091Y-101142517D01*
X113059774Y-101050508D01*
X113043797Y-101007670D01*
X112957549Y-100892458D01*
X112957548Y-100892457D01*
X112957546Y-100892454D01*
X112940624Y-100879786D01*
X112842329Y-100806202D01*
X112707488Y-100755910D01*
X112707483Y-100755909D01*
X112707481Y-100755908D01*
X112707477Y-100755908D01*
X112676249Y-100752550D01*
X112647873Y-100749500D01*
X112647870Y-100749500D01*
X110752133Y-100749500D01*
X110752129Y-100749500D01*
X110752128Y-100749501D01*
X110744949Y-100750272D01*
X110692519Y-100755908D01*
X110692514Y-100755909D01*
X110557670Y-100806202D01*
X110442458Y-100892450D01*
X110442450Y-100892458D01*
X110356202Y-101007670D01*
X110305910Y-101142511D01*
X110305908Y-101142522D01*
X110299500Y-101202129D01*
X88950500Y-101202129D01*
X88950500Y-88521155D01*
X105599500Y-88521155D01*
X105599500Y-88678844D01*
X105630263Y-88833496D01*
X105630263Y-88833498D01*
X105690603Y-88979174D01*
X105690609Y-88979185D01*
X105743312Y-89058059D01*
X105778211Y-89110289D01*
X105889711Y-89221789D01*
X105967876Y-89274017D01*
X106020814Y-89309390D01*
X106020825Y-89309396D01*
X106074638Y-89331685D01*
X106166503Y-89369737D01*
X106296466Y-89395588D01*
X106325928Y-89401449D01*
X106325603Y-89403080D01*
X106375338Y-89424819D01*
X106379601Y-89428836D01*
X106570504Y-89619739D01*
X106598281Y-89674256D01*
X106599500Y-89689743D01*
X106599500Y-95228347D01*
X106580882Y-95285647D01*
X106580913Y-95285668D01*
X106580840Y-95285776D01*
X106580593Y-95286538D01*
X106578655Y-95289046D01*
X106490609Y-95420814D01*
X106490603Y-95420825D01*
X106430263Y-95566501D01*
X106430263Y-95566503D01*
X106399500Y-95721155D01*
X106399500Y-95878844D01*
X106430263Y-96033496D01*
X106430263Y-96033498D01*
X106490603Y-96179174D01*
X106490609Y-96179185D01*
X106543312Y-96258059D01*
X106578211Y-96310289D01*
X106689711Y-96421789D01*
X106767876Y-96474017D01*
X106820814Y-96509390D01*
X106820825Y-96509396D01*
X106874638Y-96531685D01*
X106966503Y-96569737D01*
X107121158Y-96600500D01*
X107121159Y-96600500D01*
X107278841Y-96600500D01*
X107278842Y-96600500D01*
X107433497Y-96569737D01*
X107579179Y-96509394D01*
X107710289Y-96421789D01*
X107821789Y-96310289D01*
X107909394Y-96179179D01*
X107969737Y-96033497D01*
X108000500Y-95878842D01*
X108000500Y-95721158D01*
X107969737Y-95566503D01*
X107909394Y-95420821D01*
X107909393Y-95420819D01*
X107909390Y-95420814D01*
X107859585Y-95346278D01*
X107821789Y-95289711D01*
X107821787Y-95289709D01*
X107819087Y-95285668D01*
X107820459Y-95284751D01*
X107800670Y-95234146D01*
X107800500Y-95228347D01*
X107800500Y-89487044D01*
X107800501Y-89487031D01*
X107800501Y-89320945D01*
X107800501Y-89320943D01*
X107759577Y-89168215D01*
X107723239Y-89105276D01*
X107723238Y-89105275D01*
X107723238Y-89105272D01*
X107680521Y-89031286D01*
X107680520Y-89031284D01*
X107568716Y-88919480D01*
X107568713Y-88919478D01*
X107228836Y-88579601D01*
X107201485Y-88525920D01*
X107201449Y-88525928D01*
X107201423Y-88525799D01*
X107201059Y-88525084D01*
X107200655Y-88521940D01*
X107200500Y-88521160D01*
X107200500Y-88521158D01*
X107169737Y-88366503D01*
X107109394Y-88220821D01*
X107109393Y-88220819D01*
X107109390Y-88220814D01*
X107074017Y-88167876D01*
X107021789Y-88089711D01*
X106910289Y-87978211D01*
X106858059Y-87943312D01*
X106779185Y-87890609D01*
X106779174Y-87890603D01*
X106633497Y-87830263D01*
X106478844Y-87799500D01*
X106478842Y-87799500D01*
X106321158Y-87799500D01*
X106321155Y-87799500D01*
X106166503Y-87830263D01*
X106166501Y-87830263D01*
X106020825Y-87890603D01*
X106020814Y-87890609D01*
X105889711Y-87978211D01*
X105889707Y-87978214D01*
X105778214Y-88089707D01*
X105778211Y-88089711D01*
X105690609Y-88220814D01*
X105690603Y-88220825D01*
X105630263Y-88366501D01*
X105630263Y-88366503D01*
X105599500Y-88521155D01*
X88950500Y-88521155D01*
X88950500Y-86381165D01*
X88969407Y-86322974D01*
X88979496Y-86311161D01*
X90411947Y-84878710D01*
X113149500Y-84878710D01*
X113149500Y-85121289D01*
X113181161Y-85361781D01*
X113181161Y-85361786D01*
X113243944Y-85596092D01*
X113243948Y-85596105D01*
X113336772Y-85820204D01*
X113336774Y-85820208D01*
X113336776Y-85820212D01*
X113429611Y-85981007D01*
X113458066Y-86030292D01*
X113605729Y-86222731D01*
X113605731Y-86222733D01*
X113605735Y-86222738D01*
X113777262Y-86394265D01*
X113777266Y-86394268D01*
X113777268Y-86394270D01*
X113969707Y-86541933D01*
X113969711Y-86541936D01*
X114179788Y-86663224D01*
X114403900Y-86756054D01*
X114638211Y-86818838D01*
X114878712Y-86850500D01*
X114878713Y-86850500D01*
X115121287Y-86850500D01*
X115121288Y-86850500D01*
X115361789Y-86818838D01*
X115596100Y-86756054D01*
X115820212Y-86663224D01*
X116030289Y-86541936D01*
X116222738Y-86394265D01*
X116394265Y-86222738D01*
X116541936Y-86030289D01*
X116663224Y-85820212D01*
X116756054Y-85596100D01*
X116818838Y-85361789D01*
X116850500Y-85121288D01*
X116850500Y-84878712D01*
X116818838Y-84638211D01*
X116756054Y-84403900D01*
X116663224Y-84179788D01*
X116541936Y-83969711D01*
X116485927Y-83896718D01*
X116394270Y-83777268D01*
X116394268Y-83777266D01*
X116394265Y-83777262D01*
X116222738Y-83605735D01*
X116222733Y-83605731D01*
X116222731Y-83605729D01*
X116030292Y-83458066D01*
X116030289Y-83458064D01*
X115820212Y-83336776D01*
X115820208Y-83336774D01*
X115820204Y-83336772D01*
X115596105Y-83243948D01*
X115596104Y-83243947D01*
X115596100Y-83243946D01*
X115361789Y-83181162D01*
X115361786Y-83181161D01*
X115361784Y-83181161D01*
X115121289Y-83149500D01*
X115121288Y-83149500D01*
X114878712Y-83149500D01*
X114878710Y-83149500D01*
X114638218Y-83181161D01*
X114638213Y-83181161D01*
X114403907Y-83243944D01*
X114403894Y-83243948D01*
X114179795Y-83336772D01*
X113969707Y-83458066D01*
X113777268Y-83605729D01*
X113605729Y-83777268D01*
X113458066Y-83969707D01*
X113336772Y-84179795D01*
X113243948Y-84403894D01*
X113243944Y-84403907D01*
X113181161Y-84638213D01*
X113181161Y-84638218D01*
X113149500Y-84878710D01*
X90411947Y-84878710D01*
X96161161Y-79129496D01*
X96215678Y-79101719D01*
X96231165Y-79100500D01*
X113628151Y-79100500D01*
X113686342Y-79119407D01*
X113698148Y-79129490D01*
X113808072Y-79239414D01*
X113948212Y-79341232D01*
X114102555Y-79419873D01*
X114102557Y-79419873D01*
X114102558Y-79419874D01*
X114102561Y-79419876D01*
X114267293Y-79473401D01*
X114267297Y-79473402D01*
X114438386Y-79500500D01*
X114438389Y-79500500D01*
X115161614Y-79500500D01*
X115332702Y-79473402D01*
X115332706Y-79473401D01*
X115497438Y-79419876D01*
X115497440Y-79419874D01*
X115497445Y-79419873D01*
X115651788Y-79341232D01*
X115791928Y-79239414D01*
X115914414Y-79116928D01*
X116016232Y-78976788D01*
X116094873Y-78822445D01*
X116094874Y-78822440D01*
X116094876Y-78822438D01*
X116148401Y-78657706D01*
X116148402Y-78657702D01*
X116175500Y-78486614D01*
X116175500Y-78313385D01*
X116148402Y-78142297D01*
X116148401Y-78142293D01*
X116094876Y-77977561D01*
X116094874Y-77977558D01*
X116094873Y-77977557D01*
X116094873Y-77977555D01*
X116016232Y-77823212D01*
X115914414Y-77683072D01*
X115791928Y-77560586D01*
X115651788Y-77458768D01*
X115651787Y-77458767D01*
X115651785Y-77458766D01*
X115497441Y-77380125D01*
X115497438Y-77380123D01*
X115332706Y-77326598D01*
X115332702Y-77326597D01*
X115161614Y-77299500D01*
X115161611Y-77299500D01*
X114438389Y-77299500D01*
X114438386Y-77299500D01*
X114267297Y-77326597D01*
X114267293Y-77326598D01*
X114102561Y-77380123D01*
X114102558Y-77380125D01*
X113948214Y-77458766D01*
X113808073Y-77560585D01*
X113808072Y-77560586D01*
X113698152Y-77670505D01*
X113643638Y-77698281D01*
X113628151Y-77699500D01*
X95831003Y-77699500D01*
X95695672Y-77726420D01*
X95695670Y-77726420D01*
X95568191Y-77779223D01*
X95453460Y-77855883D01*
X87705883Y-85603460D01*
X87643580Y-85696705D01*
X87629223Y-85718191D01*
X87576420Y-85845670D01*
X87576420Y-85845672D01*
X87549500Y-85981004D01*
X87549500Y-90739194D01*
X87530593Y-90797385D01*
X87481093Y-90833349D01*
X87419907Y-90833349D01*
X87395499Y-90821510D01*
X87379184Y-90810608D01*
X87379174Y-90810603D01*
X87233497Y-90750263D01*
X87078844Y-90719500D01*
X87078842Y-90719500D01*
X86921158Y-90719500D01*
X86921155Y-90719500D01*
X86766503Y-90750263D01*
X86766501Y-90750263D01*
X86620825Y-90810603D01*
X86620814Y-90810609D01*
X86489711Y-90898211D01*
X86489707Y-90898214D01*
X86378214Y-91009707D01*
X86378211Y-91009711D01*
X86290609Y-91140814D01*
X86290603Y-91140825D01*
X86230263Y-91286501D01*
X86230263Y-91286503D01*
X86199500Y-91441155D01*
X86199500Y-91598844D01*
X86230263Y-91753496D01*
X86230263Y-91753498D01*
X86290603Y-91899174D01*
X86290609Y-91899185D01*
X86349029Y-91986615D01*
X86378211Y-92030289D01*
X86378212Y-92030290D01*
X86380913Y-92034332D01*
X86379536Y-92035251D01*
X86399329Y-92085832D01*
X86399500Y-92091652D01*
X86399500Y-92628347D01*
X86380882Y-92685647D01*
X86380913Y-92685668D01*
X86380840Y-92685776D01*
X86380593Y-92686538D01*
X86378655Y-92689046D01*
X86290609Y-92820814D01*
X86290603Y-92820825D01*
X86230263Y-92966501D01*
X86230263Y-92966503D01*
X86199500Y-93121155D01*
X86199500Y-93278844D01*
X86230263Y-93433496D01*
X86230263Y-93433498D01*
X86290603Y-93579174D01*
X86290609Y-93579185D01*
X86343312Y-93658059D01*
X86378211Y-93710289D01*
X86489711Y-93821789D01*
X86567876Y-93874017D01*
X86620814Y-93909390D01*
X86620825Y-93909396D01*
X86674638Y-93931685D01*
X86766503Y-93969737D01*
X86921158Y-94000500D01*
X86921159Y-94000500D01*
X87078841Y-94000500D01*
X87078842Y-94000500D01*
X87233497Y-93969737D01*
X87379179Y-93909394D01*
X87395496Y-93898490D01*
X87454384Y-93881881D01*
X87511788Y-93903057D01*
X87545782Y-93953930D01*
X87549500Y-93980805D01*
X87549500Y-104043834D01*
X87530593Y-104102025D01*
X87520504Y-104113838D01*
X86576895Y-105057446D01*
X86544777Y-105078906D01*
X86395822Y-105140605D01*
X86395814Y-105140609D01*
X86264711Y-105228211D01*
X86264707Y-105228214D01*
X86153214Y-105339707D01*
X86153211Y-105339711D01*
X86065609Y-105470814D01*
X86065603Y-105470825D01*
X86005263Y-105616501D01*
X86005263Y-105616503D01*
X85974500Y-105771155D01*
X76163541Y-105771155D01*
X76188913Y-105721359D01*
X76188918Y-105721349D01*
X76207675Y-105684533D01*
X76251557Y-105598412D01*
X76317246Y-105396243D01*
X76326200Y-105339711D01*
X76350500Y-105186290D01*
X76350500Y-104973709D01*
X76317247Y-104763761D01*
X76257321Y-104579329D01*
X76251557Y-104561588D01*
X76155051Y-104372184D01*
X76155049Y-104372180D01*
X76030108Y-104200213D01*
X76030106Y-104200211D01*
X76030104Y-104200208D01*
X75879792Y-104049896D01*
X75879788Y-104049893D01*
X75879786Y-104049891D01*
X75707819Y-103924950D01*
X75707815Y-103924948D01*
X75676904Y-103909198D01*
X75655336Y-103898209D01*
X75612073Y-103854946D01*
X75602501Y-103794514D01*
X75630278Y-103739997D01*
X75655335Y-103721791D01*
X75707816Y-103695051D01*
X75879792Y-103570104D01*
X76030104Y-103419792D01*
X76155051Y-103247816D01*
X76251557Y-103058412D01*
X76317246Y-102856243D01*
X76350500Y-102646287D01*
X76350500Y-102433713D01*
X76350500Y-102433709D01*
X76317247Y-102223761D01*
X76312202Y-102208233D01*
X76251557Y-102021588D01*
X76155051Y-101832184D01*
X76155049Y-101832180D01*
X76030108Y-101660213D01*
X76030106Y-101660211D01*
X76030104Y-101660208D01*
X75879792Y-101509896D01*
X75879788Y-101509893D01*
X75879786Y-101509891D01*
X75707819Y-101384950D01*
X75707815Y-101384948D01*
X75676904Y-101369198D01*
X75655336Y-101358209D01*
X75612073Y-101314946D01*
X75602501Y-101254514D01*
X75630278Y-101199997D01*
X75655335Y-101181791D01*
X75707816Y-101155051D01*
X75879792Y-101030104D01*
X76030104Y-100879792D01*
X76155051Y-100707816D01*
X76251557Y-100518412D01*
X76317246Y-100316243D01*
X76317247Y-100316238D01*
X76350500Y-100106290D01*
X76350500Y-99893709D01*
X76317247Y-99683761D01*
X76317246Y-99683757D01*
X76251557Y-99481588D01*
X76155051Y-99292184D01*
X76155049Y-99292180D01*
X76030108Y-99120213D01*
X76030106Y-99120211D01*
X76030104Y-99120208D01*
X75879792Y-98969896D01*
X75879788Y-98969893D01*
X75879786Y-98969891D01*
X75707819Y-98844950D01*
X75707815Y-98844948D01*
X75676904Y-98829198D01*
X75655336Y-98818209D01*
X75612073Y-98774946D01*
X75602501Y-98714514D01*
X75630278Y-98659997D01*
X75655335Y-98641791D01*
X75707816Y-98615051D01*
X75879792Y-98490104D01*
X76030104Y-98339792D01*
X76155051Y-98167816D01*
X76251557Y-97978412D01*
X76317246Y-97776243D01*
X76350500Y-97566287D01*
X76350500Y-97353713D01*
X76350500Y-97353709D01*
X76317247Y-97143761D01*
X76317246Y-97143757D01*
X76251557Y-96941588D01*
X76155051Y-96752184D01*
X76155049Y-96752180D01*
X76030108Y-96580213D01*
X76030106Y-96580211D01*
X76030104Y-96580208D01*
X75879792Y-96429896D01*
X75879788Y-96429893D01*
X75879786Y-96429891D01*
X75707819Y-96304950D01*
X75707815Y-96304948D01*
X75518412Y-96208443D01*
X75316238Y-96142752D01*
X75106290Y-96109500D01*
X75106287Y-96109500D01*
X74893713Y-96109500D01*
X74893710Y-96109500D01*
X74683761Y-96142752D01*
X74481587Y-96208443D01*
X74292184Y-96304948D01*
X74292180Y-96304950D01*
X74120213Y-96429891D01*
X73969891Y-96580213D01*
X73844950Y-96752180D01*
X73844948Y-96752184D01*
X73748443Y-96941587D01*
X73682752Y-97143761D01*
X73649500Y-97353709D01*
X71628427Y-97353709D01*
X71689301Y-96725256D01*
X71689719Y-96721644D01*
X71831209Y-95671166D01*
X71831757Y-95667595D01*
X72012356Y-94623065D01*
X72013038Y-94619520D01*
X72232467Y-93582546D01*
X72233298Y-93578954D01*
X72293890Y-93337485D01*
X72491266Y-92550899D01*
X72492231Y-92547338D01*
X72624833Y-92091652D01*
X72788384Y-91529608D01*
X72789455Y-91526166D01*
X72804073Y-91482129D01*
X73649500Y-91482129D01*
X73649500Y-93277866D01*
X73649500Y-93277869D01*
X73649501Y-93277872D01*
X73651044Y-93292229D01*
X73655908Y-93337480D01*
X73655909Y-93337485D01*
X73706202Y-93472329D01*
X73786190Y-93579179D01*
X73792454Y-93587546D01*
X73792457Y-93587548D01*
X73792458Y-93587549D01*
X73907670Y-93673797D01*
X74042511Y-93724089D01*
X74042512Y-93724089D01*
X74042517Y-93724091D01*
X74102127Y-93730500D01*
X75897872Y-93730499D01*
X75957483Y-93724091D01*
X76024907Y-93698943D01*
X76092329Y-93673797D01*
X76092329Y-93673796D01*
X76092331Y-93673796D01*
X76207546Y-93587546D01*
X76293796Y-93472331D01*
X76344091Y-93337483D01*
X76350500Y-93277873D01*
X76350499Y-91482128D01*
X76344091Y-91422517D01*
X76344089Y-91422511D01*
X76293797Y-91287670D01*
X76207549Y-91172458D01*
X76207548Y-91172457D01*
X76207546Y-91172454D01*
X76207541Y-91172450D01*
X76092329Y-91086202D01*
X75957488Y-91035910D01*
X75957483Y-91035909D01*
X75957481Y-91035908D01*
X75957477Y-91035908D01*
X75926249Y-91032550D01*
X75897873Y-91029500D01*
X75897870Y-91029500D01*
X74102133Y-91029500D01*
X74102129Y-91029500D01*
X74102128Y-91029501D01*
X74094949Y-91030272D01*
X74042519Y-91035908D01*
X74042514Y-91035909D01*
X73907670Y-91086202D01*
X73792458Y-91172450D01*
X73792450Y-91172458D01*
X73706202Y-91287670D01*
X73655910Y-91422511D01*
X73655908Y-91422522D01*
X73649500Y-91482129D01*
X72804073Y-91482129D01*
X73123385Y-90520170D01*
X73124613Y-90516692D01*
X73433822Y-89689743D01*
X73495841Y-89523877D01*
X73497194Y-89520458D01*
X73905194Y-88542221D01*
X73906654Y-88538895D01*
X74350920Y-87576461D01*
X74352480Y-87573241D01*
X74832329Y-86628092D01*
X74834056Y-86624843D01*
X74880117Y-86541936D01*
X75348814Y-85698299D01*
X75350659Y-85695122D01*
X75385139Y-85638175D01*
X75844970Y-84878710D01*
X81149500Y-84878710D01*
X81149500Y-85121289D01*
X81181161Y-85361781D01*
X81181161Y-85361786D01*
X81243944Y-85596092D01*
X81243948Y-85596105D01*
X81336772Y-85820204D01*
X81336774Y-85820208D01*
X81336776Y-85820212D01*
X81429611Y-85981007D01*
X81458066Y-86030292D01*
X81605729Y-86222731D01*
X81605731Y-86222733D01*
X81605735Y-86222738D01*
X81777262Y-86394265D01*
X81777266Y-86394268D01*
X81777268Y-86394270D01*
X81969707Y-86541933D01*
X81969711Y-86541936D01*
X82179788Y-86663224D01*
X82403900Y-86756054D01*
X82638211Y-86818838D01*
X82878712Y-86850500D01*
X82878713Y-86850500D01*
X83121287Y-86850500D01*
X83121288Y-86850500D01*
X83361789Y-86818838D01*
X83596100Y-86756054D01*
X83820212Y-86663224D01*
X84030289Y-86541936D01*
X84222738Y-86394265D01*
X84394265Y-86222738D01*
X84541936Y-86030289D01*
X84663224Y-85820212D01*
X84756054Y-85596100D01*
X84818838Y-85361789D01*
X84850500Y-85121288D01*
X84850500Y-84878712D01*
X84818838Y-84638211D01*
X84756054Y-84403900D01*
X84663224Y-84179788D01*
X84541936Y-83969711D01*
X84485927Y-83896718D01*
X84394270Y-83777268D01*
X84394268Y-83777266D01*
X84394265Y-83777262D01*
X84222738Y-83605735D01*
X84222733Y-83605731D01*
X84222731Y-83605729D01*
X84030292Y-83458066D01*
X84030289Y-83458064D01*
X83820212Y-83336776D01*
X83820208Y-83336774D01*
X83820204Y-83336772D01*
X83596105Y-83243948D01*
X83596104Y-83243947D01*
X83596100Y-83243946D01*
X83361789Y-83181162D01*
X83361786Y-83181161D01*
X83361784Y-83181161D01*
X83121289Y-83149500D01*
X83121288Y-83149500D01*
X82878712Y-83149500D01*
X82878710Y-83149500D01*
X82638218Y-83181161D01*
X82638213Y-83181161D01*
X82403907Y-83243944D01*
X82403894Y-83243948D01*
X82179795Y-83336772D01*
X81969707Y-83458066D01*
X81777268Y-83605729D01*
X81605729Y-83777268D01*
X81458066Y-83969707D01*
X81336772Y-84179795D01*
X81243948Y-84403894D01*
X81243944Y-84403907D01*
X81181161Y-84638213D01*
X81181161Y-84638218D01*
X81149500Y-84878710D01*
X75844970Y-84878710D01*
X75899636Y-84788423D01*
X75901571Y-84785359D01*
X76484008Y-83899760D01*
X76486092Y-83896718D01*
X76571206Y-83777262D01*
X77101176Y-83033459D01*
X77103312Y-83030577D01*
X77750187Y-82190861D01*
X77752441Y-82188045D01*
X78430208Y-81373038D01*
X78432582Y-81370290D01*
X79140260Y-80581173D01*
X79142738Y-80578511D01*
X79879403Y-79816314D01*
X79881951Y-79813774D01*
X80646542Y-79079596D01*
X80649158Y-79077176D01*
X81440602Y-78372048D01*
X81443398Y-78369650D01*
X81718602Y-78142299D01*
X82260577Y-77694563D01*
X82263382Y-77692332D01*
X83105220Y-77048180D01*
X83108149Y-77046025D01*
X83973398Y-76433760D01*
X83976414Y-76431709D01*
X84863905Y-75852159D01*
X84866990Y-75850225D01*
X85775455Y-75304214D01*
X85778655Y-75302371D01*
X86706893Y-74790618D01*
X86710119Y-74788918D01*
X87656811Y-74312156D01*
X87660058Y-74310597D01*
X88623919Y-73869473D01*
X88627211Y-73868040D01*
X89606848Y-73463196D01*
X89610247Y-73461864D01*
X90604282Y-73093865D01*
X90607696Y-73092673D01*
X91614806Y-72762009D01*
X91618251Y-72760949D01*
X92636997Y-72468095D01*
X92640485Y-72467162D01*
X93669427Y-72212531D01*
X93672936Y-72211731D01*
X94710710Y-71995660D01*
X94714266Y-71994990D01*
X95759289Y-71817808D01*
X95762911Y-71817263D01*
X96813886Y-71679189D01*
X96817476Y-71678786D01*
X97872800Y-71580031D01*
X97876454Y-71579758D01*
X98934762Y-71520448D01*
X98938388Y-71520313D01*
X99998178Y-71500534D01*
X100001822Y-71500534D01*
X101061609Y-71520313D01*
G37*
%TD.AperFunction*%
%TA.AperFunction,Conductor*%
G36*
X126937777Y-109304608D02*
G01*
X126936570Y-109308100D01*
X126936415Y-109308521D01*
X126937926Y-109304147D01*
X126937777Y-109304608D01*
G37*
%TD.AperFunction*%
%TA.AperFunction,Conductor*%
G36*
X127808735Y-106236490D02*
G01*
X127807926Y-106240095D01*
X127807817Y-106240539D01*
X127808830Y-106236023D01*
X127932899Y-105630249D01*
X127808735Y-106236490D01*
G37*
%TD.AperFunction*%
%TA.AperFunction,Conductor*%
G36*
X124750000Y-106032728D02*
G01*
X124749998Y-106032729D01*
X124741724Y-106032079D01*
X124741717Y-106032077D01*
X124582805Y-105985909D01*
X124582802Y-105985907D01*
X124440357Y-105901666D01*
X124440349Y-105901660D01*
X124323339Y-105784650D01*
X124323333Y-105784642D01*
X124239092Y-105642197D01*
X124239091Y-105642194D01*
X124192922Y-105483283D01*
X124192921Y-105483277D01*
X124190000Y-105446157D01*
X124190000Y-105417500D01*
X124750000Y-105417500D01*
X124750000Y-106032728D01*
G37*
%TD.AperFunction*%
%TA.AperFunction,Conductor*%
G36*
X125810000Y-105446142D02*
G01*
X125809999Y-105446157D01*
X125807078Y-105483277D01*
X125807077Y-105483283D01*
X125760908Y-105642194D01*
X125760907Y-105642197D01*
X125676666Y-105784642D01*
X125676660Y-105784650D01*
X125559650Y-105901660D01*
X125559642Y-105901666D01*
X125417197Y-105985907D01*
X125417194Y-105985909D01*
X125258282Y-106032077D01*
X125258275Y-106032079D01*
X125250001Y-106032729D01*
X125250000Y-106032728D01*
X125250000Y-105417500D01*
X125810000Y-105417500D01*
X125810000Y-105446142D01*
G37*
%TD.AperFunction*%
%TA.AperFunction,Conductor*%
G36*
X128022079Y-105194474D02*
G01*
X128021406Y-105198107D01*
X128021312Y-105198561D01*
X128022146Y-105194065D01*
X128022079Y-105194474D01*
G37*
%TD.AperFunction*%
%TA.AperFunction,Conductor*%
G36*
X125501584Y-104314770D02*
G01*
X125514082Y-104383513D01*
X125554684Y-104427004D01*
X125553482Y-104428555D01*
X125559650Y-104433339D01*
X125676660Y-104550349D01*
X125676666Y-104550357D01*
X125760907Y-104692802D01*
X125760908Y-104692805D01*
X125807077Y-104851716D01*
X125807078Y-104851722D01*
X125809999Y-104888842D01*
X125810000Y-104888857D01*
X125810000Y-104917500D01*
X124190000Y-104917500D01*
X124190000Y-104888842D01*
X124192921Y-104851722D01*
X124192922Y-104851716D01*
X124239091Y-104692805D01*
X124239092Y-104692802D01*
X124323333Y-104550357D01*
X124323339Y-104550349D01*
X124440352Y-104433337D01*
X124446516Y-104428556D01*
X124445802Y-104427636D01*
X124476114Y-104399789D01*
X124498967Y-104333763D01*
X124482496Y-104265862D01*
X124548002Y-104379322D01*
X124548004Y-104379324D01*
X124548006Y-104379327D01*
X124580547Y-104411868D01*
X124584078Y-104416121D01*
X124669356Y-104501400D01*
X124669359Y-104501402D01*
X124669360Y-104501403D01*
X124720175Y-104523839D01*
X124729664Y-104528655D01*
X124781975Y-104558858D01*
X124925636Y-104597352D01*
X124925638Y-104597352D01*
X125074362Y-104597352D01*
X125074364Y-104597352D01*
X125218025Y-104558858D01*
X125270329Y-104528659D01*
X125279831Y-104523835D01*
X125330640Y-104501403D01*
X125411403Y-104420640D01*
X125411404Y-104420636D01*
X125415941Y-104416100D01*
X125419464Y-104411855D01*
X125451994Y-104379327D01*
X125451995Y-104379324D01*
X125451997Y-104379323D01*
X125517503Y-104265862D01*
X125501584Y-104314770D01*
G37*
%TD.AperFunction*%
%TA.AperFunction,Conductor*%
G36*
X120344949Y-104050272D02*
G01*
X120292519Y-104055908D01*
X120292514Y-104055909D01*
X120157670Y-104106202D01*
X120042458Y-104192450D01*
X120042450Y-104192458D01*
X119956202Y-104307670D01*
X119940681Y-104349284D01*
X119906403Y-104257379D01*
X119906401Y-104257372D01*
X119900000Y-104197844D01*
X119900000Y-104050000D01*
X120347482Y-104050000D01*
X120344949Y-104050272D01*
G37*
%TD.AperFunction*%
%TA.AperFunction,Conductor*%
G36*
X122700000Y-104197827D02*
G01*
X122699999Y-104197844D01*
X122693598Y-104257372D01*
X122693596Y-104257379D01*
X122659317Y-104349284D01*
X122643797Y-104307670D01*
X122557549Y-104192458D01*
X122557548Y-104192457D01*
X122557546Y-104192454D01*
X122496961Y-104147100D01*
X122442329Y-104106202D01*
X122307488Y-104055910D01*
X122307483Y-104055909D01*
X122307481Y-104055908D01*
X122307477Y-104055908D01*
X122276249Y-104052550D01*
X122252525Y-104050000D01*
X122700000Y-104050000D01*
X122700000Y-104197827D01*
G37*
%TD.AperFunction*%
%TA.AperFunction,Conductor*%
G36*
X126517505Y-101765858D02*
G01*
X126501584Y-101814770D01*
X126514082Y-101883513D01*
X126554684Y-101927004D01*
X126553482Y-101928555D01*
X126559650Y-101933339D01*
X126676660Y-102050349D01*
X126676666Y-102050357D01*
X126760907Y-102192802D01*
X126760908Y-102192805D01*
X126807077Y-102351716D01*
X126807078Y-102351722D01*
X126809999Y-102388842D01*
X126810000Y-102388857D01*
X126810000Y-102417500D01*
X126124000Y-102417500D01*
X126072489Y-102428706D01*
X126019685Y-102474461D01*
X126000000Y-102541500D01*
X126000000Y-102667500D01*
X125874000Y-102667500D01*
X125822489Y-102678706D01*
X125769685Y-102724461D01*
X125750000Y-102791500D01*
X125750000Y-103532728D01*
X125749998Y-103532729D01*
X125741724Y-103532079D01*
X125741718Y-103532078D01*
X125723450Y-103526770D01*
X125706499Y-103523107D01*
X125637341Y-103533051D01*
X125584537Y-103578806D01*
X125564852Y-103645845D01*
X125564852Y-102623136D01*
X125564852Y-102623135D01*
X125526359Y-102479475D01*
X125526357Y-102479472D01*
X125526357Y-102479470D01*
X125451997Y-102350676D01*
X125451995Y-102350674D01*
X125451994Y-102350672D01*
X125346828Y-102245506D01*
X125346825Y-102245504D01*
X125346822Y-102245501D01*
X125346027Y-102244891D01*
X125345620Y-102244299D01*
X125342240Y-102240919D01*
X125342866Y-102240292D01*
X125311373Y-102194465D01*
X125312978Y-102133300D01*
X125350228Y-102084761D01*
X125406298Y-102067352D01*
X125800642Y-102067352D01*
X125826263Y-102070724D01*
X125925635Y-102097351D01*
X125925637Y-102097351D01*
X126074362Y-102097351D01*
X126074364Y-102097351D01*
X126218024Y-102058858D01*
X126270340Y-102028652D01*
X126279821Y-102023840D01*
X126330640Y-102001403D01*
X126411403Y-101920640D01*
X126411404Y-101920636D01*
X126415941Y-101916100D01*
X126419464Y-101911855D01*
X126451994Y-101879327D01*
X126517519Y-101765832D01*
X126517505Y-101765858D01*
G37*
%TD.AperFunction*%
%TA.AperFunction,Conductor*%
G36*
X120249500Y-103064827D02*
G01*
X120258232Y-103108720D01*
X120258233Y-103108722D01*
X120291496Y-103158504D01*
X120341278Y-103191767D01*
X120352327Y-103193964D01*
X120385172Y-103200499D01*
X120385178Y-103200499D01*
X120385180Y-103200500D01*
X121010661Y-103200500D01*
X121060161Y-103213763D01*
X121081975Y-103226358D01*
X121225636Y-103264852D01*
X122823283Y-103264852D01*
X122760009Y-103282210D01*
X122712399Y-103333348D01*
X122700589Y-103398805D01*
X122699822Y-103398847D01*
X122699995Y-103402096D01*
X122699994Y-103402107D01*
X122699998Y-103402153D01*
X122700000Y-103402172D01*
X122700000Y-103550000D01*
X119900000Y-103550000D01*
X119900000Y-103402155D01*
X119906401Y-103342627D01*
X119906403Y-103342620D01*
X119956645Y-103207913D01*
X119956649Y-103207906D01*
X120042809Y-103092812D01*
X120042812Y-103092809D01*
X120157907Y-103006648D01*
X120157909Y-103006647D01*
X120168838Y-103002571D01*
X120177011Y-102999185D01*
X120229815Y-102953430D01*
X120249500Y-102886391D01*
X120249500Y-103064827D01*
G37*
%TD.AperFunction*%
%TA.AperFunction,Conductor*%
G36*
X126810000Y-102946142D02*
G01*
X126809999Y-102946157D01*
X126807078Y-102983277D01*
X126807077Y-102983283D01*
X126760908Y-103142194D01*
X126760907Y-103142197D01*
X126676666Y-103284642D01*
X126676660Y-103284650D01*
X126559650Y-103401660D01*
X126559642Y-103401666D01*
X126417197Y-103485907D01*
X126417194Y-103485909D01*
X126258282Y-103532077D01*
X126258275Y-103532079D01*
X126250001Y-103532729D01*
X126250000Y-103532728D01*
X126250000Y-102917500D01*
X126810000Y-102917500D01*
X126810000Y-102946142D01*
G37*
%TD.AperFunction*%
%TA.AperFunction,Conductor*%
G36*
X124394339Y-103283759D02*
G01*
X124430303Y-103333259D01*
X124435148Y-103363852D01*
X124435148Y-103388852D01*
X124423942Y-103337341D01*
X124378187Y-103284537D01*
X124311148Y-103264852D01*
X124336148Y-103264852D01*
X124394339Y-103283759D01*
G37*
%TD.AperFunction*%
%TA.AperFunction,Conductor*%
G36*
X122700000Y-101997827D02*
G01*
X122699998Y-101997846D01*
X122699994Y-101997893D01*
X122699995Y-101997904D01*
X122699822Y-102001153D01*
X122700528Y-102001190D01*
X122710489Y-102062659D01*
X122756244Y-102115463D01*
X122823283Y-102135148D01*
X121225636Y-102135148D01*
X121081975Y-102173642D01*
X121081974Y-102173642D01*
X121081972Y-102173643D01*
X121060162Y-102186236D01*
X121010661Y-102199500D01*
X120385172Y-102199500D01*
X120341279Y-102208232D01*
X120341275Y-102208234D01*
X120291498Y-102241494D01*
X120291494Y-102241498D01*
X120258234Y-102291275D01*
X120258232Y-102291279D01*
X120249500Y-102335172D01*
X120249500Y-102513608D01*
X120249184Y-102504757D01*
X120224764Y-102439294D01*
X120168829Y-102397425D01*
X120157910Y-102393353D01*
X120157908Y-102393351D01*
X120042812Y-102307190D01*
X120042809Y-102307187D01*
X119956649Y-102192093D01*
X119956645Y-102192086D01*
X119906403Y-102057379D01*
X119906401Y-102057372D01*
X119900000Y-101997844D01*
X119900000Y-101850000D01*
X122700000Y-101850000D01*
X122700000Y-101997827D01*
G37*
%TD.AperFunction*%
%TA.AperFunction,Conductor*%
G36*
X124653173Y-101954494D02*
G01*
X124653175Y-101954495D01*
X124653176Y-101954496D01*
X124657230Y-101957607D01*
X124691885Y-102008032D01*
X124690282Y-102069197D01*
X124653034Y-102117738D01*
X124596961Y-102135148D01*
X124534465Y-102135148D01*
X124543311Y-102134832D01*
X124608775Y-102110415D01*
X124650647Y-102054482D01*
X124655631Y-101984790D01*
X124622146Y-101923467D01*
X124653173Y-101954494D01*
G37*
%TD.AperFunction*%
%TA.AperFunction,Conductor*%
G36*
X121050000Y-101350000D02*
G01*
X119900000Y-101350000D01*
X119900000Y-101202155D01*
X119906401Y-101142627D01*
X119906403Y-101142620D01*
X119956645Y-101007913D01*
X119956649Y-101007906D01*
X120042809Y-100892812D01*
X120042812Y-100892809D01*
X120157906Y-100806649D01*
X120157913Y-100806645D01*
X120292620Y-100756403D01*
X120292627Y-100756401D01*
X120352155Y-100750000D01*
X121050000Y-100750000D01*
X121050000Y-101350000D01*
G37*
%TD.AperFunction*%
%TA.AperFunction,Conductor*%
G36*
X122307372Y-100756401D02*
G01*
X122307379Y-100756403D01*
X122442086Y-100806645D01*
X122442093Y-100806649D01*
X122557187Y-100892809D01*
X122557190Y-100892812D01*
X122643350Y-101007906D01*
X122643354Y-101007913D01*
X122693596Y-101142620D01*
X122693598Y-101142627D01*
X122699999Y-101202155D01*
X122700000Y-101202172D01*
X122700000Y-101350000D01*
X121550000Y-101350000D01*
X121550000Y-100750000D01*
X122247844Y-100750000D01*
X122307372Y-100756401D01*
G37*
%TD.AperFunction*%
%TA.AperFunction,Conductor*%
G36*
X126417565Y-101150521D02*
G01*
X126421098Y-101154776D01*
X126419455Y-101153133D01*
X126415930Y-101148888D01*
X126417565Y-101150521D01*
G37*
%TD.AperFunction*%
%TA.AperFunction,Conductor*%
G36*
X126324484Y-101057440D02*
G01*
X126326114Y-101059072D01*
X126321867Y-101055545D01*
X126320224Y-101053903D01*
X126324484Y-101057440D01*
G37*
%TD.AperFunction*%
%TA.AperFunction,Conductor*%
G36*
X125607666Y-100744757D02*
G01*
X125588030Y-100796001D01*
X125597974Y-100865159D01*
X125643729Y-100917963D01*
X125710768Y-100937648D01*
X125663852Y-100937648D01*
X125605661Y-100918741D01*
X125569697Y-100869241D01*
X125564852Y-100838648D01*
X125564852Y-100825588D01*
X125583759Y-100767397D01*
X125605843Y-100746165D01*
X125608498Y-100743507D01*
X125607666Y-100744757D01*
G37*
%TD.AperFunction*%
%TA.AperFunction,Conductor*%
G36*
X124429027Y-100791316D02*
G01*
X124435148Y-100825588D01*
X124435148Y-100838518D01*
X124432314Y-100812160D01*
X124402698Y-100757923D01*
X124429027Y-100791316D01*
G37*
%TD.AperFunction*%
%TA.AperFunction,Conductor*%
G36*
X124349500Y-100649827D02*
G01*
X124349728Y-100650977D01*
X124349499Y-100649822D01*
X124349500Y-100649822D01*
X124349500Y-100649827D01*
G37*
%TD.AperFunction*%
%TA.AperFunction,Conductor*%
G36*
X124555000Y-99310500D02*
G01*
X124566206Y-99362011D01*
X124611961Y-99414815D01*
X124679000Y-99434500D01*
X124485180Y-99434500D01*
X124485172Y-99434500D01*
X124441279Y-99443232D01*
X124441275Y-99443234D01*
X124391498Y-99476494D01*
X124391494Y-99476498D01*
X124358234Y-99526275D01*
X124358232Y-99526279D01*
X124349500Y-99570172D01*
X124349500Y-100292398D01*
X124346666Y-100266038D01*
X124313180Y-100204715D01*
X124251856Y-100171231D01*
X124182165Y-100176217D01*
X124162380Y-100183596D01*
X124162372Y-100183598D01*
X124102844Y-100189999D01*
X124102828Y-100190000D01*
X123780000Y-100190000D01*
X123780000Y-98840000D01*
X124555000Y-98840000D01*
X124555000Y-99310500D01*
G37*
%TD.AperFunction*%
%TA.AperFunction,Conductor*%
G36*
X126220000Y-100190000D02*
G01*
X125897172Y-100190000D01*
X125897155Y-100189999D01*
X125837627Y-100183598D01*
X125837619Y-100183596D01*
X125817835Y-100176217D01*
X125792147Y-100169660D01*
X125722989Y-100179604D01*
X125670185Y-100225359D01*
X125650500Y-100292398D01*
X125650500Y-99570180D01*
X125650499Y-99570178D01*
X125650499Y-99570172D01*
X125641767Y-99526279D01*
X125641765Y-99526275D01*
X125611906Y-99481588D01*
X125608504Y-99476496D01*
X125607840Y-99476052D01*
X125558724Y-99443234D01*
X125558720Y-99443232D01*
X125514827Y-99434500D01*
X125514820Y-99434500D01*
X125321000Y-99434500D01*
X125372511Y-99423294D01*
X125425315Y-99377539D01*
X125445000Y-99310500D01*
X125445000Y-98840000D01*
X126220000Y-98840000D01*
X126220000Y-100190000D01*
G37*
%TD.AperFunction*%
%TA.AperFunction,Conductor*%
G36*
X123280000Y-100190000D02*
G01*
X122957172Y-100190000D01*
X122957155Y-100189999D01*
X122897627Y-100183598D01*
X122897620Y-100183596D01*
X122762913Y-100133354D01*
X122762906Y-100133350D01*
X122647812Y-100047190D01*
X122647809Y-100047187D01*
X122561649Y-99932093D01*
X122561645Y-99932086D01*
X122511403Y-99797379D01*
X122511401Y-99797372D01*
X122505000Y-99737844D01*
X122505000Y-98840000D01*
X123280000Y-98840000D01*
X123280000Y-100190000D01*
G37*
%TD.AperFunction*%
%TA.AperFunction,Conductor*%
G36*
X127495000Y-99737827D02*
G01*
X127494999Y-99737844D01*
X127488598Y-99797372D01*
X127488596Y-99797379D01*
X127438354Y-99932086D01*
X127438350Y-99932093D01*
X127352190Y-100047187D01*
X127352187Y-100047190D01*
X127237093Y-100133350D01*
X127237086Y-100133354D01*
X127102379Y-100183596D01*
X127102372Y-100183598D01*
X127042844Y-100189999D01*
X127042828Y-100190000D01*
X126720000Y-100190000D01*
X126720000Y-98840000D01*
X127495000Y-98840000D01*
X127495000Y-99737827D01*
G37*
%TD.AperFunction*%
%TA.AperFunction,Conductor*%
G36*
X123280000Y-98340000D02*
G01*
X122505000Y-98340000D01*
X122505000Y-97442155D01*
X122511401Y-97382627D01*
X122511403Y-97382620D01*
X122561645Y-97247913D01*
X122561649Y-97247906D01*
X122647809Y-97132812D01*
X122647812Y-97132809D01*
X122762906Y-97046649D01*
X122762913Y-97046645D01*
X122897620Y-96996403D01*
X122897627Y-96996401D01*
X122957155Y-96990000D01*
X123280000Y-96990000D01*
X123280000Y-98340000D01*
G37*
%TD.AperFunction*%
%TA.AperFunction,Conductor*%
G36*
X124162372Y-96996401D02*
G01*
X124162379Y-96996403D01*
X124297086Y-97046645D01*
X124297093Y-97046649D01*
X124412187Y-97132809D01*
X124412190Y-97132812D01*
X124498350Y-97247906D01*
X124498354Y-97247913D01*
X124548596Y-97382620D01*
X124548598Y-97382627D01*
X124554999Y-97442155D01*
X124555000Y-97442172D01*
X124555000Y-98340000D01*
X123780000Y-98340000D01*
X123780000Y-96990000D01*
X124102844Y-96990000D01*
X124162372Y-96996401D01*
G37*
%TD.AperFunction*%
%TA.AperFunction,Conductor*%
G36*
X126220000Y-98340000D02*
G01*
X125445000Y-98340000D01*
X125445000Y-97442155D01*
X125451401Y-97382627D01*
X125451403Y-97382620D01*
X125501645Y-97247913D01*
X125501649Y-97247906D01*
X125587809Y-97132812D01*
X125587812Y-97132809D01*
X125702906Y-97046649D01*
X125702913Y-97046645D01*
X125837620Y-96996403D01*
X125837627Y-96996401D01*
X125897155Y-96990000D01*
X126220000Y-96990000D01*
X126220000Y-98340000D01*
G37*
%TD.AperFunction*%
%TA.AperFunction,Conductor*%
G36*
X127102372Y-96996401D02*
G01*
X127102379Y-96996403D01*
X127237086Y-97046645D01*
X127237093Y-97046649D01*
X127352187Y-97132809D01*
X127352190Y-97132812D01*
X127438350Y-97247906D01*
X127438354Y-97247913D01*
X127488596Y-97382620D01*
X127488598Y-97382627D01*
X127494999Y-97442155D01*
X127495000Y-97442172D01*
X127495000Y-98340000D01*
X126720000Y-98340000D01*
X126720000Y-96990000D01*
X127042844Y-96990000D01*
X127102372Y-96996401D01*
G37*
%TD.AperFunction*%
%TA.AperFunction,Conductor*%
G36*
X128310215Y-96721160D02*
G01*
X128310216Y-96721174D01*
X128293963Y-96600500D01*
X128310215Y-96721160D01*
G37*
%TD.AperFunction*%
%TD*%
%TA.AperFunction,Conductor*%
%TO.N,GND*%
G36*
X128310215Y-96721160D02*
G01*
X128310747Y-96725757D01*
X128412845Y-97779806D01*
X128413205Y-97784420D01*
X128475901Y-98841530D01*
X128476089Y-98846153D01*
X128499298Y-99904888D01*
X128499313Y-99909516D01*
X128483000Y-100968350D01*
X128482843Y-100972975D01*
X128427032Y-102030496D01*
X128426702Y-102035112D01*
X128331469Y-103089802D01*
X128330967Y-103094402D01*
X128196446Y-104144817D01*
X128195772Y-104149396D01*
X128022152Y-105194038D01*
X128021308Y-105198588D01*
X127808830Y-106236023D01*
X127807817Y-106240539D01*
X127556778Y-107269318D01*
X127555598Y-107273792D01*
X127266336Y-108292523D01*
X127264989Y-108296950D01*
X126937926Y-109304147D01*
X126936415Y-109308521D01*
X126571988Y-110302838D01*
X126570314Y-110307153D01*
X126169052Y-111287148D01*
X126167219Y-111291397D01*
X125729667Y-112255744D01*
X125727677Y-112259922D01*
X125254437Y-113207286D01*
X125252292Y-113211387D01*
X124964157Y-113738065D01*
X118000000Y-113400000D01*
X118408380Y-104197844D01*
X119900000Y-104197844D01*
X119906401Y-104257372D01*
X119906403Y-104257379D01*
X119956645Y-104392086D01*
X119956649Y-104392093D01*
X120042809Y-104507187D01*
X120042812Y-104507190D01*
X120149811Y-104587290D01*
X120191682Y-104643223D01*
X120199500Y-104686556D01*
X120199500Y-105269752D01*
X120211131Y-105328229D01*
X120211132Y-105328230D01*
X120246465Y-105381109D01*
X120267343Y-105447786D01*
X120248859Y-105515166D01*
X120246465Y-105518891D01*
X120211132Y-105571769D01*
X120211131Y-105571770D01*
X120199500Y-105630247D01*
X120199500Y-106369752D01*
X120211131Y-106428229D01*
X120211132Y-106428230D01*
X120246465Y-106481109D01*
X120267343Y-106547786D01*
X120248859Y-106615166D01*
X120246465Y-106618891D01*
X120211132Y-106671769D01*
X120211131Y-106671770D01*
X120199500Y-106730247D01*
X120199500Y-107469752D01*
X120211131Y-107528229D01*
X120211132Y-107528230D01*
X120246465Y-107581109D01*
X120267343Y-107647786D01*
X120248859Y-107715166D01*
X120246465Y-107718891D01*
X120211132Y-107771769D01*
X120211131Y-107771770D01*
X120199500Y-107830247D01*
X120199500Y-108569752D01*
X120211131Y-108628229D01*
X120211132Y-108628230D01*
X120246465Y-108681109D01*
X120267343Y-108747786D01*
X120248859Y-108815166D01*
X120246465Y-108818891D01*
X120211132Y-108871769D01*
X120211131Y-108871770D01*
X120199500Y-108930247D01*
X120199500Y-109669752D01*
X120211131Y-109728229D01*
X120211132Y-109728230D01*
X120246465Y-109781109D01*
X120267343Y-109847786D01*
X120248859Y-109915166D01*
X120246465Y-109918891D01*
X120211132Y-109971769D01*
X120211131Y-109971770D01*
X120199500Y-110030247D01*
X120199500Y-110769752D01*
X120211131Y-110828229D01*
X120211132Y-110828230D01*
X120255447Y-110894552D01*
X120321769Y-110938867D01*
X120321770Y-110938868D01*
X120380247Y-110950499D01*
X120380250Y-110950500D01*
X120380252Y-110950500D01*
X122219750Y-110950500D01*
X122219751Y-110950499D01*
X122234568Y-110947552D01*
X122278229Y-110938868D01*
X122278229Y-110938867D01*
X122278231Y-110938867D01*
X122344552Y-110894552D01*
X122388867Y-110828231D01*
X122388867Y-110828229D01*
X122388868Y-110828229D01*
X122400499Y-110769752D01*
X122400500Y-110769750D01*
X122400500Y-110030249D01*
X122400499Y-110030247D01*
X122388868Y-109971770D01*
X122388867Y-109971768D01*
X122353535Y-109918892D01*
X122332656Y-109852215D01*
X122351140Y-109784835D01*
X122353535Y-109781108D01*
X122388867Y-109728231D01*
X122388868Y-109728229D01*
X122400499Y-109669752D01*
X122400500Y-109669750D01*
X122400500Y-108930249D01*
X122400499Y-108930247D01*
X122388868Y-108871770D01*
X122388867Y-108871768D01*
X122353535Y-108818892D01*
X122332656Y-108752215D01*
X122351140Y-108684835D01*
X122353535Y-108681108D01*
X122388867Y-108628231D01*
X122388868Y-108628229D01*
X122400499Y-108569752D01*
X122400500Y-108569750D01*
X122400500Y-107830249D01*
X122400499Y-107830247D01*
X122388868Y-107771770D01*
X122388867Y-107771768D01*
X122353535Y-107718892D01*
X122332656Y-107652215D01*
X122351140Y-107584835D01*
X122353535Y-107581108D01*
X122388867Y-107528231D01*
X122388868Y-107528229D01*
X122400499Y-107469752D01*
X122400500Y-107469750D01*
X122400500Y-106730249D01*
X122400499Y-106730247D01*
X122388868Y-106671770D01*
X122388867Y-106671768D01*
X122353535Y-106618892D01*
X122332656Y-106552215D01*
X122351140Y-106484835D01*
X122353535Y-106481108D01*
X122388867Y-106428231D01*
X122388868Y-106428229D01*
X122400499Y-106369752D01*
X122400500Y-106369750D01*
X122400500Y-105630249D01*
X122400499Y-105630247D01*
X122388868Y-105571770D01*
X122388867Y-105571768D01*
X122353535Y-105518892D01*
X122348374Y-105502410D01*
X122338646Y-105488137D01*
X122338149Y-105469757D01*
X122332656Y-105452215D01*
X122334288Y-105446157D01*
X124190000Y-105446157D01*
X124192921Y-105483277D01*
X124192922Y-105483283D01*
X124239091Y-105642194D01*
X124239092Y-105642197D01*
X124323333Y-105784642D01*
X124323339Y-105784650D01*
X124440349Y-105901660D01*
X124440357Y-105901666D01*
X124582802Y-105985907D01*
X124582805Y-105985909D01*
X124741717Y-106032077D01*
X124741724Y-106032079D01*
X124749998Y-106032729D01*
X124750000Y-106032728D01*
X125250000Y-106032728D01*
X125250001Y-106032729D01*
X125258275Y-106032079D01*
X125258282Y-106032077D01*
X125417194Y-105985909D01*
X125417197Y-105985907D01*
X125559642Y-105901666D01*
X125559650Y-105901660D01*
X125676660Y-105784650D01*
X125676666Y-105784642D01*
X125760907Y-105642197D01*
X125760908Y-105642194D01*
X125807077Y-105483283D01*
X125807078Y-105483277D01*
X125809999Y-105446157D01*
X125810000Y-105446142D01*
X125810000Y-105417500D01*
X125250000Y-105417500D01*
X125250000Y-106032728D01*
X124750000Y-106032728D01*
X124750000Y-105417500D01*
X124190000Y-105417500D01*
X124190000Y-105446157D01*
X122334288Y-105446157D01*
X122337217Y-105435283D01*
X122336758Y-105418293D01*
X122349258Y-105390586D01*
X122350547Y-105385804D01*
X122351982Y-105383431D01*
X122388867Y-105328231D01*
X122390572Y-105319658D01*
X122390573Y-105319657D01*
X122400499Y-105269752D01*
X122400500Y-105269750D01*
X122400500Y-104686556D01*
X122420185Y-104619517D01*
X122450189Y-104587290D01*
X122557187Y-104507190D01*
X122557190Y-104507187D01*
X122643350Y-104392093D01*
X122643354Y-104392086D01*
X122693596Y-104257379D01*
X122693598Y-104257372D01*
X122699999Y-104197844D01*
X122700000Y-104197827D01*
X122700000Y-104050000D01*
X119900000Y-104050000D01*
X119900000Y-104197844D01*
X118408380Y-104197844D01*
X118512574Y-101850000D01*
X119900000Y-101850000D01*
X119900000Y-101997844D01*
X119906401Y-102057372D01*
X119906403Y-102057379D01*
X119956645Y-102192086D01*
X119956649Y-102192093D01*
X120042809Y-102307187D01*
X120042812Y-102307190D01*
X120157908Y-102393351D01*
X120157910Y-102393353D01*
X120168829Y-102397425D01*
X120224764Y-102439294D01*
X120249184Y-102504757D01*
X120249500Y-102513608D01*
X120249500Y-102886391D01*
X120229815Y-102953430D01*
X120177011Y-102999185D01*
X120168838Y-103002571D01*
X120157909Y-103006647D01*
X120157907Y-103006648D01*
X120042812Y-103092809D01*
X120042809Y-103092812D01*
X119956649Y-103207906D01*
X119956645Y-103207913D01*
X119906403Y-103342620D01*
X119906401Y-103342627D01*
X119900000Y-103402155D01*
X119900000Y-103550000D01*
X122700000Y-103550000D01*
X122700000Y-103402172D01*
X122699998Y-103402153D01*
X122699994Y-103402107D01*
X122699995Y-103402096D01*
X122699822Y-103398847D01*
X122700589Y-103398805D01*
X122712399Y-103333348D01*
X122760009Y-103282210D01*
X122823283Y-103264852D01*
X124311148Y-103264852D01*
X124378187Y-103284537D01*
X124423942Y-103337341D01*
X124435148Y-103388852D01*
X124435148Y-104106864D01*
X124459522Y-104197827D01*
X124473642Y-104250526D01*
X124473644Y-104250529D01*
X124482496Y-104265862D01*
X124498967Y-104333763D01*
X124476114Y-104399789D01*
X124445802Y-104427636D01*
X124446516Y-104428556D01*
X124440352Y-104433337D01*
X124323339Y-104550349D01*
X124323333Y-104550357D01*
X124239092Y-104692802D01*
X124239091Y-104692805D01*
X124192922Y-104851716D01*
X124192921Y-104851722D01*
X124190000Y-104888842D01*
X124190000Y-104917500D01*
X125810000Y-104917500D01*
X125810000Y-104888857D01*
X125809999Y-104888842D01*
X125807078Y-104851722D01*
X125807077Y-104851716D01*
X125760908Y-104692805D01*
X125760907Y-104692802D01*
X125676666Y-104550357D01*
X125676660Y-104550349D01*
X125559650Y-104433339D01*
X125553482Y-104428555D01*
X125554684Y-104427004D01*
X125514082Y-104383513D01*
X125501584Y-104314770D01*
X125517505Y-104265857D01*
X125526358Y-104250525D01*
X125564852Y-104106864D01*
X125564852Y-103645845D01*
X125584537Y-103578806D01*
X125637341Y-103533051D01*
X125706499Y-103523107D01*
X125723450Y-103526770D01*
X125741718Y-103532078D01*
X125741724Y-103532079D01*
X125749998Y-103532729D01*
X125750000Y-103532728D01*
X126250000Y-103532728D01*
X126250001Y-103532729D01*
X126258275Y-103532079D01*
X126258282Y-103532077D01*
X126417194Y-103485909D01*
X126417197Y-103485907D01*
X126559642Y-103401666D01*
X126559650Y-103401660D01*
X126676660Y-103284650D01*
X126676666Y-103284642D01*
X126760907Y-103142197D01*
X126760908Y-103142194D01*
X126807077Y-102983283D01*
X126807078Y-102983277D01*
X126809999Y-102946157D01*
X126810000Y-102946142D01*
X126810000Y-102917500D01*
X126250000Y-102917500D01*
X126250000Y-103532728D01*
X125750000Y-103532728D01*
X125750000Y-102791500D01*
X125769685Y-102724461D01*
X125822489Y-102678706D01*
X125874000Y-102667500D01*
X126000000Y-102667500D01*
X126000000Y-102541500D01*
X126019685Y-102474461D01*
X126072489Y-102428706D01*
X126124000Y-102417500D01*
X126810000Y-102417500D01*
X126810000Y-102388857D01*
X126809999Y-102388842D01*
X126807078Y-102351722D01*
X126807077Y-102351716D01*
X126760908Y-102192805D01*
X126760907Y-102192802D01*
X126676666Y-102050357D01*
X126676660Y-102050349D01*
X126559650Y-101933339D01*
X126553482Y-101928555D01*
X126554684Y-101927004D01*
X126514082Y-101883513D01*
X126501584Y-101814770D01*
X126517505Y-101765858D01*
X126517941Y-101765101D01*
X126526358Y-101750524D01*
X126564851Y-101606864D01*
X126564851Y-101458135D01*
X126526358Y-101314475D01*
X126461520Y-101202172D01*
X126451996Y-101185675D01*
X126451992Y-101185670D01*
X126421098Y-101154776D01*
X126417565Y-101150521D01*
X126324484Y-101057440D01*
X126320221Y-101053900D01*
X126316829Y-101050508D01*
X126316827Y-101050506D01*
X126259595Y-101017463D01*
X126188025Y-100976142D01*
X126044364Y-100937648D01*
X126044361Y-100937648D01*
X125710768Y-100937648D01*
X125643729Y-100917963D01*
X125597974Y-100865159D01*
X125588030Y-100796001D01*
X125607666Y-100744757D01*
X125608502Y-100743504D01*
X125608504Y-100743504D01*
X125641767Y-100693722D01*
X125650500Y-100649820D01*
X125650500Y-100292398D01*
X125670185Y-100225359D01*
X125722989Y-100179604D01*
X125792147Y-100169660D01*
X125817835Y-100176217D01*
X125837619Y-100183596D01*
X125837627Y-100183598D01*
X125897155Y-100189999D01*
X125897172Y-100190000D01*
X126220000Y-100190000D01*
X126720000Y-100190000D01*
X127042828Y-100190000D01*
X127042844Y-100189999D01*
X127102372Y-100183598D01*
X127102379Y-100183596D01*
X127237086Y-100133354D01*
X127237093Y-100133350D01*
X127352187Y-100047190D01*
X127352190Y-100047187D01*
X127438350Y-99932093D01*
X127438354Y-99932086D01*
X127488596Y-99797379D01*
X127488598Y-99797372D01*
X127494999Y-99737844D01*
X127495000Y-99737827D01*
X127495000Y-98840000D01*
X126720000Y-98840000D01*
X126720000Y-100190000D01*
X126220000Y-100190000D01*
X126220000Y-98840000D01*
X125445000Y-98840000D01*
X125445000Y-99310500D01*
X125425315Y-99377539D01*
X125372511Y-99423294D01*
X125321000Y-99434500D01*
X124679000Y-99434500D01*
X124611961Y-99414815D01*
X124566206Y-99362011D01*
X124555000Y-99310500D01*
X124555000Y-98840000D01*
X123780000Y-98840000D01*
X123780000Y-100190000D01*
X124102828Y-100190000D01*
X124102844Y-100189999D01*
X124162372Y-100183598D01*
X124162380Y-100183596D01*
X124182165Y-100176217D01*
X124251856Y-100171231D01*
X124313180Y-100204715D01*
X124346666Y-100266038D01*
X124349500Y-100292398D01*
X124349500Y-100649820D01*
X124349500Y-100649822D01*
X124349499Y-100649822D01*
X124358231Y-100693717D01*
X124358234Y-100693724D01*
X124391495Y-100743503D01*
X124398829Y-100750837D01*
X124432314Y-100812160D01*
X124435148Y-100838518D01*
X124435148Y-101428136D01*
X124435148Y-101576864D01*
X124443187Y-101606864D01*
X124473643Y-101720528D01*
X124548003Y-101849323D01*
X124548008Y-101849329D01*
X124622146Y-101923467D01*
X124655631Y-101984790D01*
X124650647Y-102054482D01*
X124608775Y-102110415D01*
X124543311Y-102134832D01*
X124534465Y-102135148D01*
X122823283Y-102135148D01*
X122756244Y-102115463D01*
X122710489Y-102062659D01*
X122700528Y-102001190D01*
X122699822Y-102001153D01*
X122699995Y-101997904D01*
X122699994Y-101997893D01*
X122699998Y-101997846D01*
X122700000Y-101997827D01*
X122700000Y-101850000D01*
X119900000Y-101850000D01*
X118512574Y-101850000D01*
X118541325Y-101202155D01*
X119900000Y-101202155D01*
X119900000Y-101350000D01*
X121050000Y-101350000D01*
X121550000Y-101350000D01*
X122700000Y-101350000D01*
X122700000Y-101202172D01*
X122699999Y-101202155D01*
X122693598Y-101142627D01*
X122693596Y-101142620D01*
X122643354Y-101007913D01*
X122643350Y-101007906D01*
X122557190Y-100892812D01*
X122557187Y-100892809D01*
X122442093Y-100806649D01*
X122442086Y-100806645D01*
X122307379Y-100756403D01*
X122307372Y-100756401D01*
X122247844Y-100750000D01*
X121550000Y-100750000D01*
X121550000Y-101350000D01*
X121050000Y-101350000D01*
X121050000Y-100750000D01*
X120352155Y-100750000D01*
X120292627Y-100756401D01*
X120292620Y-100756403D01*
X120157913Y-100806645D01*
X120157906Y-100806649D01*
X120042812Y-100892809D01*
X120042809Y-100892812D01*
X119956649Y-101007906D01*
X119956645Y-101007913D01*
X119906403Y-101142620D01*
X119906401Y-101142627D01*
X119900000Y-101202155D01*
X118541325Y-101202155D01*
X118606309Y-99737844D01*
X122505000Y-99737844D01*
X122511401Y-99797372D01*
X122511403Y-99797379D01*
X122561645Y-99932086D01*
X122561649Y-99932093D01*
X122647809Y-100047187D01*
X122647812Y-100047190D01*
X122762906Y-100133350D01*
X122762913Y-100133354D01*
X122897620Y-100183596D01*
X122897627Y-100183598D01*
X122957155Y-100189999D01*
X122957172Y-100190000D01*
X123280000Y-100190000D01*
X123280000Y-98840000D01*
X122505000Y-98840000D01*
X122505000Y-99737844D01*
X118606309Y-99737844D01*
X118708188Y-97442155D01*
X122505000Y-97442155D01*
X122505000Y-98340000D01*
X123280000Y-98340000D01*
X123780000Y-98340000D01*
X124555000Y-98340000D01*
X124555000Y-97442172D01*
X124554999Y-97442155D01*
X125445000Y-97442155D01*
X125445000Y-98340000D01*
X126220000Y-98340000D01*
X126720000Y-98340000D01*
X127495000Y-98340000D01*
X127495000Y-97442172D01*
X127494999Y-97442155D01*
X127488598Y-97382627D01*
X127488596Y-97382620D01*
X127438354Y-97247913D01*
X127438350Y-97247906D01*
X127352190Y-97132812D01*
X127352187Y-97132809D01*
X127237093Y-97046649D01*
X127237086Y-97046645D01*
X127102379Y-96996403D01*
X127102372Y-96996401D01*
X127042844Y-96990000D01*
X126720000Y-96990000D01*
X126720000Y-98340000D01*
X126220000Y-98340000D01*
X126220000Y-96990000D01*
X125897155Y-96990000D01*
X125837627Y-96996401D01*
X125837620Y-96996403D01*
X125702913Y-97046645D01*
X125702906Y-97046649D01*
X125587812Y-97132809D01*
X125587809Y-97132812D01*
X125501649Y-97247906D01*
X125501645Y-97247913D01*
X125451403Y-97382620D01*
X125451401Y-97382627D01*
X125445000Y-97442155D01*
X124554999Y-97442155D01*
X124548598Y-97382627D01*
X124548596Y-97382620D01*
X124498354Y-97247913D01*
X124498350Y-97247906D01*
X124412190Y-97132812D01*
X124412187Y-97132809D01*
X124297093Y-97046649D01*
X124297086Y-97046645D01*
X124162379Y-96996403D01*
X124162372Y-96996401D01*
X124102844Y-96990000D01*
X123780000Y-96990000D01*
X123780000Y-98340000D01*
X123280000Y-98340000D01*
X123280000Y-96990000D01*
X122957155Y-96990000D01*
X122897627Y-96996401D01*
X122897620Y-96996403D01*
X122762913Y-97046645D01*
X122762906Y-97046649D01*
X122647812Y-97132809D01*
X122647809Y-97132812D01*
X122561649Y-97247906D01*
X122561645Y-97247913D01*
X122511403Y-97382620D01*
X122511401Y-97382627D01*
X122505000Y-97442155D01*
X118708188Y-97442155D01*
X118750000Y-96500000D01*
X128280427Y-96500000D01*
X128310215Y-96721160D01*
G37*
%TD.AperFunction*%
%TD*%
M02*
