%TF.GenerationSoftware,KiCad,Pcbnew,10.0.5*%
%TF.CreationDate,2026-08-03T15:17:48-04:00*%
%TF.ProjectId,tracker,74726163-6b65-4722-9e6b-696361645f70,rev?*%
%TF.SameCoordinates,Original*%
%TF.FileFunction,Soldermask,Bot*%
%TF.FilePolarity,Negative*%
%FSLAX46Y46*%
G04 Gerber Fmt 4.6, Leading zero omitted, Abs format (unit mm)*
G04 Created by KiCad (PCBNEW 10.0.5) date 2026-08-03 15:17:48*
%MOMM*%
%LPD*%
G01*
G04 APERTURE LIST*
G04 Aperture macros list*
%AMRoundRect*
0 Rectangle with rounded corners*
0 $1 Rounding radius*
0 $2 $3 $4 $5 $6 $7 $8 $9 X,Y pos of 4 corners*
0 Add a 4 corners polygon primitive as box body*
4,1,4,$2,$3,$4,$5,$6,$7,$8,$9,$2,$3,0*
0 Add four circle primitives for the rounded corners*
1,1,$1+$1,$2,$3*
1,1,$1+$1,$4,$5*
1,1,$1+$1,$6,$7*
1,1,$1+$1,$8,$9*
0 Add four rect primitives between the rounded corners*
20,1,$1+$1,$2,$3,$4,$5,0*
20,1,$1+$1,$4,$5,$6,$7,0*
20,1,$1+$1,$6,$7,$8,$9,0*
20,1,$1+$1,$8,$9,$2,$3,0*%
G04 Aperture macros list end*
%ADD10C,3.200000*%
%ADD11R,3.790000X4.740000*%
%ADD12C,0.650000*%
%ADD13O,1.000000X2.100000*%
%ADD14O,1.000000X1.800000*%
%ADD15RoundRect,0.250000X0.625000X-0.350000X0.625000X0.350000X-0.625000X0.350000X-0.625000X-0.350000X0*%
%ADD16O,1.750000X1.200000*%
%ADD17RoundRect,0.160000X0.160000X-0.197500X0.160000X0.197500X-0.160000X0.197500X-0.160000X-0.197500X0*%
%ADD18RoundRect,0.155000X-0.155000X0.212500X-0.155000X-0.212500X0.155000X-0.212500X0.155000X0.212500X0*%
%ADD19R,1.000000X1.050000*%
%ADD20R,1.050000X2.200000*%
%ADD21R,1.800000X0.700000*%
%ADD22R,1.700000X1.700000*%
%ADD23C,1.700000*%
G04 APERTURE END LIST*
D10*
%TO.C,H3*%
X78000000Y-114000000D03*
%TD*%
%TO.C,H4*%
X115000000Y-85000000D03*
%TD*%
%TO.C,H1*%
X83000000Y-85000000D03*
%TD*%
D11*
%TO.C,U1*%
X101570146Y-101375252D03*
%TD*%
D10*
%TO.C,H2*%
X115000000Y-115000000D03*
%TD*%
D12*
%TO.C,J1*%
X97110000Y-123495000D03*
X102890000Y-123495000D03*
D13*
X95680000Y-122975000D03*
D14*
X95680000Y-127175000D03*
D13*
X104320000Y-122975000D03*
D14*
X104320000Y-127175000D03*
%TD*%
D15*
%TO.C,J2*%
X114800000Y-80400000D03*
D16*
X114800000Y-78400000D03*
%TD*%
D17*
%TO.C,R4*%
X125000000Y-102697500D03*
X125000000Y-101502500D03*
%TD*%
D18*
%TO.C,C1*%
X125000000Y-104032500D03*
X125000000Y-105167500D03*
%TD*%
D19*
%TO.C,JP1*%
X125000000Y-100110000D03*
D20*
X126470000Y-98590000D03*
X123530000Y-98590000D03*
%TD*%
D21*
%TO.C,U3*%
X111700000Y-110400000D03*
X111700000Y-109300000D03*
X111700000Y-108200000D03*
X111700000Y-107100000D03*
X111700000Y-106000000D03*
X111700000Y-104900000D03*
X111700000Y-103800000D03*
X111700000Y-102700000D03*
X111700000Y-101600000D03*
X121300000Y-101600000D03*
X121300000Y-102700000D03*
X121300000Y-103800000D03*
X121300000Y-104900000D03*
X121300000Y-106000000D03*
X121300000Y-107100000D03*
X121300000Y-108200000D03*
X121300000Y-109300000D03*
X121300000Y-110400000D03*
%TD*%
D22*
%TO.C,J3*%
X75000000Y-92380000D03*
D23*
X75000000Y-94920000D03*
X75000000Y-97460000D03*
X75000000Y-100000000D03*
X75000000Y-102540000D03*
X75000000Y-105080000D03*
X75000000Y-107620000D03*
%TD*%
D18*
%TO.C,C2*%
X126000000Y-101532500D03*
X126000000Y-102667500D03*
%TD*%
M02*
