M48
; DRILL file KiCad 10.0.5 date 2026-08-03T15:17:48
; FORMAT={-:-/ absolute / inch / decimal}
; #@! TF.CreationDate,2026-08-03T15:17:48-04:00
; #@! TF.GenerationSoftware,Kicad,Pcbnew,10.0.5
; #@! TF.FileFunction,Plated,1,2,PTH
FMAT,2
INCH
; #@! TA.AperFunction,Plated,PTH,ViaDrill
T1C0.0118
; #@! TA.AperFunction,Plated,PTH,ComponentDrill
T2C0.0236
; #@! TA.AperFunction,Plated,PTH,ComponentDrill
T3C0.0295
; #@! TA.AperFunction,Plated,PTH,ComponentDrill
T4C0.0394
; #@! TA.AperFunction,Plated,PTH,ComponentDrill
T5C0.1280
%
G90
G05
T1
X2.8839Y-3.9862
X3.2087Y-4.4685
X3.248Y-3.6614
X3.2776Y-3.7854
X3.4163Y-4.1673
X3.4163Y-4.2047
X3.4252Y-3.6031
X3.4252Y-3.6693
X3.5433Y-3.6614
X3.6811Y-4.0354
X3.7008Y-5.0098
X3.7795Y-4.4488
X3.7992Y-4.7283
X3.8425Y-4.7795
X3.9961Y-4.3504
X4.0315Y-4.7795
X4.189Y-3.4882
X4.2205Y-3.7717
X4.2622Y-3.6866
X4.3071Y-3.5669
X4.3209Y-4.1535
X4.3406Y-3.937
X4.3976Y-4.0
X4.3976Y-4.0866
X4.3976Y-4.1732
X4.3976Y-4.2165
X4.3976Y-4.2598
X4.3976Y-4.3031
X4.7146Y-3.9961
X4.7146Y-4.0256
X4.7146Y-4.0551
X4.7146Y-4.0846
X4.7343Y-3.9764
X4.7638Y-3.9764
X4.7933Y-3.9764
X4.8228Y-3.8287
X4.8228Y-3.8583
X4.8228Y-3.8878
X4.8228Y-3.9173
X4.8228Y-3.9469
X4.8228Y-3.9764
X4.8327Y-4.0846
X4.8524Y-3.8287
X4.8622Y-4.0846
X4.8622Y-4.1142
X4.8622Y-4.1437
X4.8819Y-3.8287
X4.8917Y-4.1732
X4.9114Y-3.8287
X4.9213Y-3.872
X4.9213Y-4.1929
X4.9409Y-3.8287
X4.9508Y-4.1732
X4.9705Y-3.8287
X4.9803Y-4.0846
X4.9803Y-4.1142
X4.9803Y-4.1437
X5.0Y-3.8287
X5.0Y-3.8583
X5.0Y-3.8878
X5.0Y-3.9173
X5.0Y-3.9469
X5.0Y-3.9764
X5.0Y-4.0059
X5.0Y-4.0354
X5.0Y-4.065
T3
X4.5197Y-3.0866
X4.5197Y-3.1654
T4
X2.9528Y-3.637
X2.9528Y-3.737
X2.9528Y-3.837
X2.9528Y-3.937
X2.9528Y-4.037
X2.9528Y-4.137
X2.9528Y-4.237
T2
G00X3.7669Y-4.8199
M15
G01X3.7669Y-4.8632
M16
G05
G00X3.7669Y-4.9911
M15
G01X3.7669Y-5.0226
M16
G05
G00X4.1071Y-4.8199
M15
G01X4.1071Y-4.8632
M16
G05
G00X4.1071Y-4.9911
M15
G01X4.1071Y-5.0226
M16
G05
T5
G00X3.9988Y-3.9715
M15
G01X3.9988Y-4.0108
M16
G05
M30
